<svg width="462" height="568" viewBox="0 0 462 568" fill="none" xmlns="http://www.w3.org/2000/svg">
<path d="M356.497 557.917H371.002C371.459 557.917 371.84 557.536 371.84 557.079V400.257C371.84 399.8 371.459 399.419 371.002 399.419C370.545 399.419 370.165 399.8 370.165 400.257V556.241H357.335V400.524C357.335 400.067 356.954 399.686 356.497 399.686C356.04 399.686 355.66 400.067 355.66 400.524V557.117C355.66 557.574 356.04 557.917 356.497 557.917Z" fill="black"/>
<path d="M295.698 567.056H431.42C431.877 567.056 432.258 566.675 432.258 566.218V562.335C432.258 561.916 431.915 561.535 431.496 561.497L371.078 556.281H356.497L295.66 561.497C295.241 561.535 294.898 561.916 294.898 562.335V566.218C294.86 566.675 295.241 567.056 295.698 567.056ZM430.583 565.381H296.535V563.096L356.535 557.918H370.964L430.583 563.096V565.381Z" fill="black"/>
<path d="M189.94 401.282H364.38C417.679 401.282 461.004 356.775 461.004 302.102V222.263C461.004 221.807 460.623 221.426 460.166 221.426H317.705C317.249 221.426 316.868 221.807 316.868 222.263V263.382C316.868 299.094 288.581 328.144 253.823 328.144C253.594 328.144 253.404 328.22 253.252 328.372C218.493 331.304 189.102 361.001 189.102 394.581V400.444C189.102 400.901 189.483 401.282 189.94 401.282ZM459.329 223.101V302.102C459.329 355.861 416.728 399.607 364.38 399.607H190.778V394.619C190.778 360.125 222.605 329.857 258.886 329.857C259.115 329.857 259.343 329.743 259.495 329.591C292.541 326.621 318.581 298.066 318.581 263.42V223.101H459.329Z" fill="black"/>
<path d="M384.219 193.06H400.438V214.038H384.219V193.06Z" fill="#DFE3E8"/>
<path d="M384.218 214.915H400.436C400.893 214.915 401.273 214.534 401.273 214.077V193.099C401.273 192.642 400.893 192.262 400.436 192.262H384.218C383.761 192.262 383.38 192.642 383.38 193.099V214.077C383.38 214.534 383.761 214.915 384.218 214.915ZM399.598 213.202H385.055V193.899H399.598V213.202Z" fill="black"/>
<path d="M400.43 199.227V193.06H384.212V206.652C385.658 206.956 388.59 207.299 391.94 206.195C397.194 204.481 399.782 200.37 400.43 199.227Z" fill="black"/>
<path d="M393.463 171.819C393.501 171.819 393.539 171.819 393.577 171.819C394.719 171.781 395.633 170.791 395.557 169.611C394.986 157.808 408.006 156.819 408.577 156.781C409.719 156.704 410.595 155.714 410.519 154.534C410.443 153.392 409.453 152.516 408.273 152.593C402.143 153.011 390.722 157.123 391.369 169.839C391.445 170.944 392.359 171.819 393.463 171.819Z" fill="black"/>
<path d="M391.634 171.741C392.434 171.741 393.195 171.284 393.538 170.485C393.804 169.876 399.934 155.865 395.898 147.832C392.472 140.978 391.672 137.857 391.672 137.857C391.406 136.752 390.264 136.029 389.122 136.334C388.017 136.6 387.294 137.742 387.561 138.846C387.599 138.999 388.398 142.349 392.129 149.735C394.756 154.951 391.254 165.269 389.655 168.81C389.198 169.876 389.655 171.094 390.721 171.589C391.063 171.703 391.368 171.741 391.634 171.741Z" fill="black"/>
<path d="M392.738 170.752C393.651 170.752 394.489 170.143 394.756 169.229C394.908 168.734 398.106 157.312 390.377 151.83C385.733 148.517 384.514 145.852 384.248 144.558C383.981 143.416 382.877 142.73 381.735 142.997C380.593 143.263 379.908 144.367 380.174 145.51C380.707 147.794 382.497 151.335 387.979 155.256C393.309 159.026 390.796 167.973 390.758 168.049C390.454 169.153 391.063 170.333 392.205 170.638C392.319 170.752 392.547 170.752 392.738 170.752Z" fill="black"/>
<path d="M392.093 170.941C392.131 170.941 392.207 170.941 392.245 170.941C393.387 170.865 394.263 169.837 394.187 168.695C394.149 168.238 393.197 157.235 381.319 153.656C373.971 151.448 372.372 146.156 372.296 145.927C371.992 144.823 370.811 144.176 369.707 144.481C368.603 144.785 367.956 145.927 368.261 147.031C368.337 147.336 370.469 154.76 380.101 157.654C389.276 160.433 389.999 168.923 389.999 168.999C390.113 170.104 391.027 170.941 392.093 170.941Z" fill="black"/>
<path d="M388.897 170.181C389.012 170.181 389.088 170.181 389.202 170.143C390.344 169.99 391.106 168.962 390.953 167.82C390.611 165.269 387.908 160.358 380.103 159.939C373.403 159.596 371.385 156.398 371.309 156.246C370.738 155.218 369.481 154.875 368.453 155.447C367.426 156.018 367.083 157.312 367.616 158.302C367.73 158.53 370.624 163.632 379.837 164.127C385.89 164.432 386.689 168.011 386.766 168.391C386.994 169.457 387.908 170.181 388.897 170.181Z" fill="black"/>
<path d="M403.178 188.645L390.196 185.447L377.061 188.454L376.186 185.675C373.178 176.233 380.221 166.562 390.157 166.562C400.018 166.562 407.099 176.119 404.168 185.561L403.178 188.645Z" fill="black"/>
<path d="M390.118 202.692C382.906 202.692 377.059 196.232 377.059 188.263C377.059 180.293 382.906 173.833 390.118 173.833C397.329 173.833 403.176 180.293 403.176 188.263C403.176 196.232 397.329 202.692 390.118 202.692Z" fill="#DFE3E8"/>
<path d="M390.116 203.569C397.768 203.569 404.012 196.715 404.012 188.301C404.012 179.887 397.768 173.034 390.116 173.034C382.464 173.034 376.22 179.887 376.22 188.301C376.22 196.715 382.464 203.569 390.116 203.569ZM390.116 174.671C396.854 174.671 402.337 180.763 402.337 188.263C402.337 195.764 396.854 201.855 390.116 201.855C383.377 201.855 377.895 195.764 377.895 188.263C377.895 180.763 383.377 174.671 390.116 174.671Z" fill="black"/>
<path d="M395.785 194.624C394.529 195.766 392.892 196.565 391.064 196.756C386.991 197.175 383.298 194.509 382.27 190.664L395.785 194.624Z" fill="white"/>
<path d="M406.522 192.91C408.502 192.91 410.062 191.311 410.062 189.369C410.062 187.39 408.464 185.829 406.522 185.829C404.542 185.829 402.981 187.428 402.981 189.369C402.981 191.311 404.58 192.91 406.522 192.91ZM406.522 187.466C407.55 187.466 408.387 188.303 408.387 189.331C408.387 190.359 407.55 191.197 406.522 191.197C405.494 191.197 404.656 190.359 404.656 189.331C404.656 188.303 405.494 187.466 406.522 187.466Z" fill="#020202"/>
<path d="M203.286 232.889L303.336 264.451C312.244 267.345 321.8 267.573 330.823 265.098L340.759 262.395L331.508 307.626H422.84L401.901 211.606L368.551 211.492C367.561 211.492 366.571 211.568 365.619 211.72C358.995 211.987 352.409 213.015 346.013 214.728L306.077 225.274L218.057 197.481L203.286 232.889Z" fill="white"/>
<path d="M331.503 308.462H422.835C423.101 308.462 423.33 308.348 423.482 308.157C423.634 307.967 423.71 307.7 423.634 307.434L402.695 211.414C402.619 211.034 402.276 210.767 401.896 210.767L368.546 210.653C367.518 210.653 366.49 210.729 365.538 210.881C358.914 211.148 352.251 212.176 345.779 213.927L306.11 224.435L218.318 196.718C217.9 196.604 217.443 196.794 217.291 197.213L202.481 232.583C202.405 232.811 202.405 233.04 202.481 233.268C202.557 233.497 202.748 233.649 202.976 233.725L303.026 265.287C312.125 268.257 321.795 268.485 331.008 265.935L339.65 263.574L330.665 307.472C330.627 307.7 330.665 307.967 330.856 308.157C331.008 308.348 331.236 308.462 331.503 308.462ZM421.807 306.787H332.531L341.592 262.546C341.668 262.241 341.554 261.975 341.325 261.747C341.097 261.556 340.792 261.48 340.526 261.556L330.589 264.259C321.681 266.696 312.353 266.468 303.559 263.612L204.385 232.316L218.547 198.47L305.843 226.034C305.995 226.072 306.148 226.072 306.3 226.034L346.198 215.45C352.556 213.737 359.104 212.747 365.614 212.48C365.652 212.48 365.69 212.48 365.69 212.48C366.566 212.366 367.518 212.29 368.508 212.29L401.172 212.404L421.807 306.787Z" fill="black"/>
<path d="M215.848 202.88L211.013 201.053C211.013 201.053 212.764 193.286 205.264 188.908C203.513 187.88 199.744 186.128 196.546 184.644C192.891 182.968 189.503 180.836 186.419 178.285L182.878 175.354C181.089 173.869 178.5 174.059 176.939 175.773L176.597 176.153C175.036 177.905 175.15 180.57 176.825 182.169L187.789 192.487L181.356 195.951C178.043 197.741 174.35 198.54 170.581 198.35L155.467 197.741C152.955 197.626 150.747 199.416 150.328 201.891L150.252 202.309L142.181 201.205C139.782 200.939 137.612 202.614 137.27 205.012C136.927 207.335 138.412 209.543 140.734 210.076L197.345 222.793L206.254 225.838L215.848 202.88Z" fill="#DFE3E8"/>
<path d="M206.214 226.675C206.556 226.675 206.861 226.484 206.975 226.142L216.607 203.184C216.683 202.955 216.683 202.727 216.607 202.536C216.531 202.346 216.34 202.156 216.15 202.08L211.962 200.481C212.191 198.348 212.267 191.99 205.681 188.145C204.234 187.307 201.264 185.861 196.886 183.843C193.308 182.206 189.957 180.112 186.95 177.599L183.409 174.667C181.277 172.916 178.155 173.144 176.328 175.2L175.985 175.581C174.12 177.637 174.272 180.873 176.29 182.777L186.417 192.333L181.011 195.265C177.851 196.978 174.272 197.777 170.694 197.549L155.541 196.94C152.762 196.826 150.25 198.729 149.602 201.394L142.331 200.366C139.476 200.062 136.887 202.042 136.468 204.859C136.049 207.6 137.839 210.265 140.58 210.874L197.153 223.591L206.023 226.637C206.023 226.675 206.099 226.675 206.214 226.675ZM214.703 203.336L205.719 224.809L197.572 222.03C197.533 222.03 197.495 222.03 197.495 221.992L140.884 209.275C139.019 208.857 137.8 207.067 138.067 205.164C138.372 203.222 140.123 201.889 142.064 202.08L150.097 203.184C150.554 203.26 150.973 202.955 151.049 202.498L151.125 202.08C151.506 200.024 153.333 198.539 155.427 198.615L170.541 199.224C174.425 199.453 178.308 198.577 181.734 196.749L188.168 193.285C188.397 193.171 188.549 192.904 188.587 192.638C188.625 192.371 188.511 192.105 188.32 191.914L177.356 181.596C175.985 180.302 175.909 178.132 177.166 176.761L177.508 176.38C178.765 175.01 180.859 174.858 182.305 176.038L185.846 178.969C189.006 181.558 192.47 183.767 196.163 185.442C200.427 187.383 203.434 188.83 204.805 189.668C211.734 193.704 210.173 200.823 210.173 200.899C210.097 201.318 210.287 201.737 210.706 201.889L214.703 203.336Z" fill="black"/>
<path d="M186.191 209.427L182.004 208.209C179.339 207.448 176.94 205.925 175.151 203.793L165.214 192.295C163.768 190.658 161.293 190.429 159.618 191.838C158.019 193.17 157.714 195.531 158.933 197.206L168.755 211.103C169.554 212.245 170.544 213.197 171.725 213.92L178.006 217.842L186.191 209.427Z" fill="#DFE3E8"/>
<path d="M175.184 205.847L170.844 205.353C168.102 205.048 165.476 203.906 163.344 202.154L151.618 192.446C149.943 191.037 147.43 191.266 146.021 192.941C144.651 194.54 144.765 196.862 146.212 198.347L158.204 210.454C159.156 211.444 160.336 212.206 161.592 212.739L168.445 215.556L175.184 205.847Z" fill="#DFE3E8"/>
<path d="M161.636 213.541C161.978 213.541 162.283 213.351 162.397 213.008C162.587 212.589 162.359 212.095 161.94 211.904C160.76 211.409 159.732 210.724 158.818 209.81L146.826 197.703C145.684 196.561 145.608 194.657 146.674 193.439C147.778 192.144 149.758 191.954 151.09 193.058L160.037 200.558C160.379 200.863 160.912 200.825 161.217 200.444C161.521 200.102 161.483 199.569 161.103 199.264L152.156 191.764C150.138 190.088 147.093 190.355 145.379 192.335C143.742 194.238 143.857 197.132 145.608 198.883L157.6 210.99C158.666 212.056 159.884 212.894 161.293 213.465C161.407 213.503 161.521 213.541 161.636 213.541Z" fill="black"/>
<path d="M174.843 216.204C175.186 216.204 175.491 216.013 175.605 215.671C175.795 215.252 175.567 214.757 175.148 214.566C171.493 213.044 169.361 211.444 167.762 209.122L159.539 196.748C158.587 195.378 158.816 193.512 160.072 192.484C161.404 191.38 163.384 191.532 164.488 192.827L174.425 204.325C176.366 206.571 178.879 208.17 181.696 208.97L190.529 210.835C190.985 210.95 191.442 210.645 191.518 210.188C191.594 209.731 191.328 209.274 190.871 209.198L182.115 207.371C179.64 206.647 177.432 205.239 175.719 203.221L165.783 191.723C164.069 189.743 161.024 189.476 159.006 191.19C157.102 192.789 156.722 195.644 158.168 197.7L166.392 210.036C168.143 212.663 170.579 214.452 174.539 216.089C174.653 216.165 174.729 216.204 174.843 216.204Z" fill="black"/>
<path d="M192.812 198.006C193.04 198.006 193.268 197.93 193.421 197.739C193.725 197.397 193.725 196.864 193.383 196.559L188.205 191.8C187.862 191.495 187.329 191.495 187.025 191.838C186.72 192.181 186.72 192.714 187.063 193.018L192.24 197.777C192.393 197.93 192.621 198.006 192.812 198.006Z" fill="black"/>
<path d="M347.714 157.618C347.866 157.618 348.019 157.579 348.171 157.503C348.552 157.275 348.666 156.742 348.437 156.361L261.446 17.205C261.217 16.8243 260.684 16.7101 260.304 16.9385C259.923 17.1669 259.809 17.7 260.037 18.0807L346.991 157.237C347.143 157.503 347.41 157.618 347.714 157.618Z" fill="black"/>
<path d="M348.104 194.812C352.406 194.812 356.517 192.756 359.068 189.14C362.266 184.685 362.457 178.784 359.525 174.139L353.281 164.126C353.053 163.745 352.52 163.631 352.139 163.859C351.759 164.088 351.644 164.621 351.873 165.001L358.116 175.014C360.667 179.088 360.515 184.266 357.698 188.15C354.918 192.071 350.084 193.899 345.401 192.794L165.593 151.105C165.136 150.991 164.679 151.295 164.603 151.714C164.488 152.171 164.793 152.628 165.212 152.704L345.02 194.47C346.048 194.698 347.076 194.812 348.104 194.812Z" fill="black"/>
<path d="M316.082 198.239L335.422 204.673L327.884 196.183L323.011 194.47C320.27 193.518 317.3 194.926 316.272 197.63L316.082 198.239Z" fill="#DFE3E8"/>
<path d="M309.154 229.533L327.733 241.183L350.613 225.649L339.992 206.765C337.136 201.664 332.53 197.818 327.009 195.877L323.659 194.696L309.154 229.533Z" fill="#DFE3E8"/>
<path d="M312.731 247.618C313.074 247.618 313.417 247.39 313.531 247.047L331.234 190.585C331.31 190.357 331.272 190.128 331.158 189.9C331.043 189.709 330.853 189.557 330.625 189.481L317.452 186.435C317.033 186.321 316.577 186.588 316.462 187.006L299.064 242.478C298.988 242.707 299.026 242.935 299.102 243.126C299.216 243.316 299.369 243.468 299.597 243.544L312.465 247.58C312.579 247.618 312.655 247.618 312.731 247.618ZM329.368 190.928L312.198 245.715L300.929 242.174L317.833 188.225L329.368 190.928Z" fill="black"/>
<path d="M307.323 203.072L329.595 210.915L332.184 203.567L309.912 195.724C307.971 195.039 305.839 196.067 305.153 198.009L305.039 198.313C304.354 200.255 305.382 202.387 307.323 203.072Z" fill="#DFE3E8"/>
<path d="M301.384 209.242L324.798 217.504L327.387 210.156L303.973 201.894C302.032 201.209 299.862 202.237 299.176 204.178L299.1 204.445C298.415 206.425 299.443 208.557 301.384 209.242Z" fill="#DFE3E8"/>
<path d="M296.253 223.976L319.286 232.086L321.875 224.738L298.842 216.628C296.862 215.943 294.692 216.971 294.007 218.951L293.931 219.141C293.246 221.121 294.274 223.291 296.253 223.976Z" fill="#DFE3E8"/>
<path d="M309.27 234.749L327.544 241.107L330.133 233.721L299.181 222.871L302.798 229.305C304.245 231.856 306.529 233.759 309.27 234.749Z" fill="#DFE3E8"/>
<path d="M298.307 212.058L298.155 212.476C297.469 214.38 298.764 216.588 301.01 217.388L323.548 225.307L326.137 217.959L303.599 210.04C301.353 209.24 298.992 210.154 298.307 212.058Z" fill="#DFE3E8"/>
<path d="M309.307 212.895C309.65 212.895 309.992 212.667 310.106 212.324C310.259 211.905 310.03 211.41 309.612 211.258L301.693 208.479C300.17 207.946 299.37 206.27 299.903 204.747L299.98 204.481C300.246 203.758 300.779 203.148 301.464 202.806C302.188 202.463 302.949 202.425 303.711 202.692L312.695 205.852C313.114 206.004 313.609 205.775 313.761 205.357C313.914 204.938 313.685 204.443 313.266 204.291L304.282 201.131C303.14 200.712 301.883 200.788 300.779 201.321C299.675 201.854 298.838 202.768 298.419 203.948L298.343 204.214C297.505 206.613 298.761 209.24 301.16 210.078L309.079 212.857C309.117 212.857 309.231 212.895 309.307 212.895Z" fill="black"/>
<path d="M307.858 220.663C308.201 220.663 308.543 220.434 308.658 220.092C308.81 219.673 308.582 219.178 308.163 219.026L300.701 216.399C299.216 215.866 298.455 214.266 298.95 212.782L299.102 212.363C299.368 211.639 299.863 211.068 300.549 210.726C301.234 210.383 301.995 210.345 302.719 210.611L309.914 213.162C310.333 213.315 310.828 213.086 310.98 212.667C311.132 212.249 310.904 211.754 310.485 211.601L303.29 209.05C302.148 208.632 300.929 208.708 299.825 209.241C298.721 209.774 297.922 210.688 297.503 211.83L297.351 212.249C296.513 214.609 297.769 217.198 300.13 218.036L307.592 220.663C307.706 220.625 307.782 220.663 307.858 220.663Z" fill="black"/>
<path d="M326.059 240.193L351.871 260.524L362.949 232.959L336.147 211.601L326.059 240.193Z" fill="#DFE3E8"/>
<path d="M314.56 206.461C314.902 206.461 315.245 206.232 315.359 205.89C315.512 205.471 315.283 204.976 314.864 204.824L307.631 202.273C306.908 202.006 306.298 201.473 305.994 200.788C305.651 200.103 305.613 199.303 305.88 198.58L305.994 198.275C306.527 196.752 308.202 195.953 309.687 196.486L329.902 203.605C330.321 203.758 330.816 203.529 330.968 203.111C331.121 202.692 330.892 202.197 330.473 202.044L310.258 194.925C307.859 194.087 305.271 195.344 304.433 197.704L304.319 198.009C303.9 199.151 303.976 200.407 304.509 201.511C305.042 202.616 305.956 203.453 307.136 203.834L314.369 206.385C314.369 206.461 314.484 206.461 314.56 206.461Z" fill="black"/>
<path d="M351.871 261.362C351.947 261.362 352.023 261.362 352.1 261.324C352.366 261.247 352.556 261.057 352.671 260.829L363.749 233.264C363.902 232.921 363.787 232.541 363.483 232.312L348.749 220.586L340.755 206.385C338.09 201.664 333.864 197.856 328.876 195.724C328.458 195.534 327.963 195.724 327.772 196.181C327.582 196.6 327.772 197.095 328.229 197.285C332.874 199.265 336.833 202.806 339.308 207.222L347.379 221.576C347.417 221.652 347.493 221.766 347.569 221.804L361.96 233.264L351.529 259.23L327.62 240.384C327.544 240.346 327.468 240.269 327.392 240.269L309.575 234.025C307.024 233.112 304.892 231.322 303.597 229L301.542 225.345C301.427 225.154 301.275 225.04 301.085 224.964L296.592 223.289C295.831 223.022 295.222 222.489 294.879 221.766C294.537 221.043 294.499 220.243 294.765 219.52L294.841 219.329C295.374 217.806 297.087 216.969 298.61 217.54L308.775 221.119C309.194 221.271 309.689 221.043 309.841 220.624C309.993 220.205 309.765 219.71 309.346 219.558L299.181 215.979C296.783 215.141 294.118 216.398 293.28 218.796L293.204 218.987C292.785 220.167 292.861 221.423 293.394 222.527C293.927 223.632 294.879 224.469 296.021 224.888L300.247 226.449L302.151 229.837C303.674 232.541 306.11 234.597 309.042 235.624L326.706 241.83L351.338 261.171C351.49 261.286 351.681 261.362 351.871 261.362Z" fill="black"/>
<path d="M166.043 152.402C166.957 152.402 167.947 152.326 168.937 152.174C184.66 149.737 209.748 127.959 231.373 97.996C244.583 79.683 254.634 60.7608 259.659 44.7322C264.799 28.3609 264.114 16.8248 257.718 12.218C251.36 7.61118 240.167 10.5809 226.271 20.6321C212.604 30.4929 197.832 45.9886 184.622 64.2635C157.363 102.032 145.828 140.6 158.924 150.232C160.866 151.679 163.264 152.402 166.043 152.402ZM250.637 11.7992C253.073 11.7992 255.129 12.3703 256.804 13.5886C262.476 17.6624 262.933 28.8558 258.098 44.2372C253.111 60.1517 243.137 78.8835 230.04 97.0442C208.682 126.665 184.013 148.138 168.708 150.537C165.091 151.108 162.16 150.575 159.952 148.937C147.807 139.99 159.762 101.651 186.03 65.2915C199.127 47.1308 213.784 31.7874 227.299 22.0408C236.588 15.3019 244.659 11.7992 250.637 11.7992Z" fill="black"/>
<path d="M212.495 25.2377C212.685 25.2377 212.914 25.1616 213.066 25.0093C213.409 24.7047 213.409 24.1717 213.104 23.829L190.757 0.261961C190.452 -0.0806946 189.919 -0.0806946 189.577 0.223888C189.234 0.52847 189.234 1.06149 189.538 1.40414L211.886 24.9712C212.038 25.1616 212.267 25.2377 212.495 25.2377Z" fill="black"/>
<path d="M242.909 57.3341C243.1 57.3341 243.328 57.258 243.48 57.1057C243.823 56.8011 243.823 56.2681 243.518 55.9254L217.668 28.6653C217.364 28.3226 216.831 28.3226 216.488 28.6272C216.145 28.9318 216.145 29.4648 216.45 29.8075L242.3 57.0676C242.452 57.258 242.681 57.3341 242.909 57.3341Z" fill="black"/>
<path d="M193.95 44.847C194.178 44.847 194.407 44.7709 194.559 44.5805C194.864 44.2379 194.826 43.7048 194.483 43.4002L166.996 18.9575C166.653 18.6529 166.12 18.691 165.816 19.0337C165.511 19.3763 165.549 19.9093 165.892 20.2139L193.379 44.6567C193.531 44.7709 193.722 44.847 193.95 44.847Z" fill="black"/>
<path d="M233.317 79.8721C233.546 79.8721 233.774 79.796 233.926 79.6056C234.231 79.2629 234.193 78.7299 233.85 78.4253L199.053 47.4722C198.711 47.1676 198.178 47.2056 197.873 47.5483C197.569 47.891 197.607 48.424 197.949 48.7286L232.746 79.6817C232.936 79.796 233.127 79.8721 233.317 79.8721Z" fill="black"/>
<path d="M183.485 29.0845C183.714 29.0845 183.942 29.0083 184.094 28.818C184.399 28.4753 184.361 27.9423 184.018 27.6377L164.983 10.7334C164.64 10.4288 164.107 10.4669 163.803 10.8095C163.498 11.1522 163.536 11.6852 163.879 11.9898L182.914 28.8941C183.104 29.0083 183.295 29.0845 183.485 29.0845Z" fill="black"/>
<path d="M344.094 257.214L363.472 229.535L409.994 263.953L400.553 211.488H413.078C424.842 211.488 435.007 219.712 437.443 231.248L450.197 291.213C452.596 302.597 443.916 313.295 432.304 313.295H430.362C423.966 313.295 417.723 311.239 412.545 307.47L344.094 257.214Z" fill="white"/>
<path d="M430.328 314.134H432.269C438.056 314.134 443.462 311.545 447.117 307.052C450.772 302.56 452.18 296.734 450.962 291.062L438.246 231.059C435.734 219.218 425.15 210.652 413.082 210.652H400.556C400.099 210.652 399.719 211.033 399.719 211.489C399.719 211.946 400.099 212.327 400.556 212.327H413.082C424.389 212.327 434.287 220.36 436.609 231.402L449.363 291.404C450.467 296.582 449.173 301.912 445.861 306.024C442.548 310.136 437.599 312.497 432.307 312.497H430.366C424.084 312.497 418.107 310.517 413.044 306.824L345.278 257.063L363.704 230.792L417.536 270.807C417.917 271.073 418.45 270.997 418.716 270.617C418.983 270.236 418.906 269.703 418.526 269.436L363.97 228.851C363.78 228.698 363.551 228.66 363.323 228.698C363.095 228.736 362.904 228.851 362.752 229.041L343.374 256.72C343.107 257.101 343.184 257.596 343.564 257.862L411.978 308.118C417.384 312.078 423.703 314.134 430.328 314.134Z" fill="black"/>
<path d="M410.037 264.793C410.113 264.793 410.151 264.793 410.227 264.793C410.684 264.678 410.989 264.26 410.874 263.803L403.984 231.289C403.869 230.832 403.451 230.565 402.994 230.641C402.537 230.756 402.232 231.174 402.346 231.631L409.237 264.145C409.275 264.526 409.618 264.793 410.037 264.793Z" fill="black"/>
<path d="M359.856 230.298L337.395 249.106L345.427 255.503L361.988 231.669L359.856 230.298Z" fill="#020202"/>
<path d="M216.886 468.213H258.992V514.319H216.886V468.213Z" fill="#DFE3E8"/>
<path d="M216.884 515.195H258.991C259.447 515.195 259.828 514.815 259.828 514.358V468.252C259.828 467.795 259.447 467.414 258.991 467.414H216.884C216.427 467.414 216.047 467.795 216.047 468.252V514.358C216.047 514.815 216.427 515.195 216.884 515.195ZM258.153 513.52H217.722V469.051H258.153V513.52Z" fill="black"/>
<path d="M264.59 497.609L265.275 498.485C273.194 508.46 272.889 517.102 277.039 531.342L224.159 550.568L145.048 551.558L131.533 543.601L136.101 532.37L179.844 517.902L209.92 498.865L216.126 489.614H224.463L231.468 496.162V504.31C239.387 509.031 240.834 511.315 244.755 511.315C244.831 511.277 251.417 511.962 253.511 505.642L255.681 499.17C256.976 495.287 262.039 494.411 264.59 497.609Z" fill="white"/>
<path d="M145.043 552.358L224.154 551.369C224.23 551.369 224.345 551.369 224.421 551.33L277.301 532.104C277.72 531.951 277.948 531.495 277.834 531.076C276.654 527.002 275.816 523.347 275.093 520.111C273.189 511.773 271.705 505.224 265.918 497.952L265.233 497.077C263.862 495.325 261.73 494.526 259.522 494.907C257.314 495.287 255.601 496.772 254.877 498.904L252.707 505.377C251.108 510.174 246.692 510.516 244.865 510.478C244.827 510.478 244.789 510.478 244.712 510.478C242.314 510.478 240.943 509.527 237.898 507.471C236.451 506.481 234.662 505.3 232.263 503.854V496.163C232.263 495.935 232.149 495.706 231.997 495.554L224.992 489.005C224.839 488.853 224.649 488.777 224.421 488.777H216.083C215.817 488.777 215.55 488.929 215.398 489.158L209.307 498.295L179.459 517.179L135.792 531.609C135.563 531.685 135.373 531.875 135.297 532.104L130.728 543.335C130.576 543.716 130.728 544.173 131.071 544.363L144.586 552.32C144.739 552.32 144.891 552.358 145.043 552.358ZM224.002 549.693L145.272 550.683L132.594 543.221L136.744 533.017L180.144 518.664C180.22 518.626 180.259 518.626 180.335 518.588L210.411 499.551C210.525 499.475 210.601 499.399 210.677 499.323L216.616 490.414H224.192L230.702 496.468V504.272C230.702 504.577 230.855 504.844 231.121 504.996C233.672 506.519 235.575 507.813 237.06 508.841C240.182 510.973 241.933 512.115 244.827 512.115C244.827 512.115 244.827 512.115 244.865 512.115C246.654 512.192 252.403 511.887 254.382 505.872L256.552 499.399C257.047 497.876 258.304 496.81 259.865 496.544C261.464 496.277 262.986 496.848 263.976 498.105L264.661 498.98C270.182 505.948 271.667 512.382 273.494 520.491C274.179 523.537 274.979 527.002 276.045 530.809L224.002 549.693Z" fill="black"/>
<path d="M131.53 543.602L156.2 548.323L221.606 546.99L277.037 531.304L284.994 538.538L288.344 556.699L267.024 566.065C267.024 566.065 251.682 565.989 232.227 566.065L227.507 561.42H220.197L215.438 566.065C185.02 566.141 152.05 566.065 152.05 566.065L134.347 557.003L131.492 551.483V543.602H131.53Z" fill="#020202"/>
<path d="M270.678 508.385C270.906 508.385 271.097 508.308 271.249 508.156C272.467 507.014 283.089 496.734 284.46 493.232C285.982 489.348 284.079 484.97 280.196 483.409C278.33 482.685 276.274 482.685 274.409 483.485C272.544 484.285 271.135 485.769 270.373 487.635C268.965 491.138 269.726 505.91 269.802 507.585C269.802 507.928 270.031 508.194 270.335 508.308C270.488 508.385 270.564 508.385 270.678 508.385ZM277.455 484.551C278.178 484.551 278.901 484.703 279.625 484.97C282.632 486.15 284.117 489.577 282.937 492.622C281.985 494.983 275.247 501.95 271.439 505.681C271.211 500.389 271.059 490.681 271.972 488.32C272.544 486.873 273.648 485.693 275.094 485.084C275.856 484.703 276.655 484.551 277.455 484.551Z" fill="black"/>
<path d="M211.404 510.1C211.67 510.1 211.937 509.986 212.089 509.719C212.356 509.339 212.241 508.806 211.861 508.539L203.143 502.524C202.762 502.257 202.229 502.371 201.962 502.752C201.696 503.133 201.81 503.666 202.191 503.932L210.909 509.948C211.061 510.062 211.252 510.1 211.404 510.1Z" fill="black"/>
<path d="M203.861 515.166C204.127 515.166 204.394 515.052 204.546 514.785C204.813 514.405 204.698 513.872 204.318 513.605L195.6 507.59C195.219 507.323 194.686 507.437 194.419 507.818C194.153 508.199 194.267 508.732 194.648 508.998L203.366 515.014C203.518 515.128 203.709 515.166 203.861 515.166Z" fill="black"/>
<path d="M196.326 520.228C196.592 520.228 196.859 520.113 197.011 519.847C197.278 519.466 197.163 518.933 196.783 518.667L188.064 512.651C187.684 512.385 187.151 512.499 186.884 512.88C186.618 513.26 186.732 513.793 187.113 514.06L195.831 520.075C195.983 520.19 196.173 520.228 196.326 520.228Z" fill="black"/>
<path d="M116.103 317.634L134.344 355.587L92.7905 375.56L74.55 337.608L116.103 317.634Z" fill="#DFE3E8"/>
<path d="M92.7473 376.423C92.8615 376.423 93.0138 376.385 93.128 376.347L134.701 356.358C135.12 356.168 135.31 355.673 135.082 355.254L116.846 317.296C116.732 317.105 116.58 316.953 116.351 316.877C116.123 316.801 115.894 316.801 115.704 316.915L74.1306 336.903C73.7119 337.093 73.5215 337.588 73.7499 338.007L91.9858 375.966C92.1001 376.156 92.2523 376.308 92.4808 376.385C92.595 376.385 92.6711 376.423 92.7473 376.423ZM133.216 355.178L93.166 374.443L75.6535 338.007L115.704 318.742L133.216 355.178Z" fill="black"/>
<path d="M110.258 373.332L109.763 374.322C104.204 385.782 96.2856 389.247 85.2451 399.146L45.0043 359.817L9.82688 288.925L11.1213 273.315L23.1897 272.554L55.1692 305.715L85.3593 324.599L96.3998 326.16L100.017 333.661L97.1612 342.798L89.8136 346.339C88.976 355.514 87.5674 357.799 89.2425 361.339C89.3187 361.416 91.5648 367.622 98.1511 366.784L104.928 365.908C109.039 365.489 112.047 369.639 110.258 373.332Z" fill="white"/>
<path d="M85.2841 400.023C85.4745 400.023 85.7029 399.947 85.8552 399.794C89.0151 396.977 91.9465 394.616 94.5354 392.56C101.198 387.23 106.49 383.042 110.563 374.704L111.058 373.714C112.048 371.697 111.819 369.45 110.525 367.623C109.231 365.795 107.137 364.882 104.929 365.186L98.1521 366.062C93.1648 366.709 90.9186 362.864 90.1572 361.188C90.1192 361.15 90.1191 361.112 90.0811 361.074C89.0532 358.942 89.2816 357.267 89.8526 353.65C90.1191 351.937 90.4237 349.805 90.6902 347.025L97.6191 343.713C97.8094 343.599 97.9998 343.447 98.0379 343.218L100.893 334.081C100.969 333.89 100.931 333.662 100.855 333.471L97.2384 325.971C97.1242 325.705 96.8957 325.552 96.5912 325.514L85.741 323.953L55.7793 305.221L23.876 272.136C23.7237 271.946 23.4572 271.87 23.2288 271.87L11.1604 272.631C10.7416 272.669 10.399 272.974 10.3609 273.393L9.06646 289.002C9.06646 289.155 9.06645 289.307 9.14259 289.459L44.32 360.351C44.3581 360.427 44.4342 360.503 44.4723 360.579L84.675 399.756C84.8654 399.947 85.0557 400.023 85.2841 400.023ZM105.69 366.785C107.061 366.785 108.317 367.432 109.155 368.575C110.106 369.869 110.221 371.506 109.535 372.953L109.04 373.943C105.157 381.938 100.018 386.05 93.5074 391.228C91.0328 393.17 88.2917 395.378 85.3222 398.005L45.7667 359.323L10.7796 288.774L11.9979 274.116L22.9623 273.431L54.6752 306.326C54.7133 306.364 54.7894 306.402 54.8275 306.44L85.0177 325.324C85.1319 325.4 85.2461 325.438 85.3603 325.438L95.944 326.961L99.2181 333.776L96.5531 342.266L89.5481 345.655C89.2816 345.769 89.0912 346.035 89.0912 346.34C88.8247 349.31 88.4821 351.556 88.2156 353.345C87.6445 357.077 87.34 359.171 88.5963 361.76C88.5963 361.76 88.5963 361.76 88.5963 361.798C89.3196 363.435 92.0608 368.498 98.3424 367.699L105.119 366.823C105.309 366.785 105.5 366.785 105.69 366.785Z" fill="black"/>
<path d="M85.2802 400.023C85.4706 400.023 85.699 399.947 85.8513 399.794C89.0112 396.977 91.9426 394.616 94.5315 392.56C101.194 387.23 106.486 383.042 110.559 374.704L111.054 373.714C112.044 371.697 111.816 369.45 110.521 367.623C109.227 365.795 107.133 364.882 104.925 365.186L98.1482 366.062C93.1609 366.709 90.9147 362.864 90.1533 361.188C90.1152 361.15 90.1152 361.112 90.0772 361.074C89.0493 358.942 89.2777 357.267 89.8487 353.65C90.1152 351.937 90.4198 349.805 90.6863 347.025L97.6152 343.713C97.8055 343.599 97.9959 343.447 98.0339 343.218L100.889 334.081C100.965 333.89 100.927 333.662 100.851 333.471L97.2345 325.971C97.1203 325.705 96.8918 325.552 96.5873 325.514L85.7371 323.953L55.7754 305.221L23.8721 272.136C23.7198 271.946 23.4533 271.87 23.2249 271.87L11.1565 272.631C10.7377 272.669 10.395 272.974 10.357 273.393L9.06256 289.002C9.06256 289.155 9.06254 289.307 9.13868 289.459L44.3161 360.351C44.3542 360.427 44.4303 360.503 44.4684 360.579L84.6711 399.756C84.8615 399.947 85.0518 400.023 85.2802 400.023ZM105.686 366.785C107.057 366.785 108.313 367.432 109.151 368.575C110.102 369.869 110.217 371.506 109.531 372.953L109.036 373.943C105.153 381.938 100.014 386.05 93.5035 391.228C91.0289 393.17 88.2878 395.378 85.3183 398.005L45.7628 359.323L10.7757 288.774L11.994 274.116L22.9584 273.431L54.6713 306.326C54.7094 306.364 54.7855 306.402 54.8236 306.44L85.0138 325.324C85.128 325.4 85.2422 325.438 85.3564 325.438L95.9401 326.961L99.2142 333.776L96.5492 342.266L89.5442 345.655C89.2777 345.769 89.0873 346.035 89.0873 346.34C88.8208 349.31 88.4782 351.556 88.2117 353.345C87.6406 357.077 87.3361 359.171 88.5924 361.76C88.5924 361.76 88.5924 361.76 88.5924 361.798C89.3157 363.435 92.0569 368.498 98.3385 367.699L105.115 366.823C105.305 366.785 105.496 366.785 105.686 366.785Z" fill="black"/>
<path d="M11.1965 273.317L17.6305 297.607L48.3536 355.859L85.3203 399.148L82.2746 409.465L67.3509 420.354L49.7622 405.163C49.7622 405.163 43.0617 391.381 34.572 373.867L36.78 367.585L33.6202 360.999L27.2623 358.752C14.0137 331.378 -0.148616 301.948 0.00366713 301.567C0.270163 300.844 0.422436 281.731 0.422436 281.731L4.15339 276.782L11.1965 273.317Z" fill="#020202"/>
<path d="M120.729 385.709C121.985 385.709 122.975 385.632 123.66 385.442C125.602 384.909 127.239 383.615 128.229 381.863C129.219 380.112 129.485 378.056 128.914 376.114C128.381 374.173 127.087 372.535 125.336 371.546C123.584 370.556 121.528 370.289 119.587 370.86C115.932 371.888 104.625 381.368 103.369 382.434C103.102 382.663 103.026 382.967 103.102 383.31C103.178 383.615 103.445 383.843 103.788 383.919C105.12 384.148 115.171 385.709 120.729 385.709ZM121.643 372.269C124.232 372.269 126.592 373.982 127.315 376.571C127.734 378.094 127.544 379.655 126.782 381.026C126.021 382.396 124.765 383.386 123.242 383.805C120.767 384.49 111.173 383.31 105.919 382.549C109.993 379.16 117.645 373.183 120.082 372.497C120.577 372.345 121.11 372.269 121.643 372.269Z" fill="black"/>
<path d="M76.713 331.305C77.1317 331.305 77.4744 331 77.5505 330.581L79.1876 320.111C79.2637 319.655 78.9591 319.236 78.5023 319.16C78.0454 319.083 77.6267 319.388 77.5505 319.845L75.9135 330.315C75.8373 330.772 76.1419 331.191 76.5987 331.267C76.6368 331.305 76.6749 331.305 76.713 331.305Z" fill="black"/>
<path d="M68.9053 326.697C69.3241 326.697 69.6668 326.393 69.7429 325.974L71.418 315.504C71.4942 315.047 71.1896 314.628 70.7328 314.552C70.2759 314.476 69.8571 314.781 69.781 315.237L68.1059 325.708C68.0297 326.164 68.3343 326.583 68.7912 326.659C68.7912 326.697 68.8292 326.697 68.9053 326.697Z" fill="black"/>
<path d="M61.0655 322.09C61.4843 322.09 61.8269 321.786 61.9031 321.367L63.5782 310.897C63.6543 310.44 63.3498 310.021 62.8929 309.945C62.4361 309.869 62.0173 310.174 61.9412 310.631L60.266 321.101C60.1899 321.557 60.4944 321.976 60.9513 322.052C60.9894 322.091 61.0274 322.09 61.0655 322.09Z" fill="black"/>
<path d="M415.969 307.584V323.842C415.969 350.34 394.497 371.775 368.038 371.775H266.274V485.042H202.011V352.168C202.011 327.535 221.96 307.584 246.592 307.584H415.969Z" fill="#09B850"/>
<path d="M276.246 251.236L347.248 307.203H415.852V325.059C415.852 350.986 394.836 372.002 368.91 372.002H362.667C341.614 372.002 321.284 364.35 305.446 350.453L251.538 303.167L128.379 369.185L98.4174 312.38L227.82 246.476C243.505 238.481 262.426 240.347 276.246 251.236Z" fill="#09B850"/>
<path d="M362.704 372.842H368.948C395.293 372.842 416.727 351.407 416.727 325.061V307.204C416.727 306.748 416.346 306.367 415.889 306.367H347.552L276.778 250.59C262.73 239.511 243.352 237.607 227.439 245.717L98.0742 311.621C97.8838 311.735 97.7315 311.887 97.6554 312.116C97.5792 312.344 97.6173 312.573 97.7315 312.763L127.693 369.568C127.807 369.758 127.96 369.91 128.188 369.986C128.417 370.063 128.645 370.025 128.835 369.91L211.563 325.517C211.982 325.289 212.134 324.794 211.906 324.375C211.677 323.956 211.182 323.804 210.764 324.033L128.721 368.007L99.5589 312.687L228.162 247.202C243.505 239.397 262.159 241.224 275.712 251.885L346.714 307.852C346.867 307.966 347.057 308.042 347.247 308.042H415.013V325.061C415.013 350.493 394.341 371.167 368.91 371.167H362.666C341.803 371.167 321.664 363.59 305.979 349.846L252.07 302.56C251.804 302.331 251.423 302.293 251.119 302.445L243.124 306.748C242.705 306.976 242.553 307.471 242.781 307.89C243.01 308.308 243.505 308.461 243.923 308.232L251.423 304.197L304.913 351.064C320.902 365.113 341.423 372.842 362.704 372.842Z" fill="#202124"/>
<path d="M251.881 304.235C252.109 304.235 252.338 304.121 252.528 303.931C252.832 303.588 252.794 303.055 252.452 302.751L241.259 292.928C240.916 292.623 240.383 292.661 240.079 293.004C239.774 293.347 239.812 293.88 240.155 294.184L251.348 304.007C251.462 304.159 251.69 304.235 251.881 304.235Z" fill="#202124"/>
<path d="M201.966 485.918H266.268C266.725 485.918 267.105 485.537 267.105 485.081V372.614H356.686C357.143 372.614 357.523 372.233 357.523 371.776C357.523 371.319 357.143 370.938 356.686 370.938H266.268C265.811 370.938 265.43 371.319 265.43 371.776V484.205H202.842V352.168C202.842 328.03 222.486 308.423 246.585 308.423H256.484C256.94 308.423 257.321 308.042 257.321 307.585C257.321 307.128 256.94 306.748 256.484 306.748H246.585C221.535 306.748 201.167 327.117 201.167 352.168V485.081C201.129 485.537 201.509 485.918 201.966 485.918Z" fill="#202124"/>
<path d="M266.272 372.612C266.729 372.612 267.109 372.231 267.109 371.775V358.754C267.109 358.297 266.729 357.916 266.272 357.916C265.815 357.916 265.434 358.297 265.434 358.754V371.775C265.434 372.269 265.777 372.612 266.272 372.612Z" fill="#202124"/>
</svg>
