<?xml version="1.0" encoding="utf-8"?>
<!-- Generator: Adobe Illustrator 23.0.0, SVG Export Plug-In . SVG Version: 6.00 Build 0)  -->
<svg version="1.1" id="Layer_1" xmlns="http://www.w3.org/2000/svg" xmlns:xlink="http://www.w3.org/1999/xlink" x="0px" y="0px"
	 width="508.8px" height="496px" viewBox="0 0 508.8 496" style="enable-background:new 0 0 508.8 496;" xml:space="preserve">
<style type="text/css">
	.st0{fill:#FFFFFF;}
</style>
<g>
	<g>
		<path class="st0" d="M470.4,68.5C470.4,68.5,470.3,68.5,470.4,68.5l-66.2-12.3c-0.1,0-0.1-0.1-0.1-0.1c0-0.1,0-0.1,0.1-0.2
			L469.4,0c0.1,0,0.1-0.1,0.2,0c0.1,0,0.1,0.1,0.1,0.2l0.8,68.1c0,0.1,0,0.1-0.1,0.1C470.4,68.4,470.4,68.5,470.4,68.5z M404.6,55.9
			l65.6,12.2l-0.8-67.5L404.6,55.9z"/>
	</g>
	<g>
		<path class="st0" d="M340.4,135.6c-0.1,0-0.1,0-0.1-0.1c0-0.1,0-0.1,0-0.2l24.5-51.5c0-0.1,0.1-0.1,0.1-0.1c0.1,0,0.1,0,0.2,0.1
			l32.4,42.7c0,0,0,0.1,0,0.2c0,0.1-0.1,0.1-0.1,0.1L340.4,135.6C340.4,135.6,340.4,135.6,340.4,135.6z M364.9,84.2l-24.2,51
			l56.3-8.7L364.9,84.2z"/>
	</g>
	<g>
		<path class="st0" d="M397.3,126.7c0,0-0.1,0-0.1-0.1c0,0-0.1-0.1-0.1-0.1l6.9-70.6c0-0.1,0.1-0.1,0.1-0.2c0.1,0,0.1,0,0.2,0.1
			l49.3,64c0,0.1,0,0.1,0,0.2c0,0.1-0.1,0.1-0.1,0.1L397.3,126.7C397.3,126.7,397.3,126.7,397.3,126.7z M404.3,56.4l-6.8,69.9
			l55.6-6.5L404.3,56.4z"/>
	</g>
	<g>
		<path class="st0" d="M397.3,126.7c-0.1,0-0.1,0-0.1-0.1L364.7,84c0,0,0-0.1,0-0.1c0,0,0-0.1,0.1-0.1l39.3-27.9c0.1,0,0.1,0,0.2,0
			c0.1,0,0.1,0.1,0.1,0.2l-6.9,70.6C397.4,126.6,397.4,126.7,397.3,126.7C397.3,126.7,397.3,126.7,397.3,126.7z M365.1,83.9l32,42.2
			l6.8-69.8L365.1,83.9z"/>
	</g>
	<g>
		<path class="st0" d="M497.1,124.7C497.1,124.7,497.1,124.7,497.1,124.7l-43.7-4.5c-0.1,0-0.1,0-0.1-0.1c0,0,0-0.1,0-0.2l16.9-51.7
			c0-0.1,0.1-0.1,0.2-0.1c0.1,0,0.1,0,0.2,0.1l26.8,56.2c0,0.1,0,0.1,0,0.2C497.3,124.6,497.2,124.7,497.1,124.7z M453.7,119.8
			l43.2,4.4l-26.5-55.5L453.7,119.8z"/>
	</g>
	<g>
		<path class="st0" d="M453.5,120.2c-0.1,0-0.1,0-0.1-0.1l-49.3-64c0-0.1,0-0.1,0-0.2c0-0.1,0.1-0.1,0.2-0.1l66.2,12.3
			c0,0,0.1,0,0.1,0.1c0,0,0,0.1,0,0.1l-16.9,51.7C453.6,120.1,453.5,120.2,453.5,120.2C453.5,120.2,453.5,120.2,453.5,120.2z
			 M404.6,56.2l48.8,63.4l16.7-51.2L404.6,56.2z"/>
	</g>
	<g>
		<path class="st0" d="M360.5,162C360.5,162,360.5,162,360.5,162l-48.8-10c-0.1,0-0.1-0.1-0.1-0.1c0-0.1,0-0.1,0.1-0.2l28.6-16.4
			c0.1,0,0.2,0,0.2,0l20.2,26.4c0,0.1,0,0.1,0,0.2C360.7,161.9,360.6,162,360.5,162z M312.3,151.7l47.8,9.8l-19.8-25.9L312.3,151.7z
			"/>
	</g>
	<g>
		<path class="st0" d="M360.5,162c-0.1,0-0.1,0-0.2-0.1c0-0.1,0-0.2,0-0.2l36.7-35.2c0,0,0.1-0.1,0.2,0c0.1,0,0.1,0.1,0.1,0.1
			l11.3,28.7c0,0.1,0,0.1,0,0.2c0,0-0.1,0.1-0.1,0.1L360.5,162C360.6,162,360.5,162,360.5,162z M397.2,126.9L361,161.5l47.3-6.4
			L397.2,126.9z"/>
	</g>
	<g>
		<path class="st0" d="M360.5,162C360.5,162,360.5,162,360.5,162c-0.1,0-0.1,0-0.1-0.1l-20.2-26.4c0,0,0-0.1,0-0.2
			c0-0.1,0.1-0.1,0.1-0.1l56.9-8.8c0.1,0,0.2,0,0.2,0.1c0,0.1,0,0.2,0,0.2l-36.7,35.2C360.6,161.9,360.6,162,360.5,162z
			 M340.7,135.5l19.9,26l36.2-34.7L340.7,135.5z"/>
	</g>
	<g>
		<path class="st0" d="M425.1,162.3C425,162.3,425,162.3,425.1,162.3l-16.5-6.9c-0.1,0-0.1-0.1-0.1-0.1c0-0.1,0-0.1,0.1-0.2
			l44.9-35.3c0.1-0.1,0.2-0.1,0.2,0c0.1,0.1,0.1,0.2,0,0.2l-28.4,42.1C425.2,162.3,425.1,162.3,425.1,162.3z M408.9,155.2l16,6.7
			l27.7-41.1L408.9,155.2z"/>
	</g>
	<g>
		<path class="st0" d="M408.6,155.5C408.6,155.5,408.6,155.5,408.6,155.5c-0.1,0-0.1-0.1-0.2-0.1l-11.3-28.7c0-0.1,0-0.1,0-0.2
			c0,0,0.1-0.1,0.1-0.1l56.2-6.6c0.1,0,0.2,0,0.2,0.1c0,0.1,0,0.2-0.1,0.2l-44.9,35.3C408.7,155.5,408.6,155.5,408.6,155.5z
			 M397.5,126.7l11.1,28.3l44.2-34.8L397.5,126.7z"/>
	</g>
	<g>
		<path class="st0" d="M425.1,162.3c-0.1,0-0.2-0.1-0.2-0.1c0-0.1,0-0.2,0.1-0.2l72.1-37.6c0.1,0,0.1,0,0.2,0c0.1,0.1,0.1,0.1,0,0.2
			l-17,36.6c0,0.1-0.1,0.1-0.2,0.1L425.1,162.3C425.1,162.3,425.1,162.3,425.1,162.3z M496.8,124.9l-71,37.1l54.2-1L496.8,124.9z"/>
	</g>
	<g>
		<path class="st0" d="M425.1,162.3c0,0-0.1,0-0.1-0.1c-0.1-0.1-0.1-0.1,0-0.2l28.4-42.1c0-0.1,0.1-0.1,0.2-0.1l43.7,4.5
			c0.1,0,0.1,0.1,0.2,0.1c0,0.1,0,0.2-0.1,0.2L425.1,162.3C425.1,162.3,425.1,162.3,425.1,162.3z M453.5,120.2l-28,41.5l71-37
			L453.5,120.2z"/>
	</g>
	<g>
		<path class="st0" d="M288.9,225.7C288.9,225.7,288.9,225.7,288.9,225.7l-50-18.9c-0.1,0-0.1-0.1-0.1-0.1c0-0.1,0-0.1,0.1-0.2
			l72.8-54.8c0.1,0,0.1,0,0.2,0c0.1,0,0.1,0.1,0.1,0.2l-22.9,73.7C289.1,225.6,289,225.6,288.9,225.7
			C289,225.7,288.9,225.7,288.9,225.7z M239.3,206.5l49.5,18.8l22.7-73.1L239.3,206.5z"/>
	</g>
	<g>
		<path class="st0" d="M288.9,225.7c-0.1,0-0.1,0-0.2-0.1c0-0.1,0-0.2,0-0.2l71.6-63.7c0.1-0.1,0.2-0.1,0.2,0c0.1,0.1,0.1,0.1,0,0.2
			l-24.7,48.7c0,0-0.1,0.1-0.1,0.1L288.9,225.7C288.9,225.7,288.9,225.7,288.9,225.7z M360,162.5l-70.3,62.5l46-14.7L360,162.5z"/>
	</g>
	<g>
		<path class="st0" d="M288.9,225.7C288.9,225.7,288.8,225.7,288.9,225.7c-0.2-0.1-0.2-0.2-0.2-0.2l22.9-73.8c0-0.1,0.1-0.1,0.2-0.1
			l48.7,10c0.1,0,0.1,0.1,0.1,0.1c0,0.1,0,0.1-0.1,0.2L289,225.6C289,225.7,289,225.7,288.9,225.7z M311.9,152l-22.7,73l70.9-63.1
			L311.9,152z"/>
	</g>
	<g>
		<path class="st0" d="M386.4,214.7C386.4,214.7,386.4,214.7,386.4,214.7l-50.6-4c-0.1,0-0.1-0.1-0.2-0.1c0-0.1,0-0.1,0.1-0.2
			l72.8-55.2c0.1,0,0.1,0,0.2,0c0.1,0,0.1,0.1,0.1,0.2l-22.2,59.2C386.6,214.7,386.5,214.7,386.4,214.7z M336.3,210.4l50,4
			l21.9-58.5L336.3,210.4z"/>
	</g>
	<g>
		<path class="st0" d="M335.8,210.7c0,0-0.1,0-0.1,0c-0.1-0.1-0.1-0.1,0-0.2l24.7-48.7c0-0.1,0.1-0.1,0.1-0.1l48.1-6.5
			c0.1,0,0.2,0,0.2,0.1c0,0.1,0,0.2-0.1,0.2l-72.8,55.2C335.9,210.7,335.8,210.7,335.8,210.7z M360.7,161.9l-24.4,48l71.7-54.3
			L360.7,161.9z"/>
	</g>
	<g>
		<path class="st0" d="M415.3,234.3C415.3,234.3,415.2,234.2,415.3,234.3l-29-19.6c0,0-0.1-0.1-0.1-0.1c0,0,0-0.1,0-0.1l38.6-52.4
			c0-0.1,0.1-0.1,0.2-0.1c0.1,0,0.1,0.1,0.1,0.2l-9.8,72C415.5,234.2,415.4,234.2,415.3,234.3C415.4,234.3,415.3,234.3,415.3,234.3z
			 M386.7,214.5l28.5,19.3l9.6-71L386.7,214.5z"/>
	</g>
	<g>
		<path class="st0" d="M386.4,214.7C386.4,214.7,386.4,214.7,386.4,214.7c-0.2-0.1-0.2-0.2-0.2-0.2l22.2-59.2c0,0,0.1-0.1,0.1-0.1
			c0,0,0.1,0,0.1,0l16.5,6.8c0,0,0.1,0.1,0.1,0.1c0,0.1,0,0.1,0,0.2l-38.6,52.4C386.5,214.7,386.5,214.7,386.4,214.7z M408.7,155.5
			L387,213.4l37.8-51.2L408.7,155.5z"/>
	</g>
	<g>
		<path class="st0" d="M415.3,234.3c-0.1,0-0.1,0-0.1-0.1c0-0.1,0-0.2,0-0.2L480,161c0,0,0.1-0.1,0.1-0.1c0.1,0,0.1,0,0.1,0.1
			l28.5,42.7c0,0,0,0.1,0,0.2c0,0.1-0.1,0.1-0.1,0.1L415.3,234.3C415.3,234.3,415.3,234.3,415.3,234.3z M480.1,161.4l-64.2,72.3
			l92.4-29.9L480.1,161.4z"/>
	</g>
	<g>
		<path class="st0" d="M415.3,234.3C415.3,234.3,415.3,234.3,415.3,234.3c-0.1,0-0.2-0.1-0.2-0.2l9.8-72c0-0.1,0.1-0.2,0.2-0.2
			l55.1-1c0.1,0,0.1,0,0.2,0.1c0,0.1,0,0.1,0,0.2l-64.8,72.9C415.4,234.2,415.4,234.3,415.3,234.3z M425.2,162.3l-9.7,71.2
			l64.2-72.2L425.2,162.3z"/>
	</g>
	<g>
		<path class="st0" d="M185.8,298.3c0,0-0.1,0-0.1-0.1c-0.1-0.1-0.1-0.1,0-0.2l53.2-91.5c0-0.1,0.1-0.1,0.2-0.1
			c0.1,0,0.1,0.1,0.1,0.2l-5.8,64.5c0,0.1,0,0.1-0.1,0.1L185.8,298.3C185.8,298.3,185.8,298.3,185.8,298.3z M238.7,207.3l-52.5,90.3
			L233,271L238.7,207.3z"/>
	</g>
	<g>
		<path class="st0" d="M277.8,288C277.7,288,277.7,288,277.8,288l-44.6-16.7c-0.1,0-0.1-0.1-0.1-0.1c0-0.1,0-0.1,0.1-0.2l55.7-45.6
			c0.1,0,0.1-0.1,0.2,0c0.1,0,0.1,0.1,0.1,0.2l-11.2,62.3C277.9,287.9,277.9,288,277.8,288C277.8,288,277.8,288,277.8,288z
			 M233.6,271.1l44.1,16.6l11-61.7L233.6,271.1z"/>
	</g>
	<g>
		<path class="st0" d="M233.2,271.3C233.2,271.3,233.2,271.3,233.2,271.3c-0.1-0.1-0.2-0.1-0.2-0.2l5.8-64.5c0-0.1,0-0.1,0.1-0.1
			c0,0,0.1,0,0.2,0l49.9,18.9c0.1,0,0.1,0.1,0.1,0.1c0,0.1,0,0.1-0.1,0.2l-55.7,45.6C233.3,271.3,233.3,271.3,233.2,271.3z
			 M239.1,206.8l-5.7,63.9l55.1-45.2L239.1,206.8z"/>
	</g>
	<g>
		<path class="st0" d="M277.8,288c0,0-0.1,0-0.1,0c-0.1-0.1-0.1-0.2,0-0.2l58-77.3c0.1-0.1,0.1-0.1,0.2,0c0.1,0,0.1,0.1,0.1,0.2
			l-15,43c0,0,0,0.1-0.1,0.1l-43,34.3C277.8,288,277.8,288,277.8,288z M335.3,211.5l-56.5,75.3l41.9-33.4L335.3,211.5z"/>
	</g>
	<g>
		<path class="st0" d="M277.8,288C277.7,288,277.7,288,277.8,288c-0.1,0-0.2-0.1-0.2-0.2l11.2-62.3c0-0.1,0.1-0.1,0.1-0.1l46.9-15
			c0.1,0,0.2,0,0.2,0.1c0,0.1,0,0.1,0,0.2l-58,77.3C277.9,288,277.8,288,277.8,288z M289.1,225.6l-11,61.5l57.3-76.3L289.1,225.6z"
			/>
	</g>
	<g>
		<path class="st0" d="M400.6,255.1C400.6,255.1,400.6,255.1,400.6,255.1l-79.8-1.4c-0.1,0-0.1-0.1-0.2-0.1c0-0.1,0-0.2,0.1-0.2
			l65.7-39c0,0,0.1,0,0.1,0c0,0,0.1,0.1,0.1,0.1l14.1,40.4c0,0.1,0,0.1,0,0.2C400.7,255,400.6,255.1,400.6,255.1z M321.4,253.4
			l78.9,1.3l-14-39.9L321.4,253.4z"/>
	</g>
	<g>
		<path class="st0" d="M320.8,253.7c0,0-0.1,0-0.1,0c-0.1,0-0.1-0.1-0.1-0.2l15-43c0-0.1,0.1-0.1,0.2-0.1l50.6,4
			c0.1,0,0.1,0.1,0.2,0.1c0,0.1,0,0.2-0.1,0.2L320.8,253.7C320.8,253.7,320.8,253.7,320.8,253.7z M335.9,210.7l-14.8,42.4l64.8-38.5
			L335.9,210.7z"/>
	</g>
	<g>
		<path class="st0" d="M435.4,258.5C435.4,258.5,435.4,258.5,435.4,258.5l-34.9-3.4c-0.1,0-0.1,0-0.1-0.1c0-0.1,0-0.1,0-0.2
			l14.7-20.8c0,0,0.1-0.1,0.1-0.1c0.1,0,0.1,0,0.1,0.1l20.1,24.2c0,0.1,0.1,0.1,0,0.2C435.5,258.4,435.5,258.5,435.4,258.5z
			 M400.9,254.7l34.1,3.4l-19.7-23.7L400.9,254.7z"/>
	</g>
	<g>
		<path class="st0" d="M400.6,255.1C400.6,255.1,400.6,255.1,400.6,255.1c-0.1,0-0.1-0.1-0.2-0.1l-14.1-40.4c0-0.1,0-0.2,0.1-0.2
			c0.1,0,0.1,0,0.2,0l28.9,19.6c0,0,0.1,0.1,0.1,0.1c0,0,0,0.1,0,0.1L400.7,255C400.7,255,400.6,255.1,400.6,255.1z M386.8,215
			l13.9,39.5l14.4-20.4L386.8,215z"/>
	</g>
	<g>
		<path class="st0" d="M435.4,258.5c-0.1,0-0.1,0-0.2-0.1c0-0.1,0-0.2,0.1-0.2l73.2-54.4c0.1-0.1,0.2,0,0.2,0c0.1,0.1,0.1,0.2,0,0.2
			l-30.5,46.5c0,0-0.1,0.1-0.1,0.1L435.4,258.5C435.4,258.5,435.4,258.5,435.4,258.5z M507.9,204.6L436.1,258l41.8-7.7L507.9,204.6z
			"/>
	</g>
	<g>
		<path class="st0" d="M435.4,258.5c-0.1,0-0.1,0-0.1-0.1l-20.1-24.2c0,0,0-0.1,0-0.2c0-0.1,0.1-0.1,0.1-0.1l93.3-30.2
			c0.1,0,0.2,0,0.2,0.1c0,0.1,0,0.2-0.1,0.2l-73.2,54.4C435.5,258.5,435.4,258.5,435.4,258.5z M415.6,234.2l19.8,23.9l72.2-53.7
			L415.6,234.2z"/>
	</g>
	<g>
		<path class="st0" d="M133.6,332.8c-0.1,0-0.1,0-0.2-0.1c0-0.1,0-0.2,0.1-0.2l52.1-34.6c0.1,0,0.2,0,0.2,0l24,23.7
			c0,0,0.1,0.1,0,0.2c0,0.1-0.1,0.1-0.1,0.1L133.6,332.8C133.7,332.8,133.6,332.8,133.6,332.8z M185.7,298.3l-51.3,34.1l75-10.7
			L185.7,298.3z"/>
	</g>
	<g>
		<path class="st0" d="M209.8,322c-0.1,0-0.1,0-0.1-0.1c0-0.1-0.1-0.1,0-0.2l23.5-50.7c0-0.1,0.1-0.1,0.2-0.1c0.1,0,0.1,0.1,0.2,0.1
			l11.3,41.1c0,0.1,0,0.2-0.1,0.2L209.8,322C209.8,322,209.8,322,209.8,322z M233.2,271.6l-23.1,50l34.3-9.5L233.2,271.6z"/>
	</g>
	<g>
		<path class="st0" d="M209.8,322c0,0-0.1,0-0.1-0.1l-24-23.7c0,0-0.1-0.1-0.1-0.1s0-0.1,0.1-0.1l47.5-27c0.1,0,0.2,0,0.2,0
			c0.1,0.1,0.1,0.1,0,0.2l-23.5,50.7C209.9,322,209.8,322,209.8,322C209.8,322,209.8,322,209.8,322z M186,298.1l23.7,23.4l23.1-50
			L186,298.1z"/>
	</g>
	<g>
		<path class="st0" d="M303.7,324.3C303.7,324.3,303.7,324.3,303.7,324.3l-59.2-11.9c-0.1,0-0.1-0.1-0.1-0.1c0-0.1,0-0.1,0.1-0.2
			l33.2-24.4c0,0,0.1,0,0.1,0c0,0,0.1,0,0.1,0.1l25.9,36.3c0,0.1,0,0.1,0,0.2C303.8,324.3,303.8,324.3,303.7,324.3z M245,312.1
			l58.3,11.8l-25.6-35.8L245,312.1z"/>
	</g>
	<g>
		<path class="st0" d="M244.6,312.4C244.5,312.4,244.5,312.4,244.6,312.4c-0.1,0-0.2-0.1-0.2-0.1L233,271.2c0-0.1,0-0.1,0.1-0.2
			s0.1-0.1,0.2,0l44.5,16.7c0.1,0,0.1,0.1,0.1,0.1c0,0.1,0,0.1-0.1,0.2l-33.2,24.4C244.6,312.4,244.6,312.4,244.6,312.4z
			 M233.5,271.4l11.2,40.5l32.7-24L233.5,271.4z"/>
	</g>
	<g>
		<path class="st0" d="M303.7,324.3c0,0-0.1,0-0.1,0c0,0-0.1-0.1-0.1-0.2l17.1-70.6c0-0.1,0.1-0.1,0.2-0.1c0.1,0,0.2,0.1,0.1,0.2
			l-7.2,67.2c0,0.1-0.1,0.1-0.1,0.1L303.7,324.3C303.7,324.3,303.7,324.3,303.7,324.3z M320.3,256.2l-16.4,67.7l9.5-3.3L320.3,256.2
			z"/>
	</g>
	<g>
		<path class="st0" d="M303.7,324.3c-0.1,0-0.1,0-0.1-0.1l-25.9-36.3c-0.1-0.1,0-0.2,0-0.2l43-34.3c0.1,0,0.1-0.1,0.2,0
			c0.1,0,0.1,0.1,0.1,0.2l-17.1,70.6C303.8,324.3,303.8,324.3,303.7,324.3C303.7,324.3,303.7,324.3,303.7,324.3z M278,287.9
			l25.6,35.9l16.9-69.8L278,287.9z"/>
	</g>
	<g>
		<path class="st0" d="M390.2,327.9C390.2,327.9,390.2,327.9,390.2,327.9l-76.7-7c-0.1,0-0.1-0.1-0.2-0.1c0-0.1,0-0.1,0.1-0.2
			l87-65.8c0.1,0,0.1,0,0.2,0c0.1,0,0.1,0.1,0.1,0.2l-10.3,72.8C390.4,327.8,390.3,327.9,390.2,327.9z M314.1,320.6l76,6.9
			l10.2-72.2L314.1,320.6z"/>
	</g>
	<g>
		<path class="st0" d="M313.6,320.9C313.6,320.9,313.5,320.9,313.6,320.9c-0.1-0.1-0.2-0.1-0.2-0.2l7.2-67.2c0-0.1,0.1-0.2,0.2-0.2
			l79.8,1.4c0.1,0,0.1,0.1,0.2,0.1c0,0.1,0,0.1-0.1,0.2l-87,65.8C313.7,320.9,313.6,320.9,313.6,320.9z M320.9,253.7l-7.1,66.6
			l86.2-65.3L320.9,253.7z"/>
	</g>
	<g>
		<path class="st0" d="M390.2,327.9c-0.1,0-0.1,0-0.2-0.1c0-0.1,0-0.1,0-0.2l45.2-69.4c0-0.1,0.1-0.1,0.2-0.1c0.1,0,0.1,0.1,0.1,0.2
			l-5.9,66.3c0,0.1-0.1,0.2-0.2,0.2L390.2,327.9C390.3,327.9,390.2,327.9,390.2,327.9z M435.2,259l-44.6,68.5l38.8-3L435.2,259z"/>
	</g>
	<g>
		<path class="st0" d="M390.2,327.9C390.2,327.9,390.2,327.9,390.2,327.9c-0.1,0-0.2-0.1-0.2-0.2l10.3-72.8c0-0.1,0.1-0.2,0.2-0.2
			l34.8,3.4c0.1,0,0.1,0,0.1,0.1c0,0.1,0,0.1,0,0.2l-45.2,69.4C390.4,327.8,390.3,327.9,390.2,327.9z M400.7,255.1l-10.2,71.8
			l44.6-68.5L400.7,255.1z"/>
	</g>
	<g>
		<path class="st0" d="M481.9,336.3C481.9,336.3,481.9,336.3,481.9,336.3l-52.4-11.6c-0.1,0-0.1-0.1-0.1-0.1c0-0.1,0-0.1,0-0.2
			l48.5-74.2c0-0.1,0.1-0.1,0.2-0.1c0.1,0,0.1,0.1,0.1,0.2l3.9,85.7c0,0.1,0,0.1-0.1,0.1C482,336.3,481.9,336.3,481.9,336.3z
			 M429.8,324.5l51.9,11.5l-3.8-85L429.8,324.5z"/>
	</g>
	<g>
		<path class="st0" d="M429.5,324.8C429.5,324.8,429.5,324.8,429.5,324.8c-0.1,0-0.2-0.1-0.2-0.2l5.9-66.3c0-0.1,0.1-0.1,0.1-0.2
			l42.7-7.9c0.1,0,0.1,0,0.2,0.1c0,0.1,0,0.1,0,0.2l-48.5,74.2C429.7,324.8,429.6,324.8,429.5,324.8z M435.6,258.5l-5.8,65.5
			l47.9-73.3L435.6,258.5z"/>
	</g>
	<g>
		<path class="st0" d="M101.5,379.1c-0.1,0-0.1,0-0.1-0.1c0-0.1,0-0.1,0-0.2l32.2-46.3c0,0,0.1-0.1,0.1-0.1c0.1,0,0.1,0,0.1,0.1
			l23.4,37.1c0,0,0,0.1,0,0.2c0,0.1-0.1,0.1-0.1,0.1L101.5,379.1C101.5,379.1,101.5,379.1,101.5,379.1z M133.6,333l-31.8,45.7
			l54.9-9L133.6,333z"/>
	</g>
	<g>
		<path class="st0" d="M183.9,371.3C183.9,371.3,183.9,371.3,183.9,371.3L157,370c-0.1,0-0.1,0-0.2-0.1c0-0.1,0-0.1,0-0.2l52.7-47.9
			c0.1-0.1,0.2-0.1,0.2,0c0.1,0.1,0.1,0.1,0,0.2L184,371.2C184,371.3,184,371.3,183.9,371.3z M157.5,369.6l26.3,1.3l25.3-48.3
			L157.5,369.6z"/>
	</g>
	<g>
		<path class="st0" d="M157,370C157,370,157,370,157,370c-0.1,0-0.1,0-0.1-0.1l-23.4-37.1c0-0.1,0-0.1,0-0.2c0-0.1,0.1-0.1,0.1-0.1
			l76.1-10.8c0.1,0,0.2,0,0.2,0.1c0,0.1,0,0.2,0,0.2l-52.7,47.9C157.1,369.9,157.1,370,157,370z M133.9,332.8l23.1,36.7l52.1-47.4
			L133.9,332.8z"/>
	</g>
	<g>
		<path class="st0" d="M183.9,371.3c-0.1,0-0.1,0-0.2-0.1c0-0.1,0-0.2,0-0.2l60.7-58.9c0,0,0.1-0.1,0.2,0c0.1,0,0.1,0.1,0.1,0.1
			l13.9,41.5c0,0,0,0.1,0,0.1c0,0-0.1,0.1-0.1,0.1L183.9,371.3C183.9,371.3,183.9,371.3,183.9,371.3z M244.5,312.5l-60,58.3
			l73.8-17.2L244.5,312.5z"/>
	</g>
	<g>
		<path class="st0" d="M183.9,371.3c0,0-0.1,0-0.1,0c-0.1-0.1-0.1-0.1-0.1-0.2l25.9-49.3c0,0,0.1-0.1,0.1-0.1l34.8-9.6
			c0.1,0,0.2,0,0.2,0.1c0,0.1,0,0.2,0,0.2L184,371.2C184,371.3,183.9,371.3,183.9,371.3z M209.9,322l-25.3,48.2l59.4-57.7L209.9,322
			z"/>
	</g>
	<g>
		<path class="st0" d="M293.6,377.5C293.6,377.5,293.5,377.5,293.6,377.5l-35.2-23.6c0,0-0.1-0.1-0.1-0.1c0-0.1,0-0.1,0.1-0.1
			l45.2-29.6c0.1,0,0.1,0,0.2,0c0.1,0,0.1,0.1,0.1,0.2l-10.1,53.1C293.8,377.4,293.7,377.4,293.6,377.5
			C293.7,377.5,293.6,377.5,293.6,377.5z M258.8,353.7l34.7,23.3l10-52.5L258.8,353.7z"/>
	</g>
	<g>
		<path class="st0" d="M258.5,353.9C258.4,353.9,258.4,353.9,258.5,353.9c-0.1,0-0.1-0.1-0.2-0.1l-13.9-41.5c0-0.1,0-0.1,0-0.2
			c0,0,0.1-0.1,0.2-0.1l59.1,11.9c0.1,0,0.1,0.1,0.1,0.1c0,0.1,0,0.1-0.1,0.2L258.5,353.9C258.5,353.9,258.5,353.9,258.5,353.9z
			 M244.8,312.4l13.7,41l44.7-29.2L244.8,312.4z"/>
	</g>
	<g>
		<path class="st0" d="M355,394.5C355,394.5,354.9,394.5,355,394.5l-61.4-17c0,0-0.1,0-0.1-0.1c0,0,0-0.1,0-0.1l20-56.6
			c0-0.1,0.1-0.1,0.2-0.1c0.1,0,0.1,0,0.2,0.1l41.4,73.6c0,0.1,0,0.1,0,0.2C355.1,394.4,355,394.5,355,394.5z M293.8,377.2
			l60.8,16.8l-41-72.9L293.8,377.2z"/>
	</g>
	<g>
		<path class="st0" d="M293.6,377.5C293.6,377.5,293.6,377.5,293.6,377.5c-0.1,0-0.2-0.1-0.2-0.2l10.1-53.1c0-0.1,0.1-0.1,0.1-0.1
			l9.9-3.5c0.1,0,0.1,0,0.2,0c0,0,0.1,0.1,0,0.2l-20,56.6C293.7,377.4,293.7,377.5,293.6,377.5z M303.8,324.3l-9.6,50.8l19.1-54.1
			L303.8,324.3z"/>
	</g>
	<g>
		<path class="st0" d="M355,394.5c0,0-0.1,0-0.1-0.1c-0.1-0.1-0.1-0.1,0-0.2l35.3-66.6c0-0.1,0.1-0.1,0.2-0.1c0.1,0,0.1,0.1,0.1,0.2
			l-8.3,55.3c0,0.1,0,0.1-0.1,0.1L355,394.5C355,394.5,355,394.5,355,394.5z M389.9,328.7l-34.6,65.3l26.4-11.1L389.9,328.7z"/>
	</g>
	<g>
		<path class="st0" d="M355,394.5c-0.1,0-0.1,0-0.2-0.1l-41.4-73.6c0-0.1,0-0.1,0-0.2c0-0.1,0.1-0.1,0.2-0.1l76.6,7
			c0.1,0,0.1,0,0.1,0.1c0,0.1,0,0.1,0,0.2l-35.3,66.6C355.1,394.4,355,394.5,355,394.5z M313.9,320.9l41.1,73l35-66.1L313.9,320.9z"
			/>
	</g>
	<g>
		<path class="st0" d="M381.9,383.1c-0.1,0-0.1,0-0.2-0.1c0-0.1,0-0.1,0-0.2l47.6-58.3c0,0,0.1-0.1,0.1-0.1c0.1,0,0.1,0,0.1,0.1
			l33.6,43.5c0,0,0,0.1,0,0.2c0,0.1-0.1,0.1-0.1,0.1L381.9,383.1C381.9,383.1,381.9,383.1,381.9,383.1z M429.5,324.9l-47.2,57.8
			l80.4-14.7L429.5,324.9z"/>
	</g>
	<g>
		<path class="st0" d="M381.9,383.1C381.9,383.1,381.8,383.1,381.9,383.1c-0.1,0-0.2-0.1-0.2-0.2l8.3-55.3c0-0.1,0.1-0.1,0.2-0.1
			l39.3-3.1c0.1,0,0.1,0,0.2,0.1c0,0.1,0,0.1,0,0.2L382,383.1C382,383.1,381.9,383.1,381.9,383.1z M390.4,327.8l-8.2,54.5l47-57.5
			L390.4,327.8z"/>
	</g>
	<g>
		<path class="st0" d="M471.6,374.4c0,0-0.1,0-0.1,0l-8.5-6.1c-0.1-0.1-0.1-0.2,0-0.2l18.8-31.9c0-0.1,0.1-0.1,0.2-0.1
			c0.1,0,0.1,0.1,0.1,0.2l-10.3,38.1C471.7,374.3,471.7,374.4,471.6,374.4C471.6,374.4,471.6,374.4,471.6,374.4z M463.3,368l8.2,5.9
			l9.9-36.5L463.3,368z"/>
	</g>
	<g>
		<path class="st0" d="M463.1,368.3c-0.1,0-0.1,0-0.1-0.1l-33.6-43.5c0-0.1,0-0.1,0-0.2c0-0.1,0.1-0.1,0.2-0.1l52.4,11.6
			c0.1,0,0.1,0.1,0.1,0.1c0,0.1,0,0.1,0,0.2l-18.8,31.9C463.2,368.2,463.2,368.3,463.1,368.3C463.1,368.3,463.1,368.3,463.1,368.3z
			 M430,324.9l33.1,42.9l18.6-31.5L430,324.9z"/>
	</g>
	<g>
		<path class="st0" d="M50.4,421.9c-0.1,0-0.1,0-0.2-0.1c0-0.1,0-0.2,0.1-0.2l106.6-51.9c0.1,0,0.2,0,0.2,0.1c0,0.1,0,0.2,0,0.2l0,0
			l-29.8,36.8c0,0-0.1,0.1-0.1,0.1L50.4,421.9C50.4,421.9,50.4,421.9,50.4,421.9z M156.4,370.3l-104.7,51l75.5-14.9L156.4,370.3z"/>
	</g>
	<g>
		<path class="st0" d="M50.4,421.9c-0.1,0-0.1,0-0.1-0.1c0-0.1,0-0.2,0-0.2l51.1-42.8c0,0,0.1,0,0.1,0l55.5-9.1c0.1,0,0.1,0,0.2,0.1
			c0,0.1,0,0.2,0,0.2l0,0c0,0,0,0-0.1,0L50.4,421.9C50.4,421.9,50.4,421.9,50.4,421.9z M101.6,379.1l-50,41.8l104.3-50.8
			L101.6,379.1z"/>
	</g>
	<g>
		<path class="st0" d="M198.5,408.9C198.5,408.9,198.5,408.9,198.5,408.9l-71.2-2.2c-0.1,0-0.1-0.1-0.2-0.1c0-0.1,0-0.2,0.1-0.2
			l56.6-35.4c0,0,0.1,0,0.1,0c0,0,0.1,0.1,0.1,0.1l14.6,37.6c0,0.1,0,0.1,0,0.2C198.6,408.9,198.5,408.9,198.5,408.9z M127.8,406.4
			l70.4,2.1l-14.4-37.2L127.8,406.4z"/>
	</g>
	<g>
		<path class="st0" d="M127.2,406.7c0,0-0.1,0-0.1-0.1c-0.1-0.1-0.1-0.2,0-0.2l29.8-36.8c0,0,0.1-0.1,0.1-0.1l26.9,1.3
			c0.1,0,0.1,0.1,0.2,0.1c0,0.1,0,0.2-0.1,0.2L127.2,406.7C127.3,406.7,127.3,406.7,127.2,406.7z M157.1,370L128,405.9l55.3-34.6
			L157.1,370z"/>
	</g>
	<g>
		<path class="st0" d="M235,435.5c0,0-0.1,0-0.1,0l-36.5-26.6c0,0-0.1-0.1-0.1-0.1c0-0.1,0-0.1,0.1-0.1l60-55c0.1-0.1,0.1-0.1,0.2,0
			c0.1,0,0.1,0.1,0.1,0.2l-23.5,81.6C235.1,435.5,235.1,435.5,235,435.5C235,435.5,235,435.5,235,435.5z M198.8,408.7l36.1,26.4
			l23.3-80.8L198.8,408.7z"/>
	</g>
	<g>
		<path class="st0" d="M198.5,408.9C198.5,408.9,198.5,408.9,198.5,408.9c-0.1,0-0.1-0.1-0.2-0.1l-14.6-37.6c0,0,0-0.1,0-0.1
			c0,0,0.1-0.1,0.1-0.1l74.6-17.4c0.1,0,0.2,0,0.2,0.1c0,0.1,0,0.2,0,0.2l-60,55C198.6,408.9,198.5,408.9,198.5,408.9z M184.1,371.2
			l14.4,37.2l59.3-54.4L184.1,371.2z"/>
	</g>
	<g>
		<path class="st0" d="M235,435.5c-0.1,0-0.1,0-0.1-0.1c-0.1-0.1-0.1-0.2,0-0.2l58.6-58.1c0.1-0.1,0.2-0.1,0.2,0
			c0.1,0,0.1,0.1,0.1,0.2l-10.4,25.6c0,0,0,0.1-0.1,0.1L235,435.5C235,435.5,235,435.5,235,435.5z M293.1,378l-56.7,56.2l46.6-31.4
			L293.1,378z"/>
	</g>
	<g>
		<path class="st0" d="M235,435.5C234.9,435.5,234.9,435.5,235,435.5c-0.2-0.1-0.2-0.1-0.2-0.2l23.5-81.6c0-0.1,0.1-0.1,0.1-0.1
			c0.1,0,0.1,0,0.2,0l35.2,23.6c0,0,0.1,0.1,0.1,0.1c0,0.1,0,0.1-0.1,0.1l-58.6,58.1C235.1,435.5,235,435.5,235,435.5z M258.6,354
			l-23.2,80.8l58-57.5L258.6,354z"/>
	</g>
	<g>
		<path class="st0" d="M315.4,444.4C315.4,444.4,315.4,444.4,315.4,444.4c-0.1,0-0.1,0-0.1-0.1L283.1,403c0,0,0-0.1,0-0.2
			c0-0.1,0.1-0.1,0.1-0.1l71.8-8.6c0.1,0,0.1,0,0.2,0.1c0,0.1,0,0.1,0,0.2l-39.6,49.9C315.5,444.4,315.4,444.4,315.4,444.4z
			 M283.5,403l31.8,41l39.2-49.4L283.5,403z"/>
	</g>
	<g>
		<path class="st0" d="M283.2,403c-0.1,0-0.1,0-0.1-0.1c0,0,0-0.1,0-0.2l10.4-25.6c0-0.1,0.1-0.1,0.2-0.1l61.4,17
			c0.1,0,0.1,0.1,0.1,0.2c0,0.1-0.1,0.2-0.2,0.2L283.2,403C283.2,403,283.2,403,283.2,403z M293.7,377.5l-10.2,25.1l70.6-8.4
			L293.7,377.5z"/>
	</g>
	<g>
		<path class="st0" d="M315.4,444.4c-0.1,0-0.1,0-0.2-0.1c0-0.1,0-0.2,0-0.2l66.5-61.3c0,0,0.1-0.1,0.2,0c0.1,0,0.1,0.1,0.1,0.1
			l12.6,39.8c0,0,0,0.1,0,0.1c0,0-0.1,0.1-0.1,0.1L315.4,444.4C315.4,444.4,315.4,444.4,315.4,444.4z M381.8,383.3L316,443.9
			l78.3-21.2L381.8,383.3z"/>
	</g>
	<g>
		<path class="st0" d="M315.4,444.4c0,0-0.1,0-0.1,0c-0.1-0.1-0.1-0.2,0-0.2l39.6-49.9c0,0,0,0,0.1-0.1l26.9-11.3
			c0.1,0,0.2,0,0.2,0.1c0,0.1,0,0.2,0,0.2l-66.5,61.3C315.4,444.4,315.4,444.4,315.4,444.4z M355.1,394.4l-38.2,48.1l64.1-59.1
			L355.1,394.4z"/>
	</g>
	<g>
		<path class="st0" d="M394.5,422.9c-0.1,0-0.1,0-0.2-0.1c0-0.1,0-0.2,0-0.2L463,368c0.1-0.1,0.2-0.1,0.2,0c0.1,0.1,0.1,0.2,0,0.2
			L429,413.4c0,0-0.1,0.1-0.1,0.1L394.5,422.9C394.5,422.9,394.5,422.9,394.5,422.9z M462.1,369.1l-66.8,53.3l33.5-9.2L462.1,369.1z
			"/>
	</g>
	<g>
		<path class="st0" d="M394.5,422.9C394.5,422.9,394.5,422.9,394.5,422.9c-0.1,0-0.1-0.1-0.2-0.1L381.7,383c0,0,0-0.1,0-0.1
			c0,0,0.1-0.1,0.1-0.1l81.2-14.9c0.1,0,0.2,0,0.2,0.1c0,0.1,0,0.2-0.1,0.2l-68.6,54.7C394.6,422.9,394.5,422.9,394.5,422.9z
			 M382.1,383.1l12.5,39.4l67.9-54.1L382.1,383.1z"/>
	</g>
	<g>
		<path class="st0" d="M428.9,413.5c-0.1,0-0.1,0-0.2-0.1c0-0.1,0-0.1,0-0.2l42.7-39.1c0,0,0.1-0.1,0.1,0c0.1,0,0.1,0,0.1,0.1
			l19.6,36.9c0,0.1,0,0.1,0,0.2c0,0.1-0.1,0.1-0.1,0.1L428.9,413.5C428.9,413.5,428.9,413.5,428.9,413.5z M471.5,374.5l-42.2,38.6
			l61.6-2.1L471.5,374.5z"/>
	</g>
	<g>
		<path class="st0" d="M428.9,413.5c0,0-0.1,0-0.1,0c-0.1-0.1-0.1-0.2,0-0.2L463,368c0.1-0.1,0.2-0.1,0.2,0l8.5,6.1
			c0,0,0.1,0.1,0.1,0.1c0,0.1,0,0.1-0.1,0.1L429,413.4C429,413.5,428.9,413.5,428.9,413.5z M463.1,368.3l-32.9,43.5l41.1-37.6
			L463.1,368.3z"/>
	</g>
	<g>
		<path class="st0" d="M69.5,496C69.5,496,69.5,496,69.5,496L0.1,460.9c-0.1,0-0.1-0.1-0.1-0.1c0-0.1,0-0.1,0.1-0.2l50.2-39
			c0,0,0.1,0,0.2,0c0.1,0,0.1,0.1,0.1,0.1l19.1,74.1c0,0.1,0,0.1-0.1,0.2C69.6,496,69.5,496,69.5,496z M0.5,460.7l68.7,34.8
			l-19-73.5L0.5,460.7z"/>
	</g>
	<g>
		<path class="st0" d="M69.5,496c-0.1,0-0.1,0-0.1-0.1c0-0.1,0-0.1,0-0.2l57.7-89.3c0-0.1,0.1-0.1,0.2-0.1c0.1,0,0.1,0.1,0.1,0.2
			l2.7,73.7c0,0.1-0.1,0.2-0.1,0.2L69.5,496C69.5,496,69.5,496,69.5,496z M127.1,407.1l-57.2,88.4l59.9-15.4L127.1,407.1z"/>
	</g>
	<g>
		<path class="st0" d="M69.5,496C69.5,496,69.5,496,69.5,496c-0.1,0-0.2-0.1-0.2-0.1l-19.1-74.1c0,0,0-0.1,0-0.1
			c0,0,0.1-0.1,0.1-0.1l76.9-15.2c0.1,0,0.1,0,0.2,0.1c0,0.1,0,0.1,0,0.2l-57.7,89.3C69.6,496,69.6,496,69.5,496z M50.6,421.9
			l19,73.5l57.3-88.6L50.6,421.9z"/>
	</g>
	<g>
		<path class="st0" d="M129.9,480.5c-0.1,0-0.1,0-0.2-0.1c0-0.1,0-0.2,0-0.2l68.6-71.6c0,0,0.1-0.1,0.2,0c0.1,0,0.1,0.1,0.1,0.1
			l11.4,50c0,0.1,0,0.2-0.1,0.2L129.9,480.5C130,480.5,129.9,480.5,129.9,480.5z M198.4,409.1L130.5,480l79.1-21.4L198.4,409.1z"/>
	</g>
	<g>
		<path class="st0" d="M129.9,480.5C129.9,480.5,129.9,480.5,129.9,480.5c-0.1,0-0.2-0.1-0.2-0.2l-2.7-73.7c0,0,0-0.1,0.1-0.1
			c0,0,0.1,0,0.1-0.1l71.2,2.2c0.1,0,0.1,0,0.2,0.1c0,0.1,0,0.1,0,0.2l-68.6,71.6C130,480.5,130,480.5,129.9,480.5z M127.4,406.7
			l2.7,73.1l68-71L127.4,406.7z"/>
	</g>
	<g>
		<path class="st0" d="M219.2,469.8c-0.1,0-0.1,0-0.1-0.1l-9.4-10.9c-0.1-0.1-0.1-0.2,0-0.2l25.1-23.4c0.1-0.1,0.2-0.1,0.2,0
			c0.1,0,0.1,0.1,0.1,0.2l-15.7,34.3C219.4,469.8,219.3,469.8,219.2,469.8C219.3,469.8,219.3,469.8,219.2,469.8z M210.1,458.7
			l9.1,10.6l15.2-33.2L210.1,458.7z"/>
	</g>
	<g>
		<path class="st0" d="M209.8,458.9C209.8,458.9,209.8,458.9,209.8,458.9c-0.1,0-0.2-0.1-0.2-0.1l-11.4-50c0-0.1,0-0.1,0.1-0.2
			c0.1,0,0.1,0,0.2,0l36.5,26.6c0,0,0.1,0.1,0.1,0.1c0,0.1,0,0.1-0.1,0.1L210,458.8C209.9,458.9,209.9,458.9,209.8,458.9z
			 M198.8,409.1l11.2,49.2l24.7-23L198.8,409.1z"/>
	</g>
	<g>
		<path class="st0" d="M219.2,469.8c-0.1,0-0.1,0-0.2-0.1c0-0.1,0-0.1,0-0.2l63.9-66.8c0,0,0.1-0.1,0.2,0c0.1,0,0.1,0.1,0.1,0.1
			l7.6,61.6c0,0,0,0.1,0,0.1c0,0-0.1,0.1-0.1,0.1L219.2,469.8C219.3,469.8,219.2,469.8,219.2,469.8z M283.1,403.2l-63.4,66.2
			l70.9-5.2L283.1,403.2z"/>
	</g>
	<g>
		<path class="st0" d="M219.2,469.8C219.2,469.8,219.2,469.8,219.2,469.8c-0.2-0.1-0.2-0.2-0.2-0.2l15.7-34.3c0,0,0-0.1,0.1-0.1
			l48.2-32.5c0.1,0,0.2,0,0.2,0c0.1,0.1,0.1,0.2,0,0.2l-63.9,66.8C219.3,469.8,219.3,469.8,219.2,469.8z M235.1,435.5l-15.3,33.3
			l62.1-64.8L235.1,435.5z"/>
	</g>
	<g>
		<path class="st0" d="M325.5,482.4C325.5,482.4,325.5,482.4,325.5,482.4l-34.8-17.8c-0.1,0-0.1-0.1-0.1-0.1c0-0.1,0-0.1,0.1-0.2
			l24.6-20.2c0,0,0.1,0,0.2,0c0.1,0,0.1,0.1,0.1,0.1l10.1,38c0,0.1,0,0.1-0.1,0.2C325.6,482.4,325.5,482.4,325.5,482.4z
			 M291.1,464.4l34.1,17.5l-10-37.4L291.1,464.4z"/>
	</g>
	<g>
		<path class="st0" d="M290.8,464.6C290.8,464.6,290.7,464.6,290.8,464.6c-0.1,0-0.2-0.1-0.2-0.2l-7.6-61.6c0-0.1,0-0.2,0.1-0.2
			c0.1,0,0.2,0,0.2,0.1l32.2,41.4c0.1,0.1,0,0.2,0,0.2l-24.6,20.2C290.9,464.6,290.8,464.6,290.8,464.6z M283.4,403.5l7.5,60.6
			l24.2-19.9L283.4,403.5z"/>
	</g>
	<g>
		<path class="st0" d="M325.5,482.4c-0.1,0-0.1,0-0.2-0.1c0-0.1,0-0.1,0-0.2l69-59.5c0,0,0.1-0.1,0.2,0c0.1,0,0.1,0.1,0.1,0.2
			l3.7,57.9c0,0,0,0.1,0,0.1c0,0-0.1,0.1-0.1,0.1L325.5,482.4C325.5,482.4,325.5,482.4,325.5,482.4z M394.3,423.1L326,482l72.1-1.5
			L394.3,423.1z"/>
	</g>
	<g>
		<path class="st0" d="M325.5,482.4C325.5,482.4,325.5,482.4,325.5,482.4c-0.1,0-0.2-0.1-0.2-0.1l-10.1-38c0-0.1,0-0.2,0.1-0.2
			l79.1-21.5c0.1,0,0.2,0,0.2,0.1c0,0.1,0,0.2,0,0.2l-69,59.5C325.6,482.4,325.6,482.4,325.5,482.4z M315.6,444.3l10,37.6l68.2-58.8
			L315.6,444.3z"/>
	</g>
	<g>
		<path class="st0" d="M398.2,480.9c-0.1,0-0.1,0-0.1-0.1c0-0.1-0.1-0.1,0-0.2l30.7-67.4c0-0.1,0.1-0.1,0.2-0.1
			c0.1,0,0.1,0.1,0.1,0.2l2.3,59.3c0,0.1-0.1,0.2-0.1,0.2L398.2,480.9C398.3,480.9,398.2,480.9,398.2,480.9z M428.8,414l-30.2,66.4
			l32.5-8L428.8,414z"/>
	</g>
	<g>
		<path class="st0" d="M398.2,480.9C398.2,480.9,398.2,480.9,398.2,480.9c-0.1,0-0.2-0.1-0.2-0.2l-3.7-57.9c0-0.1,0-0.2,0.1-0.2
			l34.4-9.5c0.1,0,0.1,0,0.2,0.1c0,0.1,0.1,0.1,0,0.2l-30.7,67.4C398.4,480.8,398.3,480.9,398.2,480.9z M394.7,422.9l3.7,57.1
			l30.2-66.4L394.7,422.9z"/>
	</g>
</g>
</svg>
