<svg width="202" height="51" viewBox="0 0 202 51" fill="none" xmlns="http://www.w3.org/2000/svg">
<path d="M52.6 17.3999H72.8V21.1999H64.8V42.3999H60.4V21.1999H52.5L52.6 17.3999ZM71.9 24.2999H75.6V27.7999H75.7C75.8 27.2999 76.1 26.7999 76.4 26.3999C76.7 25.8999 77.1 25.4999 77.6 25.0999C78.1 24.6999 78.6 24.3999 79.2 24.1999C79.8 23.9999 80.4 23.7999 81 23.7999C81.5 23.7999 81.8 23.7999 82 23.7999C82.2 23.7999 82.4 23.8999 82.5 23.8999V27.6999C82.2 27.5999 81.9 27.5999 81.6 27.5999C81.3 27.5999 81 27.4999 80.7 27.4999C80 27.4999 79.4 27.5999 78.8 27.8999C78.2 28.1999 77.7 28.5999 77.2 29.0999C76.8 29.5999 76.4 30.2999 76.1 30.9999C75.8 31.6999 75.7 32.6999 75.7 33.6999V42.2999H71.7L71.9 24.2999ZM100.9 42.3999H97V39.8999H96.9C96.4 40.7999 95.7 41.4999 94.7 42.0999C93.7 42.6999 92.7 42.8999 91.7 42.8999C89.3 42.8999 87.6 42.2999 86.5 41.0999C85.4 39.8999 84.9 38.0999 84.9 35.7999V24.2999H88.9V35.3999C88.9 36.9999 89.2 38.0999 89.8 38.7999C90.4 39.4999 91.3 39.7999 92.4 39.7999C93.2 39.7999 93.9 39.6999 94.5 39.3999C95.1 39.0999 95.5 38.7999 95.9 38.3999C96.3 37.9999 96.5 37.3999 96.7 36.7999C96.9 36.1999 96.9 35.4999 96.9 34.7999V24.2999H100.9V42.3999ZM107.7 36.5999C107.8 37.7999 108.3 38.5999 109 39.0999C109.8 39.5999 110.7 39.7999 111.8 39.7999C112.2 39.7999 112.6 39.7999 113.1 39.6999C113.6 39.5999 114 39.4999 114.4 39.3999C114.8 39.1999 115.2 38.9999 115.4 38.6999C115.7 38.3999 115.8 37.9999 115.8 37.4999C115.8 36.9999 115.6 36.5999 115.2 36.1999C114.8 35.8999 114.4 35.5999 113.9 35.3999C113.4 35.1999 112.7 34.9999 112 34.8999C111.3 34.7999 110.6 34.5999 109.9 34.3999C109.2 34.1999 108.4 33.9999 107.7 33.7999C107 33.5999 106.4 33.2999 105.8 32.7999C105.3 32.3999 104.8 31.8999 104.5 31.2999C104.2 30.6999 104 29.8999 104 28.9999C104 27.9999 104.2 27.1999 104.7 26.4999C105.2 25.7999 105.8 25.2999 106.5 24.8999C107.2 24.4999 108.1 24.1999 109 23.9999C109.9 23.7999 110.8 23.7999 111.6 23.7999C112.5 23.7999 113.4 23.8999 114.3 24.0999C115.1 24.2999 115.9 24.5999 116.6 25.0999C117.3 25.4999 117.9 26.0999 118.3 26.7999C118.8 27.4999 119 28.3999 119.2 29.3999H115C114.8 28.3999 114.4 27.7999 113.7 27.4999C113 27.1999 112.2 26.9999 111.3 26.9999C111 26.9999 110.7 26.9999 110.3 27.0999C109.9 27.1999 109.6 27.1999 109.2 27.3999C108.9 27.4999 108.6 27.6999 108.3 27.9999C108 28.2999 107.9 28.5999 107.9 28.9999C107.9 29.4999 108.1 29.8999 108.4 30.1999C108.7 30.4999 109.2 30.6999 109.7 30.9999C110.2 31.1999 110.9 31.3999 111.6 31.4999C112.3 31.5999 113 31.7999 113.8 31.9999C114.6 32.1999 115.2 32.3999 115.9 32.5999C116.6 32.7999 117.2 33.0999 117.8 33.5999C118.3 33.9999 118.8 34.4999 119.1 35.0999C119.4 35.6999 119.6 36.4999 119.6 37.2999C119.6 38.3999 119.4 39.2999 118.9 39.9999C118.4 40.6999 117.8 41.3999 117 41.7999C116.2 42.2999 115.3 42.5999 114.4 42.7999C113.4 42.9999 112.5 43.0999 111.6 43.0999C110.5 43.0999 109.4 42.9999 108.4 42.6999C107.4 42.3999 106.6 41.9999 105.9 41.4999C105.2 40.9999 104.6 40.2999 104.2 39.4999C103.8 38.6999 103.6 37.7999 103.5 36.6999L107.7 36.5999ZM120.8 24.2999H123.8V18.7999H127.8V24.1999H131.4V27.1999H127.8V36.8999C127.8 37.2999 127.8 37.6999 127.9 37.9999C127.9 38.2999 128 38.5999 128.1 38.7999C128.2 38.9999 128.4 39.1999 128.7 39.2999C129 39.3999 129.3 39.4999 129.8 39.4999C130.1 39.4999 130.4 39.4999 130.6 39.4999C130.8 39.4999 131.2 39.3999 131.4 39.3999V42.4999C131 42.5999 130.5 42.5999 130.1 42.5999C129.7 42.6999 129.3 42.6999 128.8 42.6999C127.7 42.6999 126.9 42.5999 126.3 42.3999C125.7 42.1999 125.2 41.8999 124.8 41.4999C124.4 41.0999 124.2 40.5999 124.1 40.0999C124 39.4999 123.9 38.7999 123.9 38.0999V27.2999H120.9L120.8 24.2999ZM134.3 24.2999H138.1V26.7999H138.2C138.8 25.6999 139.5 24.9999 140.5 24.4999C141.5 23.9999 142.6 23.7999 143.8 23.7999C145.2 23.7999 146.5 23.9999 147.5 24.5999C148.6 25.0999 149.4 25.7999 150.1 26.6999C150.8 27.5999 151.3 28.5999 151.7 29.7999C152 30.9999 152.2 32.1999 152.2 33.4999C152.2 34.6999 152 35.8999 151.7 36.9999C151.4 38.0999 150.9 39.1999 150.3 39.9999C149.7 40.7999 148.9 41.5999 147.9 42.0999C146.9 42.5999 145.8 42.8999 144.4 42.8999C143.8 42.8999 143.2 42.7999 142.7 42.6999C142.1 42.5999 141.6 42.3999 141 42.1999C140.5 41.9999 140 41.6999 139.5 41.2999C139 40.8999 138.7 40.4999 138.4 39.9999H138.3V48.9999H134.3V24.2999ZM148.2 33.3999C148.2 32.5999 148.1 31.7999 147.9 30.9999C147.7 30.1999 147.4 29.5999 146.9 28.9999C146.4 28.3999 145.9 27.8999 145.3 27.5999C144.7 27.1999 143.9 27.0999 143.1 27.0999C141.4 27.0999 140.2 27.6999 139.3 28.7999C138.5 29.9999 138 31.4999 138 33.4999C138 34.3999 138.1 35.2999 138.3 35.9999C138.5 36.7999 138.8 37.3999 139.3 37.9999C139.7 38.5999 140.3 38.9999 140.9 39.2999C141.5 39.5999 142.2 39.7999 143.1 39.7999C144 39.7999 144.8 39.5999 145.4 39.1999C146 38.7999 146.5 38.2999 147 37.7999C147.4 37.1999 147.7 36.4999 147.9 35.7999C148.1 34.8999 148.2 34.1999 148.2 33.3999ZM155.3 17.3999H159.3V21.1999H155.3V17.3999ZM155.3 24.2999H159.3V42.3999H155.3V24.2999ZM162.8 17.3999H166.8V42.3999H162.8V17.3999ZM179 42.8999C177.6 42.8999 176.3 42.6999 175.1 42.1999C174 41.6999 173 41.0999 172.2 40.1999C171.4 39.3999 170.8 38.2999 170.4 37.1999C170 35.9999 169.8 34.6999 169.8 33.3999C169.8 31.9999 170 30.7999 170.4 29.5999C170.8 28.3999 171.4 27.3999 172.2 26.5999C173 25.7999 173.9 25.0999 175.1 24.5999C176.2 24.0999 177.5 23.8999 179 23.8999C180.5 23.8999 181.7 24.0999 182.9 24.5999C184 25.0999 185 25.6999 185.8 26.5999C186.6 27.3999 187.2 28.4999 187.6 29.5999C188 30.7999 188.2 31.9999 188.2 33.3999C188.2 34.7999 188 36.0999 187.6 37.1999C187.2 38.2999 186.6 39.3999 185.8 40.1999C185 40.9999 184.1 41.6999 182.9 42.1999C181.8 42.5999 180.5 42.8999 179 42.8999ZM179 39.6999C179.9 39.6999 180.7 39.4999 181.3 39.0999C182 38.6999 182.5 38.1999 182.9 37.5999C183.3 36.9999 183.6 36.2999 183.8 35.5999C184 34.7999 184.1 34.0999 184.1 33.2999C184.1 32.4999 184 31.7999 183.8 30.9999C183.6 30.1999 183.3 29.5999 182.9 28.9999C182.5 28.3999 181.9 27.8999 181.3 27.5999C180.6 27.1999 179.9 26.9999 179 26.9999C178.1 26.9999 177.3 27.1999 176.7 27.5999C176 27.9999 175.5 28.4999 175.1 28.9999C174.7 29.5999 174.4 30.2999 174.2 30.9999C174 31.7999 173.9 32.4999 173.9 33.2999C173.9 34.0999 174 34.8999 174.2 35.5999C174.4 36.2999 174.7 36.9999 175.1 37.5999C175.5 38.1999 176.1 38.6999 176.7 39.0999C177.4 39.5999 178.2 39.6999 179 39.6999ZM189.4 24.2999H192.4V18.7999H196.4V24.1999H200V27.1999H196.4V36.8999C196.4 37.2999 196.4 37.6999 196.5 37.9999C196.5 38.2999 196.6 38.5999 196.7 38.7999C196.8 38.9999 197 39.1999 197.3 39.2999C197.6 39.3999 197.9 39.4999 198.4 39.4999C198.7 39.4999 199 39.4999 199.2 39.4999C199.5 39.4999 199.8 39.3999 200 39.3999V42.4999C199.6 42.5999 199.1 42.5999 198.7 42.5999C198.3 42.6999 197.9 42.6999 197.4 42.6999C196.3 42.6999 195.5 42.5999 194.9 42.3999C194.3 42.1999 193.8 41.8999 193.4 41.4999C193 41.0999 192.8 40.5999 192.7 40.0999C192.6 39.4999 192.5 38.7999 192.5 38.0999V27.2999H189.5V24.2999H189.4Z" fill="white"/>
<path d="M47.9 17.4H29.6L24 0L18.3 17.4H0L14.8 28.2L9.1 45.5L23.9 34.7L38.7 45.5L33.1 28.1L47.9 17.4Z" fill="#00B67A"/>
<path d="M34.4 32.1002L33.1 28.2002L24 34.8002L34.4 32.1002Z" fill="#005128"/>
</svg>
