<svg width="33" height="28" viewBox="0 0 33 28" fill="none" xmlns="http://www.w3.org/2000/svg">
<path fill-rule="evenodd" clip-rule="evenodd" d="M6.8542 0.674683C4.97127 0.674683 3.57799 2.32976 3.64038 4.12466C3.70025 5.84906 3.62246 8.08242 3.06262 9.90372C2.50078 11.7301 1.55126 12.8875 0 13.0361V14.7133C1.55126 14.8622 2.50078 16.019 3.06255 17.8456C3.62246 19.6669 3.70019 21.9003 3.64031 23.6247C3.57792 25.4193 4.97121 27.0747 6.85446 27.0747H26.1483C28.0312 27.0747 29.4243 25.4196 29.3619 23.6247C29.302 21.9003 29.3798 19.6669 29.9396 17.8456C30.5015 16.019 31.4487 14.8617 33 14.7133V13.0361C31.4487 12.8872 30.5015 11.7304 29.9396 9.90372C29.3797 8.08267 29.302 5.84906 29.3619 4.12466C29.4243 2.33002 28.0312 0.674683 26.1483 0.674683H6.85395H6.8542ZM22.3729 16.9256C22.3729 19.3971 20.5372 20.896 17.4908 20.896H12.3051C12.1567 20.896 12.0145 20.8368 11.9096 20.7315C11.8047 20.6261 11.7457 20.4833 11.7457 20.3343V7.41514C11.7457 7.26617 11.8047 7.1233 11.9096 7.01796C12.0145 6.91262 12.1567 6.85344 12.3051 6.85344H17.4613C20.0015 6.85344 21.6686 8.23524 21.6686 10.3567C21.6686 11.8458 20.5471 13.1789 19.1183 13.4124V13.4901C21.0633 13.7043 22.3729 15.0571 22.3729 16.9256ZM16.9254 8.63402H13.9685V12.8284H16.4589C18.3842 12.8284 19.4457 12.0498 19.4457 10.6582C19.4455 9.35412 18.5329 8.63402 16.9254 8.63402ZM13.9685 14.4926V19.1148H17.0342C19.0387 19.1148 20.1004 18.3071 20.1004 16.7891C20.1004 15.2711 19.0089 14.4923 16.9053 14.4923H13.9685V14.4926Z" fill="#7952B3"/>
</svg>
