<svg width="734" height="580" viewBox="0 0 734 580" fill="none" xmlns="http://www.w3.org/2000/svg">
<g clip-path="url(#clip0_192_1559)">
<path d="M569.107 164.863C505.029 163.765 467.898 214.196 486.228 277.569C491.633 296.314 501.269 314.118 513.802 329.882L691.388 230.431C661.542 192.314 614.62 165.647 569.107 164.863Z" fill="#F9EE55"/>
<path d="M568.871 164.235C504.558 163.137 467.114 213.961 485.445 277.647C490.771 296.078 500.093 313.804 513.253 330.274L514.272 329.647C501.347 313.412 492.103 295.922 486.855 277.647C468.759 214.745 505.655 164.471 569.263 165.569C613.366 166.353 659.897 191.294 690.839 230.745L691.936 230.196C676.974 211.059 657.703 194.823 636.318 183.137C614.384 171.137 591.04 164.549 568.871 164.235Z" fill="#202124"/>
<path d="M126.433 422.902L119.305 409.882L161.057 403.216C160.979 403.216 148.289 423.608 126.433 422.902Z" fill="white"/>
<path d="M162.309 402.431L118.285 409.412L126.04 423.529H126.432C126.824 423.529 127.137 423.529 127.529 423.529C148.836 423.529 161.448 403.765 161.604 403.529L162.309 402.431ZM159.646 404.078C156.591 408.314 145.076 422.274 127.529 422.274C127.294 422.274 127.059 422.274 126.824 422.274L120.244 410.353L159.646 404.078Z" fill="#202124"/>
<path d="M224.117 488.941L196.699 492.863L230.697 464.941L224.117 488.941Z" fill="#202124"/>
<path d="M230.148 464.784L231.402 465.098L224.743 489.098C224.665 489.333 224.508 489.49 224.195 489.569L196.856 493.49L196.699 492.235L223.646 488.392L230.148 464.784Z" fill="#202124"/>
<path d="M72.1469 384.706C77.8654 378.823 88.7539 351.216 103.324 338.51C114.84 328.392 125.571 344.314 125.571 344.314L116.015 352.627C107.163 369.647 82.7221 380.314 78.492 392.078C76.847 396.706 77.7087 409.961 75.2803 410.039C73.6353 410.117 72.8519 402.98 72.3819 403.921C68.8568 410.902 65.3317 418.274 63.765 417.019C62.9033 416.314 68.3868 406.274 66.9768 405.882C61.4933 404.235 65.2534 402.117 62.825 399.059C58.9866 394.117 66.4284 390.667 72.1469 384.706Z" fill="white"/>
<path d="M62.434 399.529C63.2957 400.549 63.2957 401.49 63.2173 402.353C63.2173 404.078 63.4523 405.412 66.6641 406.431C66.6641 407.294 65.4891 410.039 64.784 411.765C63.0607 415.921 62.669 417.02 63.374 417.569C63.609 417.725 63.844 417.804 64.1574 417.804C65.9591 417.804 68.1524 413.804 72.3825 405.333C72.4609 405.49 72.4609 405.647 72.5392 405.804C73.2442 408.627 73.9492 410.667 75.2809 410.667C77.2393 410.588 77.5527 407.137 78.0227 400.941C78.2577 397.569 78.4927 394.118 79.1977 392.235C81.1561 386.745 87.8929 381.255 95.0997 375.451C103.012 369.098 111.942 361.804 116.564 352.941L126.042 344.706C126.277 344.47 126.355 344.157 126.12 343.843C125.885 343.451 119.697 334.431 111.393 334.431C108.417 334.431 105.597 335.608 102.933 337.961C93.533 346.118 85.6212 360.549 79.8244 371.137C76.5343 377.098 73.7142 382.196 71.7559 384.235C70.3458 385.725 68.7791 387.059 67.2908 388.314C62.8257 392.078 59.1439 395.294 62.434 399.529ZM67.9958 389.333C69.4841 388 71.0508 386.667 72.5392 385.176C74.6543 382.98 77.396 378.039 80.8427 371.765C86.6395 361.333 94.473 346.98 103.717 338.98C106.145 336.863 108.73 335.765 111.315 335.765C117.895 335.765 123.3 342.431 124.71 344.235L115.624 352.157C115.545 352.235 115.545 352.235 115.467 352.314C110.923 361.02 102.072 368.235 94.238 374.51C86.5612 380.706 79.981 386.039 77.9443 391.843C77.2393 393.882 77.0043 397.412 76.7693 400.863C76.6126 403.608 76.1426 409.412 75.3593 409.412C74.8109 409.255 74.1059 406.51 73.8709 405.49C73.4009 403.765 73.2442 403.216 72.6175 403.216C72.4609 403.216 72.1475 403.294 71.9909 403.686L71.5992 404.471C69.3275 409.098 65.8807 415.921 64.549 416.549C64.7057 415.765 65.4891 413.725 66.1157 412.235C67.6824 408.392 68.3875 406.667 67.9174 405.804C67.8391 405.569 67.6041 405.412 67.3691 405.333C64.549 404.47 64.549 403.686 64.6274 402.431C64.6274 401.412 64.6274 400.157 63.5307 398.745C60.9456 395.608 63.4523 393.255 67.9958 389.333Z" fill="#202124"/>
<path d="M278.482 309.804C283.417 301.255 286.315 305.569 287.099 302.039C287.882 298.51 289.84 300.392 289.84 302.196C289.84 304 288.744 306.353 288.195 306.745C288.195 306.745 291.799 305.725 293.522 305.647C293.522 305.647 295.01 299.922 296.656 301.176C298.301 302.353 298.379 303.373 297.282 305.882C296.186 308.392 297.596 308.471 296.421 309.647C296.421 309.647 297.517 312.078 296.734 313.961C296.734 313.961 296.499 315.686 296.812 316.627C298.144 320.784 286.08 323.059 281.615 324.471C267.045 329.176 251.77 338.823 224.196 347.686C216.832 350.039 190.355 351.608 190.355 351.608L184.793 330.039L219.73 328.549C230.227 325.412 273.547 318.431 278.482 309.804Z" fill="white"/>
<path d="M184.322 329.725C184.243 329.882 184.165 330.039 184.243 330.274L189.805 351.843C189.884 352.157 190.119 352.314 190.432 352.314C191.529 352.235 217.066 350.667 224.351 348.314C240.331 343.137 252.473 337.647 262.187 333.176C269.394 329.882 275.66 327.059 281.692 325.098C282.476 324.863 283.494 324.549 284.747 324.235C289.604 322.902 295.636 321.255 297.124 318.51C297.516 317.804 297.594 317.098 297.359 316.392C297.124 315.686 297.203 314.51 297.281 314.039C297.908 312.471 297.359 310.51 297.124 309.725C297.594 309.176 297.594 308.706 297.516 308.157C297.438 307.686 297.359 307.216 297.908 306.118C299.004 303.608 299.161 302.118 297.046 300.627C296.811 300.471 296.498 300.314 296.184 300.314C294.539 300.314 293.521 303.294 293.051 305.02C292.033 305.098 290.701 305.412 289.604 305.647C290.074 304.627 290.466 303.216 290.466 302.118C290.466 301.255 290.152 300.392 289.604 299.843C289.291 299.529 288.899 299.294 288.507 299.294C287.881 299.294 287.019 299.765 286.549 301.804C286.314 302.823 286.001 302.902 285.061 303.137C283.494 303.529 281.066 304.078 278.011 309.412C274.407 315.608 248.165 321.333 232.498 324.784C227.093 325.961 222.393 326.98 219.729 327.765L184.87 329.255C184.557 329.412 184.4 329.569 184.322 329.725ZM185.653 330.667L219.808 329.176C219.886 329.176 219.886 329.176 219.964 329.176C222.549 328.392 227.249 327.372 232.733 326.196C250.672 322.274 275.19 316.863 279.107 310.196C281.927 305.333 283.964 304.863 285.374 304.549C286.392 304.314 287.411 304.078 287.802 302.274C288.116 301.02 288.429 300.784 288.507 300.784C288.507 300.784 288.664 300.784 288.742 300.941C289.056 301.255 289.212 301.804 289.212 302.274C289.212 303.922 288.194 306.039 287.802 306.274C287.567 306.431 287.489 306.823 287.646 307.059C287.802 307.294 288.116 307.451 288.351 307.372C288.351 307.372 291.876 306.353 293.521 306.274C293.834 306.274 294.069 306.039 294.148 305.804C294.774 303.451 295.714 301.647 296.184 301.647C296.184 301.647 296.263 301.647 296.263 301.725C297.516 302.667 297.751 303.216 296.654 305.647C296.028 307.059 296.106 307.843 296.184 308.392C296.263 308.784 296.263 308.863 295.871 309.176C295.714 309.333 295.636 309.647 295.714 309.882C295.714 309.882 296.733 312.078 296.028 313.647C296.028 313.725 295.949 313.725 295.949 313.804C295.949 313.961 295.714 315.686 296.106 316.784C296.263 317.176 296.184 317.49 296.028 317.882C294.774 320.157 288.507 321.804 284.434 322.98C283.259 323.294 282.162 323.608 281.379 323.843C275.19 325.804 268.924 328.706 261.717 332C251.533 336.706 239.94 341.961 224.038 347.059C217.457 349.176 194.662 350.745 190.902 350.98L185.653 330.667Z" fill="#202124"/>
<path d="M127.061 350.823L116.486 353.804C104.266 345.569 107.634 333.098 107.634 333.098L128.863 325.961C148.055 319.529 168.736 320.157 187.301 327.451C196.153 330.902 205.005 328.392 214.405 328.078V355.059L195.213 356.392C192.471 366.745 184.168 371.922 184.168 371.922L170.146 409.412C123.145 412.078 88.1289 394.745 88.1289 394.745C114.841 376.157 127.061 350.823 127.061 350.823Z" fill="white"/>
<path d="M87.8926 394.196C87.7359 394.353 87.5792 394.51 87.6576 394.745C87.6576 394.98 87.8142 395.137 87.9709 395.294C88.2842 395.451 118.757 410.274 160.353 410.274C163.643 410.274 167.011 410.196 170.301 409.961C170.536 409.961 170.771 409.804 170.849 409.569L184.793 372.235C186.046 371.373 193.097 366.353 195.76 356.941L214.56 355.686C214.874 355.686 215.187 355.373 215.187 355.059V328.078C215.187 327.922 215.109 327.765 215.03 327.608C214.874 327.451 214.717 327.451 214.56 327.451C211.897 327.529 209.312 327.765 206.805 328.078C203.75 328.392 200.852 328.706 197.953 328.706C194.037 328.706 190.747 328.157 187.691 326.98C177.586 322.98 167.011 320.941 156.122 320.941C146.801 320.941 137.635 322.431 128.783 325.412L107.555 332.549C107.32 332.627 107.163 332.784 107.163 333.02C107.163 333.176 103.873 345.961 116.25 354.353C116.407 354.431 116.563 354.51 116.798 354.431L125.963 351.843C122.987 357.176 110.688 378.274 87.8926 394.196ZM89.5376 394.588C115.31 376.157 127.53 351.294 127.608 351.059C127.687 350.824 127.687 350.588 127.53 350.353C127.373 350.196 127.138 350.118 126.903 350.118L116.642 353.02C106.145 345.725 107.79 335.529 108.181 333.49L129.097 326.431C137.792 323.529 146.879 322.039 156.044 322.039C166.698 322.039 177.195 324 187.143 327.922C190.355 329.176 193.723 329.804 197.875 329.804C200.852 329.804 203.75 329.49 206.884 329.176C209.155 328.941 211.505 328.706 213.934 328.627V354.353L195.29 355.608C195.055 355.608 194.82 355.843 194.742 356.078C192.078 366.039 184.088 371.137 184.01 371.216C183.931 371.294 183.775 371.373 183.775 371.529L169.909 408.627C166.776 408.784 163.643 408.863 160.509 408.863C123.222 409.02 95.0211 397.098 89.5376 394.588Z" fill="#202124"/>
<path d="M233.281 471.921C245.032 463.765 251.455 471.921 251.455 471.921C222.079 474.431 204.532 507.451 204.532 507.451C200.929 501.02 196.855 482.039 196.855 482.039L215.029 466.902C215.029 466.902 221.453 480.078 233.281 471.921Z" fill="white"/>
<path d="M196.465 481.49C196.309 481.647 196.23 481.882 196.23 482.118C196.387 482.902 200.304 501.255 203.986 507.686C204.064 507.922 204.299 508 204.534 508C204.769 508 205.004 507.843 205.082 507.686C205.239 507.372 222.786 474.98 251.535 472.549C251.77 472.549 252.005 472.392 252.083 472.157C252.162 471.922 252.162 471.686 252.005 471.529C251.848 471.373 248.872 467.686 243.232 467.686C239.941 467.686 236.495 468.941 232.97 471.372C230.541 473.02 228.191 473.882 225.919 473.882C219.339 473.882 215.736 466.588 215.736 466.51C215.658 466.353 215.501 466.196 215.266 466.196C215.109 466.196 214.874 466.196 214.718 466.353L196.465 481.49ZM197.562 482.274L214.874 467.843C216.049 469.804 219.731 475.216 225.841 475.216C228.348 475.216 230.933 474.274 233.596 472.471C236.965 470.118 240.176 468.941 243.153 468.941C246.522 468.941 248.793 470.431 249.968 471.451C224.274 474.51 207.667 500.627 204.456 506.118C201.401 499.608 198.111 484.784 197.562 482.274Z" fill="#202124"/>
<path d="M22.1693 565.804C41.3614 556.941 49.0382 579.451 49.0382 579.451H5.32722C-0.312908 571.765 6.26724 561.176 6.26724 561.176L22.1693 565.804Z" fill="white"/>
<path d="M5.71941 560.784C5.40607 561.255 -0.939076 571.843 4.85772 579.765C5.01439 579.921 5.17106 580 5.32773 580H48.9604C49.1954 580 49.3521 579.921 49.5087 579.765C49.6654 579.608 49.6654 579.372 49.5871 579.216C49.5087 579.059 43.9469 563.059 30.7083 563.059C27.9666 563.059 25.0682 563.765 22.0914 565.098L6.42442 560.549C6.18942 560.471 5.87608 560.549 5.71941 560.784ZM6.5811 561.882L22.0131 566.353C22.1698 566.431 22.3265 566.353 22.4831 566.353C25.3815 565.02 28.1233 564.392 30.7866 564.392C41.4402 564.392 46.8453 575.608 48.177 578.823H5.64107C1.25431 572.471 5.4844 563.843 6.5811 561.882Z" fill="#202124"/>
<path d="M251.455 471.921C257.017 476.549 244.405 493.333 221.217 505.49C217.379 507.529 204.219 514.902 203.827 504.706C203.435 494.51 244.718 466.274 251.455 471.921Z" fill="#202124"/>
<path d="M209.312 494.431C205.16 498.745 203.123 502.196 203.201 504.706C203.358 509.569 206.335 510.588 208.763 510.588C212.915 510.588 218.32 507.686 220.983 506.274L221.532 505.961C241.194 495.686 252.631 482.667 253.336 475.608C253.493 473.804 253.023 472.314 251.848 471.372C251.142 470.823 250.124 470.51 248.871 470.51C240.332 470.588 219.338 484 209.312 494.431ZM204.455 504.706C204.376 502.588 206.413 499.294 210.173 495.372C220.043 485.098 240.567 471.843 248.792 471.843C249.732 471.843 250.516 472.078 250.986 472.392C251.848 473.098 252.161 474.196 252.004 475.529C251.299 482.353 239.471 495.137 220.827 504.863L220.278 505.176C217.772 506.51 212.445 509.333 208.685 509.333C205.943 509.333 204.611 507.843 204.455 504.706Z" fill="#202124"/>
<path d="M69.8765 495.686C69.8765 495.686 77.475 435.137 82.6451 417.412C90.792 389.647 127.218 383.451 128.55 427.843C129.881 472.235 102.464 509.412 102.464 509.412L42.6159 570.51L24.9905 575.059L0.863281 556.157C42.6159 498.745 69.8765 495.686 69.8765 495.686Z" fill="#09B850"/>
<path d="M0.391676 555.765L0 556.314L24.8322 575.843L42.9276 571.137L103.011 509.804C103.324 509.412 130.506 471.922 129.175 427.843C128.47 403.608 117.424 394.98 107.241 394.98C96.2739 394.98 85.9336 404.157 82.0169 417.333C77.0818 434.039 70.0316 489.49 69.2482 495.216C65.3315 495.843 39.2459 502.274 0.391676 555.765ZM1.72337 556.078C42.6143 500 69.6399 496.392 69.8749 496.314L70.3449 496.235L70.4233 495.765C70.5016 495.137 78.1001 435.059 83.1919 417.569C86.7953 405.176 96.9005 396.157 107.162 396.157C116.719 396.157 127.138 404.471 127.843 427.843C129.096 470.902 102.854 507.608 101.914 508.941L42.2226 569.882L25.0672 574.353L1.72337 556.078Z" fill="#202124"/>
<path d="M128.469 427.843C129.174 452.235 121.262 474.431 113.898 489.569V397.02C121.732 400.314 127.999 409.961 128.469 427.843Z" fill="#202124"/>
<path d="M117.659 374.431C138.026 362.353 162.702 361.647 170.614 365.098C191.372 374.196 230.775 464.863 230.775 464.863L196.778 492.784C164.895 436.392 157.375 401.804 157.375 401.804C157.375 401.804 141.081 414.353 125.806 424.706C113.272 433.176 75.1232 446.98 73.1648 422.745C71.2064 398.667 102.932 383.216 117.659 374.431Z" fill="#09B850"/>
<path d="M117.659 374.431C138.026 362.353 162.702 361.647 170.614 365.098C191.372 374.196 230.775 464.863 230.775 464.863L196.778 492.784C164.895 436.392 157.375 401.804 157.375 401.804C157.375 401.804 141.081 414.353 125.806 424.706C113.272 433.176 75.1232 446.98 73.1648 422.745C71.2064 398.667 102.932 383.216 117.659 374.431Z" fill="#09B850"/>
<path d="M72.46 422.902C73.165 432.157 79.2751 437.098 90.007 437.098C102.854 437.098 118.834 430.196 126.041 425.333C139.28 416.392 153.458 405.647 156.905 402.98C158.394 408.941 167.48 442.431 196.151 493.176C196.229 493.333 196.386 493.49 196.621 493.49H196.699C196.856 493.49 197.013 493.412 197.091 493.333L231.089 465.412C231.324 465.255 231.402 464.941 231.245 464.706C229.6 461.02 191.529 373.647 170.771 364.549C168.029 363.373 163.564 362.667 158.237 362.667C144.372 362.667 129.096 366.824 117.268 373.882C115.779 374.745 114.213 375.686 112.411 376.706C96.9005 385.647 70.7366 400.706 72.46 422.902ZM113.116 377.804C114.839 376.784 116.484 375.843 117.973 374.98C129.566 368.078 144.685 363.922 158.315 363.922C163.407 363.922 167.794 364.549 170.379 365.647C189.963 374.196 227.015 457.882 229.992 464.706L196.934 491.843C165.757 436.549 158.002 402.039 157.924 401.647C157.845 401.412 157.689 401.255 157.532 401.176C157.297 401.098 157.14 401.176 156.905 401.255C156.749 401.412 140.455 413.882 125.336 424.157C118.443 428.784 102.462 435.686 90.007 435.686C79.9018 435.686 74.4183 431.294 73.7133 422.667C72.0683 401.412 97.7622 386.588 113.116 377.804Z" fill="#202124"/>
<path d="M124.004 296.078C135.833 285.725 141.551 296.471 147.191 294.196C152.91 291.921 155.886 284 166.305 283.843C173.903 283.765 181.345 286.745 183.46 293.961C185.967 302.588 178.447 310.588 170.222 311.294C162.623 312 168.968 320.549 155.886 326.118C146.251 330.274 143.118 323.294 136.694 323.529C124.317 324 125.649 334.51 111.862 332.706C106.457 328.941 98.5451 304.078 102.07 290.51C102.148 290.588 115.387 303.529 124.004 296.078Z" fill="#202124"/>
<path d="M193.723 319.137C193.723 319.137 183.617 315.216 178.996 308C174.374 300.784 175.235 298.51 175.235 298.51C194.898 294.588 193.723 319.137 193.723 319.137Z" fill="#202124"/>
<path d="M164.426 317.882C164.426 317.882 162.076 317.02 163.251 313.098C164.426 309.176 166.933 310.118 169.205 311.686C169.205 311.686 176.412 304.314 179.467 305.412C182.522 306.51 184.715 307.843 184.715 311.686C184.715 311.686 185.107 315.294 182.914 318.431C182.914 318.431 185.185 323.686 178.683 326.823C175.472 328.392 172.495 327.529 170.302 325.569L168.813 331.294C168.343 333.176 166.385 334.274 164.505 333.725C161.998 332.941 160.666 330.353 161.371 327.843L164.426 317.882Z" fill="white"/>
<path d="M160.744 327.608C159.882 330.431 161.449 333.412 164.269 334.274C164.661 334.431 165.053 334.431 165.444 334.431C167.246 334.431 168.891 333.176 169.361 331.451L170.614 326.745C173.121 328.549 176.02 328.863 178.84 327.451C184.793 324.549 183.853 319.843 183.461 318.588C185.576 315.372 185.263 311.843 185.185 311.686C185.263 307.294 182.443 305.882 179.545 304.863C179.31 304.784 178.996 304.706 178.605 304.706C175.471 304.706 170.458 309.49 168.969 310.902C167.716 310.118 166.698 309.725 165.836 309.725C164.269 309.725 163.173 310.823 162.546 312.941C161.606 316.157 162.859 317.569 163.564 318.196L160.744 327.608ZM161.919 328L165.131 317.49L164.583 317.255C164.504 317.255 162.781 316.471 163.799 313.255C164.504 310.98 165.523 310.98 165.914 310.98C166.619 310.98 167.559 311.372 168.813 312.157L169.283 312.471L169.674 312.078C171.398 310.353 176.255 305.882 178.761 305.882C178.918 305.882 179.075 305.882 179.231 305.961C182.365 307.059 184.088 308.314 184.01 311.686C184.01 311.765 184.323 315.216 182.286 318.118L182.051 318.431L182.208 318.745C182.286 318.902 184.166 323.529 178.291 326.353C175.628 327.608 172.886 327.216 170.614 325.176L169.831 324.471L168.108 331.137C167.794 332.392 166.698 333.176 165.444 333.176C165.209 333.176 164.896 333.098 164.661 333.02C162.546 332.392 161.293 330.118 161.919 328Z" fill="#202124"/>
<path d="M179.856 305.02C180.64 306.588 179.465 309.882 174.686 311.843C169.908 313.882 168.968 318.588 167.479 315.059C165.991 311.529 166.148 311.137 167.323 307.922C168.498 304.627 178.133 301.49 179.856 305.02Z" fill="#202124"/>
<path d="M175.937 293.725C183.223 293.647 184.946 299.529 184.946 299.529C184.946 299.529 172.177 294.667 162.855 306.51C162.855 306.51 164.266 293.882 175.937 293.725Z" fill="white"/>
<path d="M162.23 306.431C162.23 306.745 162.387 306.98 162.622 307.059C162.7 307.059 162.779 307.137 162.857 307.137C163.014 307.137 163.249 307.059 163.327 306.902C168.419 300.47 174.451 299.137 178.681 299.137C182.206 299.137 184.713 300.078 184.791 300.078C185.026 300.157 185.261 300.078 185.418 299.921C185.574 299.765 185.653 299.529 185.574 299.294C185.574 299.216 183.616 293.02 176.096 293.02H175.939C163.876 293.255 162.23 306.353 162.23 306.431ZM163.954 304.314C164.972 300.784 167.871 294.431 175.939 294.353H176.096C180.796 294.353 182.989 296.941 183.851 298.588C182.676 298.274 180.874 297.961 178.681 297.961C174.607 297.961 168.967 299.059 163.954 304.314Z" fill="#202124"/>
<path d="M170.378 324.941L168.028 331.843L167.715 321.02C168.968 323.608 170.378 324.941 170.378 324.941Z" fill="#202124"/>
<path d="M57.8264 537.267L24.5391 574.7L25.4752 575.534L58.7626 538.101L57.8264 537.267Z" fill="#202124"/>
<path d="M616.107 149.569C574.902 149.569 541.375 116 541.375 74.745C541.375 33.4901 574.902 -0.0784912 616.107 -0.0784912C657.311 -0.0784912 690.838 33.4901 690.838 74.745C690.76 116 657.311 149.569 616.107 149.569ZM616.107 1.4117C575.686 1.4117 542.785 34.3529 542.785 74.8235C542.785 115.294 575.686 148.235 616.107 148.235C656.528 148.235 689.428 115.294 689.428 74.8235C689.428 34.3529 656.528 1.4117 616.107 1.4117Z" fill="#202124"/>
<path d="M616.107 134.98C582.971 134.98 555.945 108 555.945 74.7451C555.945 41.5686 582.893 14.5098 616.107 14.5098C649.242 14.5098 676.268 41.4902 676.268 74.7451C676.19 108 649.242 134.98 616.107 134.98ZM616.107 15.9215C583.676 15.9215 557.355 42.2745 557.355 74.7451C557.355 107.216 583.676 133.569 616.107 133.569C648.537 133.569 674.858 107.137 674.858 74.7451C674.858 42.3529 648.459 15.9215 616.107 15.9215Z" fill="#202124"/>
<path d="M616.105 121.255C590.489 121.255 569.652 100.392 569.652 74.745C569.652 49.098 590.489 28.2352 616.105 28.2352C641.721 28.2352 662.558 49.098 662.558 74.745C662.558 100.392 641.642 121.255 616.105 121.255ZM616.105 29.7254C591.273 29.7254 571.062 49.9607 571.062 74.8235C571.062 99.6862 591.273 119.922 616.105 119.922C640.937 119.922 661.148 99.6862 661.148 74.8235C661.148 49.9607 640.937 29.7254 616.105 29.7254Z" fill="#202124"/>
<path d="M616.108 105.02C599.423 105.02 585.871 91.451 585.871 74.7451C585.871 58.0392 599.423 44.4706 616.108 44.4706C632.794 44.4706 646.346 58.0392 646.346 74.7451C646.267 91.451 632.715 105.02 616.108 105.02ZM616.108 45.8823C600.206 45.8823 587.281 58.8235 587.281 74.7451C587.281 90.6667 600.206 103.608 616.108 103.608C632.01 103.608 644.936 90.6667 644.936 74.7451C644.936 58.902 632.01 45.8823 616.108 45.8823Z" fill="#202124"/>
<path d="M632.211 75.9662C632.883 67.068 626.222 59.3098 617.335 58.6378C608.448 57.9658 600.699 64.6345 600.028 73.5327C599.357 82.4309 606.017 90.189 614.904 90.861C623.792 91.533 631.54 84.8644 632.211 75.9662Z" fill="#202124"/>
<path d="M733.372 99.2157C701.647 105.961 692.638 77.5686 649.867 99.2157V45.0196C681.671 35.2157 700.942 49.8823 733.372 45.0196L721.466 71.8431L733.372 99.2157Z" fill="#202124"/>
<path d="M723.582 100.941C715.201 100.941 708.307 98.5882 701.649 96.3137C688.567 91.8431 675.093 87.2157 650.182 99.8431C649.947 99.9215 649.712 99.9215 649.477 99.8431C649.242 99.6863 649.164 99.5294 649.164 99.2941V45.0196C649.164 44.7059 649.399 44.4706 649.634 44.3921C667.259 38.9804 680.968 40.9412 695.382 43.0588C706.897 44.7843 718.804 46.5098 733.296 44.3137C733.531 44.3137 733.766 44.3921 733.923 44.549C734.079 44.7843 734.079 45.0196 734.001 45.2549L722.172 71.8431L734.001 98.9019C734.079 99.0588 734.079 99.2941 734.001 99.5294C733.923 99.6863 733.766 99.8431 733.531 99.9215C729.928 100.627 726.637 100.941 723.582 100.941ZM679.558 90.2745C688.175 90.2745 695.225 92.7059 702.04 95.0588C711.284 98.1961 719.979 101.176 732.356 98.7451L720.762 72.1568C720.684 72 720.684 71.7647 720.762 71.6078L732.199 45.8823C718.099 47.8431 706.427 46.1176 695.147 44.3921C680.968 42.2745 667.651 40.3137 650.496 45.4902V98.0392C662.324 92.2353 671.646 90.2745 679.558 90.2745Z" fill="white"/>
<path d="M648.771 179.686H647.361C646.186 179.686 645.324 178.745 645.324 177.647V41.9607C645.324 40.7843 646.264 39.9215 647.361 39.9215H648.771C649.946 39.9215 650.808 40.8627 650.808 41.9607V177.647C650.886 178.745 649.946 179.686 648.771 179.686Z" fill="#202124"/>
<path d="M620.023 560.784H588.141V168.941L619.71 166.667L620.023 560.784Z" fill="#E7F8EE"/>
<path d="M620.025 561.412H588.221C587.829 561.412 587.516 561.098 587.516 560.706V168.941C587.516 168.549 587.829 168.314 588.142 168.235L619.633 166.039C619.79 166.039 620.025 166.117 620.181 166.196C620.338 166.353 620.416 166.51 620.416 166.667L620.73 560.706C620.73 560.863 620.651 561.098 620.495 561.176C620.338 561.412 620.181 561.412 620.025 561.412ZM588.847 560.078H619.32L619.006 167.451L588.847 169.568V560.078Z" fill="#202124"/>
<path d="M705.41 560.784H620.024C619.868 560.784 619.711 560.549 619.711 560.314V167.137C619.711 166.902 619.868 166.667 620.024 166.667L705.41 171.216C705.566 171.216 705.723 171.451 705.723 171.686V560.314C705.723 560.549 705.566 560.784 705.41 560.784Z" fill="#E7F8EE"/>
<path d="M705.411 561.412H620.026C619.478 561.412 619.008 560.941 619.008 560.314V167.137C619.008 166.823 619.164 166.51 619.399 166.274C619.556 166.118 619.869 165.961 620.104 166.039L705.49 170.588C706.038 170.588 706.43 171.137 706.43 171.686V560.314C706.351 560.941 705.96 561.412 705.411 561.412ZM620.34 560.078H704.941V171.843L620.34 167.373V560.078Z" fill="#202124"/>
<path d="M677.369 356C676.977 356 676.664 355.686 676.664 355.294V196.235C676.664 195.843 676.977 195.529 677.369 195.529C677.761 195.529 678.074 195.843 678.074 196.235V355.373C678.074 355.686 677.761 356 677.369 356Z" fill="#202124"/>
<path d="M650.342 299.294C649.95 299.294 649.637 298.98 649.637 298.588V251.608C649.637 251.216 649.95 250.902 650.342 250.902C650.733 250.902 651.047 251.216 651.047 251.608V298.588C651.047 298.98 650.733 299.294 650.342 299.294Z" fill="#202124"/>
<path d="M650.342 460.314C649.95 460.314 649.637 460 649.637 459.608V378.588C649.637 378.196 649.95 377.882 650.342 377.882C650.733 377.882 651.047 378.196 651.047 378.588V459.608C651.047 460 650.733 460.314 650.342 460.314Z" fill="#202124"/>
<path d="M512.624 560.784H480.977V268.235L512.467 258.274L512.624 560.784Z" fill="#E7F8EE"/>
<path d="M512.626 561.49H480.978C480.587 561.49 480.273 561.176 480.273 560.784V268.235C480.273 267.921 480.43 267.686 480.743 267.608L512.234 257.647C512.469 257.569 512.704 257.647 512.861 257.725C513.018 257.882 513.174 258.039 513.174 258.274L513.331 560.784C513.331 560.941 513.253 561.176 513.096 561.255C513.018 561.412 512.861 561.49 512.626 561.49ZM481.605 560.157H511.921L511.764 259.294L481.605 268.863V560.157Z" fill="#202124"/>
<path d="M598.167 560.784H512.782C512.625 560.784 512.469 560.627 512.469 560.471V258.667C512.469 258.51 512.625 258.353 512.782 258.353L598.167 261.804C598.324 261.804 598.481 261.961 598.481 262.118V560.471C598.481 560.627 598.324 560.784 598.167 560.784Z" fill="#E7F8EE"/>
<path d="M598.169 561.49H512.784C512.236 561.49 511.766 561.02 511.766 560.471V258.667C511.766 258.353 511.844 258.118 512.079 257.882C512.314 257.725 512.549 257.569 512.784 257.569L598.169 261.02C598.718 261.02 599.109 261.49 599.109 262.039V560.392C599.188 561.02 598.718 561.49 598.169 561.49ZM513.176 560.157H597.778V262.431L513.176 258.98V560.157Z" fill="#202124"/>
<path d="M555.475 416.392C555.083 416.392 554.77 416.078 554.77 415.686V281.647C554.77 281.255 555.083 280.941 555.475 280.941C555.866 280.941 556.18 281.255 556.18 281.647V415.686C556.18 416.078 555.866 416.392 555.475 416.392Z" fill="#202124"/>
<path d="M532.994 326.118C532.602 326.118 532.289 325.804 532.289 325.412V302.588C532.289 302.196 532.602 301.882 532.994 301.882C533.386 301.882 533.699 302.196 533.699 302.588V325.412C533.621 325.804 533.307 326.118 532.994 326.118Z" fill="#202124"/>
<path d="M532.994 477.647C532.602 477.647 532.289 477.333 532.289 476.941V363.137C532.289 362.745 532.602 362.431 532.994 362.431C533.386 362.431 533.699 362.745 533.699 363.137V476.941C533.621 477.333 533.307 477.647 532.994 477.647Z" fill="#202124"/>
<path d="M578.037 371.137C577.645 371.137 577.332 370.824 577.332 370.431V347.608C577.332 347.216 577.645 346.902 578.037 346.902C578.429 346.902 578.742 347.216 578.742 347.608V370.431C578.742 370.824 578.429 371.137 578.037 371.137Z" fill="#202124"/>
<path d="M406.01 560.784H374.52V392.706L406.01 385.725V560.784Z" fill="#E7F8EE"/>
<path d="M406.012 561.49H374.521C374.13 561.49 373.816 561.176 373.816 560.784V392.706C373.816 392.392 374.051 392.078 374.365 392L405.855 385.098C406.09 385.02 406.247 385.098 406.404 385.255C406.56 385.412 406.639 385.569 406.639 385.804V560.784C406.717 561.176 406.404 561.49 406.012 561.49ZM375.226 560.157H405.385V386.588L375.226 393.176V560.157Z" fill="#202124"/>
<path d="M492.024 560.784H406.012V386.118C406.012 385.882 406.168 385.725 406.403 385.725L492.024 388.627V560.784Z" fill="#E7F8EE"/>
<path d="M492.026 561.49H406.014C405.622 561.49 405.309 561.176 405.309 560.784V386.118C405.309 385.804 405.387 385.569 405.622 385.333C405.857 385.176 406.092 385.02 406.405 385.02L492.026 387.922C492.417 387.922 492.652 388.235 492.652 388.627V560.784C492.731 561.176 492.417 561.49 492.026 561.49ZM406.719 560.157H491.321V389.333L406.719 386.51V560.157Z" fill="#202124"/>
<path d="M428.885 511.686C428.493 511.686 428.18 511.372 428.18 510.98V406.667C428.18 406.274 428.493 405.961 428.885 405.961C429.276 405.961 429.59 406.274 429.59 406.667V510.98C429.59 511.372 429.276 511.686 428.885 511.686Z" fill="#202124"/>
<path d="M474.006 523.843C473.614 523.843 473.301 523.529 473.301 523.137V418.823C473.301 418.431 473.614 418.118 474.006 418.118C474.397 418.118 474.711 418.431 474.711 418.823V523.137C474.632 523.529 474.319 523.843 474.006 523.843Z" fill="#202124"/>
<path d="M451.447 482.98C451.055 482.98 450.742 482.667 450.742 482.274V460.941C450.742 460.549 451.055 460.235 451.447 460.235C451.839 460.235 452.152 460.549 452.152 460.941V482.274C452.152 482.667 451.839 482.98 451.447 482.98Z" fill="#202124"/>
<path d="M300.023 560.784H268.219V477.412L299.709 471.216L300.023 560.784Z" fill="#E7F8EE"/>
<path d="M300.025 561.49H268.221C267.829 561.49 267.516 561.176 267.516 560.784V477.412C267.516 477.098 267.751 476.784 268.064 476.706L299.555 470.51C299.79 470.431 299.946 470.51 300.103 470.667C300.26 470.823 300.338 470.98 300.338 471.216L300.651 560.863C300.651 561.02 300.573 561.255 300.416 561.333C300.416 561.412 300.26 561.49 300.025 561.49ZM268.926 560.157H299.398L299.085 472.078L268.926 478.039V560.157Z" fill="#202124"/>
<path d="M385.41 560.784H300.024C299.868 560.784 299.711 560.627 299.711 560.47V471.529C299.711 471.372 299.868 471.216 300.024 471.216L385.41 472.627C385.566 472.627 385.723 472.784 385.723 472.941V560.549C385.723 560.706 385.645 560.784 385.41 560.784Z" fill="#E7F8EE"/>
<path d="M385.411 561.49H300.026C299.478 561.49 299.008 561.02 299.008 560.471V471.529C299.008 471.294 299.086 470.98 299.321 470.823C299.556 470.667 299.791 470.51 300.026 470.51L385.411 471.922C385.96 471.922 386.351 472.392 386.351 472.941V560.549C386.43 561.02 385.96 561.49 385.411 561.49ZM300.418 560.157H385.02V473.255L300.418 471.843V560.157Z" fill="#202124"/>
<path d="M359.717 540.314C359.325 540.314 359.012 540 359.012 539.608V486.51C359.012 486.118 359.325 485.804 359.717 485.804C360.108 485.804 360.422 486.118 360.422 486.51V539.608C360.422 540 360.108 540.314 359.717 540.314Z" fill="#202124"/>
<path d="M332.768 521.412C332.376 521.412 332.062 521.098 332.062 520.706V505.02C332.062 504.627 332.376 504.314 332.768 504.314C333.159 504.314 333.473 504.627 333.473 505.02V520.706C333.473 521.098 333.159 521.412 332.768 521.412Z" fill="#202124"/>
<path d="M194.035 560.784H162.152V517.098L193.721 511.843L194.035 560.784Z" fill="#E7F8EE"/>
<path d="M194.037 561.49H162.154C161.763 561.49 161.449 561.177 161.449 560.784V517.098C161.449 516.784 161.684 516.471 161.998 516.392L193.488 511.059C193.723 511.059 193.88 511.059 194.037 511.216C194.193 511.373 194.272 511.529 194.272 511.765L194.585 560.784C194.585 560.941 194.507 561.176 194.35 561.255C194.35 561.412 194.193 561.49 194.037 561.49ZM162.859 560.157H193.332L193.018 512.627L162.859 517.726V560.157Z" fill="#202124"/>
<path d="M279.421 560.784H194.036C193.879 560.784 193.723 560.706 193.723 560.627V512C193.723 511.922 193.879 511.843 194.036 511.843L279.421 512.627C279.578 512.627 279.735 512.706 279.735 512.784V560.706C279.735 560.706 279.578 560.784 279.421 560.784Z" fill="#E7F8EE"/>
<path d="M279.423 561.49H194.038C193.49 561.49 193.02 561.098 193.02 560.628V512C193.02 511.765 193.098 511.608 193.255 511.451C193.411 511.294 193.725 511.137 194.038 511.137L279.423 511.922C279.972 511.922 280.363 512.314 280.363 512.784V560.706C280.363 561.098 279.972 561.49 279.423 561.49ZM194.351 560.157H278.953V513.333L194.351 512.549V560.157Z" fill="#202124"/>
<path d="M253.728 549.882C253.337 549.882 253.023 549.569 253.023 549.177V520.157C253.023 519.765 253.337 519.451 253.728 519.451C254.12 519.451 254.433 519.765 254.433 520.157V549.177C254.433 549.569 254.12 549.882 253.728 549.882Z" fill="#202124"/>
<path d="M226.701 539.608C226.309 539.608 225.996 539.294 225.996 538.902V530.353C225.996 529.961 226.309 529.647 226.701 529.647C227.093 529.647 227.406 529.961 227.406 530.353V538.902C227.406 539.294 227.093 539.608 226.701 539.608Z" fill="#202124"/>
<path d="M287.723 426.118L284.59 453.804L296.418 458.745L300.727 428.549L287.723 426.118Z" fill="white"/>
<path d="M296.42 459.451C296.342 459.451 296.264 459.451 296.185 459.372L284.435 454.51C284.122 454.353 283.965 454.118 284.043 453.804L287.177 426.118C287.177 425.961 287.333 425.725 287.412 425.647C287.568 425.569 287.725 425.49 287.96 425.49L300.964 427.921C301.355 428 301.59 428.314 301.512 428.706L297.204 458.902C297.204 459.137 297.047 459.294 296.89 459.372C296.655 459.372 296.499 459.451 296.42 459.451ZM285.375 453.412L295.872 457.804L299.945 429.176L288.352 427.059L285.375 453.412Z" fill="#202124"/>
<path d="M281.929 451.216C281.537 453.804 280.988 458.667 280.91 463.059C280.91 465.804 282.947 468.078 285.61 468.471C293.287 469.49 310.677 470.51 325.561 469.176C326.58 469.098 328.381 468.314 328.851 465.804C330.496 457.255 315.691 455.216 299.476 449.02C298.849 448.784 298.144 448.941 297.596 449.412L295.872 451.137C294.149 452.863 291.485 453.333 289.292 452.392L283.965 450.118C283.025 449.647 282.007 450.274 281.929 451.216Z" fill="#202124"/>
<path d="M310.051 470.51C300.102 470.51 290.78 469.804 285.532 469.176C282.477 468.784 280.127 466.196 280.205 463.059C280.283 458.588 280.832 453.647 281.223 451.137C281.302 450.431 281.693 449.882 282.32 449.569C282.947 449.255 283.652 449.176 284.278 449.49L289.605 451.765C291.564 452.627 293.914 452.157 295.48 450.667L297.204 448.941C297.909 448.314 298.849 448.078 299.789 448.392C303.549 449.804 307.231 451.059 310.756 452.157C322.036 455.843 330.966 458.823 329.634 465.961C329.086 468.627 327.206 469.725 325.718 469.882C320.548 470.353 315.221 470.51 310.051 470.51ZM282.555 451.294C282.163 453.804 281.615 458.667 281.537 463.059C281.537 465.412 283.26 467.451 285.688 467.765C293.6 468.784 310.756 469.804 325.483 468.471C325.874 468.471 327.676 468.157 328.146 465.647C329.321 459.686 321.331 457.098 310.207 453.412C306.682 452.235 303.001 451.059 299.162 449.569C298.77 449.412 298.3 449.49 298.065 449.804L296.342 451.529C294.384 453.412 291.485 453.961 288.979 452.863L283.652 450.588C283.417 450.51 283.182 450.51 282.947 450.667C282.79 450.823 282.633 451.059 282.555 451.294Z" fill="white"/>
<path d="M280.91 462.431C280.91 462.431 280.91 462.902 280.91 463.059C280.91 465.804 282.947 468.078 285.61 468.47C293.287 469.49 310.677 470.51 325.561 469.176C326.58 469.098 328.381 468.314 328.851 465.804C329.008 465.02 328.93 463.608 328.93 463.608L327.911 463.686C312.949 464.392 297.909 464.078 282.947 462.588L280.91 462.431Z" fill="#202124"/>
<path d="M310.051 470.51C300.102 470.51 290.78 469.804 285.532 469.176C282.477 468.784 280.127 466.196 280.205 463.059V462.431C280.205 462.274 280.283 462.039 280.44 461.961C280.597 461.804 280.753 461.804 280.988 461.804L283.025 462.039C297.909 463.451 312.949 463.843 327.833 463.137L328.851 463.059C329.243 463.059 329.556 463.294 329.556 463.686C329.556 463.843 329.634 465.176 329.478 466.039C328.929 468.706 327.049 469.804 325.561 469.961C320.548 470.353 315.221 470.51 310.051 470.51ZM281.537 463.137C281.537 465.49 283.338 467.451 285.688 467.765C293.6 468.784 310.756 469.804 325.483 468.47C325.874 468.47 327.676 468.157 328.146 465.647C328.224 465.333 328.224 464.784 328.224 464.314H327.833C312.871 465.02 297.674 464.706 282.79 463.216L281.537 463.137Z" fill="white"/>
<path d="M303.236 458.902C303.079 458.902 302.923 458.823 302.766 458.667C302.531 458.431 302.531 457.961 302.766 457.725L308.485 452C308.72 451.765 309.19 451.765 309.425 452C309.66 452.235 309.66 452.706 309.425 452.941L303.706 458.667C303.549 458.823 303.393 458.902 303.236 458.902Z" fill="white"/>
<path d="M308.798 459.529C308.641 459.529 308.484 459.451 308.328 459.373C308.093 459.137 308.014 458.667 308.328 458.431L312.871 453.725C313.106 453.49 313.576 453.412 313.811 453.725C314.046 453.961 314.125 454.431 313.811 454.667L309.268 459.373C309.189 459.451 308.954 459.529 308.798 459.529Z" fill="white"/>
<path d="M299.988 354.524L299.989 354.523C316.299 330.555 318.394 306.419 320.251 285.029C320.626 280.709 320.992 276.501 321.463 272.429C322.863 260.316 325.325 253.305 327.387 249.355C328.418 247.382 329.347 246.174 329.994 245.474C330.318 245.124 330.571 244.9 330.733 244.77C330.769 244.741 330.801 244.717 330.827 244.696C330.875 244.686 330.932 244.673 330.997 244.658C331.228 244.607 331.57 244.533 332.005 244.444C332.877 244.267 334.125 244.029 335.625 243.792C338.631 243.316 342.626 242.843 346.623 242.843C350.643 242.843 354.554 243.322 357.459 244.672C358.899 245.341 360.057 246.207 360.869 247.303C361.675 248.389 362.179 249.752 362.241 251.487C362.517 259.23 363.542 267.118 364.495 273.06C364.972 276.034 365.432 278.525 365.773 280.275C365.943 281.149 366.084 281.839 366.182 282.31C366.223 282.505 366.256 282.663 366.281 282.782C366.246 282.898 366.199 283.054 366.139 283.248C365.997 283.717 365.785 284.407 365.51 285.295C364.959 287.07 364.155 289.634 363.141 292.788C361.113 299.096 358.245 307.76 354.886 317.184C348.154 336.068 339.493 357.883 331.693 369.967L332.399 370.424L331.693 369.968C316.729 393.15 303.457 433.11 300.797 441.335C300.633 441.824 300.189 442.131 299.648 442.137L284.785 441.589L284.767 441.588H284.748C284.191 441.588 283.671 441.099 283.709 440.388C284.157 435.414 284.466 429.922 284.79 424.158C284.877 422.609 284.965 421.04 285.058 419.456C285.494 411.962 286.024 404.112 286.965 396.346C288.85 380.786 292.373 365.691 299.988 354.524Z" fill="#09B850" stroke="#202124" stroke-width="2"/>
<path d="M418.154 344.078L411.887 371.216L422.932 377.412L430.766 347.922L418.154 344.078Z" fill="white"/>
<path d="M423.009 378.118C422.931 378.118 422.774 378.118 422.696 378.039L411.572 371.843C411.337 371.686 411.18 371.373 411.259 371.059L417.525 343.922C417.604 343.765 417.682 343.608 417.839 343.451C417.995 343.373 418.23 343.294 418.387 343.373L430.999 347.294C431.391 347.373 431.547 347.765 431.469 348.157L423.714 377.647C423.636 377.882 423.479 378.039 423.322 378.118C423.166 378.118 423.087 378.118 423.009 378.118ZM412.669 370.824L422.539 376.392L429.902 348.392L418.622 344.941L412.669 370.824Z" fill="#202124"/>
<path d="M410.554 369.569C410.163 372.157 407.812 377.176 407.812 381.49C407.812 384.235 409.849 386.51 412.513 386.902C420.189 387.922 439.382 388.863 454.187 387.529C455.205 387.451 457.007 386.667 457.477 384.157C459.122 375.608 444.317 373.569 428.101 367.373C427.475 367.137 426.77 367.294 426.221 367.765L424.498 369.49C422.775 371.216 420.111 371.686 417.918 370.745L412.591 368.471C411.651 368 410.633 368.627 410.554 369.569Z" fill="#202124"/>
<path d="M437.736 388.941C427.083 388.941 417.056 388.235 412.434 387.686C409.379 387.294 407.029 384.706 407.107 381.569C407.107 378.745 408.126 375.608 408.909 373.176C409.379 371.765 409.771 370.51 409.927 369.569C410.006 368.863 410.397 368.314 411.024 368C411.651 367.686 412.356 367.608 412.983 367.922L418.309 370.196C420.268 371.059 422.618 370.588 424.184 369.098L425.908 367.373C426.613 366.745 427.553 366.51 428.493 366.824C432.253 368.235 435.935 369.49 439.46 370.588C450.74 374.275 459.67 377.255 458.339 384.392C457.79 387.059 455.91 388.157 454.422 388.314C448.938 388.706 443.22 388.941 437.736 388.941ZM411.181 369.725C411.024 370.745 410.632 372.078 410.162 373.569C409.379 376 408.439 378.98 408.439 381.569C408.439 383.922 410.162 385.961 412.591 386.275C419.563 387.137 438.911 388.235 454.108 386.902C454.5 386.902 456.302 386.588 456.772 384.078C457.947 378.118 449.957 375.529 438.833 371.843C435.308 370.667 431.626 369.49 427.788 368C427.396 367.843 426.926 367.922 426.691 368.235L424.968 369.961C423.009 371.843 420.111 372.392 417.604 371.294L412.277 369.02C412.042 368.941 411.807 368.941 411.572 369.098C411.416 369.255 411.259 369.412 411.181 369.725Z" fill="white"/>
<path d="M408.125 380.706C408.125 380.706 408.125 381.177 408.125 381.333C408.125 384.078 410.162 386.353 412.825 386.745C420.502 387.765 439.224 388.863 454.108 387.529C455.126 387.451 456.928 386.667 457.398 384.157C457.554 383.373 457.476 381.961 457.476 381.961L456.458 382.039C441.496 382.745 426.455 382.431 411.493 380.941L408.125 380.706Z" fill="#202124"/>
<path d="M438.989 388.863C427.865 388.863 417.447 388.078 412.825 387.451C409.77 387.059 407.42 384.471 407.498 381.333V380.706C407.498 380.549 407.576 380.314 407.733 380.235C407.89 380.078 408.046 380.078 408.281 380.078L411.65 380.314C426.533 381.726 441.574 382.118 456.457 381.412L457.476 381.333C457.867 381.333 458.181 381.569 458.181 381.961C458.181 382.118 458.259 383.451 458.102 384.314C457.554 386.98 455.674 388.078 454.186 388.235C449.329 388.706 444.081 388.863 438.989 388.863ZM408.83 381.49C408.83 383.843 410.631 385.804 412.981 386.118C419.718 386.98 438.597 388.314 454.107 386.902C454.499 386.902 456.301 386.588 456.771 384.078C456.849 383.765 456.849 383.216 456.849 382.745H456.457C441.495 383.451 426.298 383.137 411.415 381.647L408.83 381.49Z" fill="white"/>
<path d="M431.861 377.255C431.704 377.255 431.548 377.177 431.391 377.02C431.156 376.784 431.156 376.314 431.391 376.078L437.11 370.353C437.345 370.118 437.815 370.118 438.05 370.353C438.285 370.588 438.285 371.059 438.05 371.294L432.331 377.02C432.174 377.255 432.018 377.255 431.861 377.255Z" fill="white"/>
<path d="M437.423 377.882C437.266 377.882 437.109 377.804 436.953 377.725C436.718 377.49 436.639 377.02 436.953 376.784L441.496 372.078C441.731 371.843 442.201 371.765 442.436 372.078C442.671 372.314 442.75 372.784 442.436 373.02L437.893 377.725C437.814 377.804 437.579 377.882 437.423 377.882Z" fill="white"/>
<path d="M355.789 242.933C356.349 242.828 357.158 242.678 358.183 242.489C360.288 242.1 363.303 241.544 366.949 240.88C374.239 239.55 384.048 237.784 394.12 236.034C404.194 234.285 414.525 232.553 422.864 231.294C427.035 230.664 430.7 230.153 433.581 229.818C436.498 229.478 438.524 229.328 439.475 229.39L439.482 229.39C440.288 229.437 441.186 229.469 442.154 229.503C446.223 229.647 451.519 229.833 456.296 231.346C459.226 232.273 461.88 233.68 463.881 235.824C465.869 237.955 467.27 240.874 467.606 244.945L467.606 244.946C467.759 246.77 467.405 249.707 466.599 253.562C465.799 257.387 464.574 262.021 463.045 267.192C459.987 277.531 455.728 289.961 451.261 302.247C442.322 326.832 432.583 350.753 430.021 356.118L430.017 356.127L430.013 356.136C429.795 356.615 429.388 356.878 428.823 356.882L414.518 356.413C413.68 356.361 413.139 355.628 413.264 354.919L413.266 354.911L413.267 354.903C413.609 352.771 414.047 349.982 414.556 346.736C415.858 338.442 417.627 327.166 419.464 316.254C420.741 308.665 422.049 301.261 423.252 295.17C424.461 289.051 425.549 284.336 426.379 282.07C427.383 279.359 428.165 277.032 428.832 275.046C429.103 274.237 429.356 273.485 429.597 272.787C430.439 270.345 431.132 268.582 432.004 267.2L432.004 267.2L432.01 267.19C432.533 266.34 432.469 265.254 432.128 264.5C431.952 264.11 431.647 263.683 431.161 263.443C430.626 263.178 430.029 263.219 429.5 263.517C410.912 273.503 393.296 279.162 380.327 282.323C373.842 283.903 368.523 284.858 364.829 285.418C362.982 285.698 361.542 285.879 360.566 285.99C360.382 286.011 360.215 286.029 360.065 286.045L355.789 242.933Z" fill="#09B850" stroke="#202124" stroke-width="2"/>
<path d="M257.33 262.118C258.505 260.706 259.993 259.137 261.247 257.882C262.892 256.235 268.453 245.412 268.453 245.412L278.167 248.157C278.167 248.157 273.624 256.078 274.72 260.078C275.739 263.765 276.522 271.529 271.117 277.255C270.49 277.882 269.158 278.039 268.688 277.961C267.278 277.647 267.278 275.686 267.905 274.431L269.863 270.824C270.02 270.51 269.785 270.118 269.393 270.196C267.905 270.431 264.772 271.373 261.403 275.451C258.818 278.667 253.726 285.725 252.003 284.549C249.026 282.353 251.063 269.647 257.33 262.118Z" fill="white"/>
<path d="M252.552 285.333C252.239 285.333 252.004 285.255 251.768 285.098C250.907 284.549 250.358 283.373 250.202 281.804C249.497 276.784 251.925 267.686 256.939 261.726C258.114 260.392 259.602 258.745 260.934 257.412C262.265 256.157 266.496 248.078 267.984 245.098C268.141 244.784 268.454 244.627 268.767 244.784L278.481 247.529C278.716 247.608 278.872 247.765 278.951 247.922C279.029 248.078 279.029 248.314 278.872 248.549C277.619 250.667 274.642 256.941 275.504 259.922C275.974 261.725 278.167 270.98 271.744 277.725C270.882 278.588 269.316 278.745 268.611 278.667C267.984 278.51 267.436 278.039 267.122 277.412C266.731 276.471 266.809 275.137 267.357 274.118L269.081 270.98C267.514 271.294 264.85 272.471 262.03 275.922C261.639 276.392 261.169 276.941 260.699 277.569C257.174 281.961 254.432 285.333 252.552 285.333ZM257.879 262.51C253.257 268.078 250.828 276.784 251.455 281.49C251.612 282.667 252.003 283.529 252.474 283.843C253.1 284.235 255.529 281.804 259.68 276.549C260.15 275.922 260.62 275.373 261.012 274.902C264.459 270.667 267.827 269.647 269.472 269.333C269.864 269.255 270.334 269.49 270.569 269.804C270.804 270.118 270.804 270.588 270.647 270.98L268.689 274.588C268.297 275.294 268.219 276.157 268.454 276.706C268.532 276.941 268.767 277.098 269.002 277.176C269.316 277.255 270.412 277.098 270.804 276.627C276.679 270.431 274.642 261.804 274.251 260.157C273.311 256.706 276.209 250.667 277.384 248.471L269.081 246.118C267.906 248.471 263.519 256.706 262.03 258.275C260.464 259.608 258.975 261.176 257.879 262.51Z" fill="#202124"/>
<path d="M490.142 139.922L483.876 129.333C482.857 127.608 479.567 127.059 478 128.235C442.515 154.667 404.835 143.922 398.96 142.51C384.468 139.059 377.183 138.51 365.824 137.804C349.139 136.784 325.09 146.431 308.953 162.667C296.106 175.529 274.172 217.333 264.224 246.353C263.832 247.608 264.381 248.941 265.477 249.49L275.426 254.667C276.679 255.294 278.246 254.824 278.951 253.569C284.043 244 306.055 204.235 329.085 191.137C330.809 190.196 333.315 191.216 333.237 193.177C332.924 199.294 329.164 221.961 327.989 242.902C327.832 245.647 329.712 248.157 332.454 248.627L342.559 250.51C360.106 254.588 376.635 250.039 383.842 247.451C386.035 246.667 387.132 244.549 387.445 242.196C387.993 238.353 395.827 207.216 410.006 186.667C411.807 184.078 414.471 182.275 417.682 182.118C430.373 181.412 466.485 176.314 490.064 143.216C490.612 142.196 490.691 140.941 490.142 139.922Z" fill="white"/>
<path d="M276.524 255.686C276.054 255.686 275.506 255.529 275.036 255.294L265.087 250.118C263.599 249.333 262.972 247.686 263.52 246.118C273.782 216.157 296.029 174.588 308.406 162.196C323.995 146.588 348.122 136.078 365.826 137.176C377.498 137.882 384.783 138.431 399.118 141.882C399.353 141.961 399.588 142.039 399.98 142.118C428.651 149.255 455.441 144.235 477.61 127.765C478.55 127.059 480.039 126.824 481.449 127.059C482.859 127.373 483.955 128 484.504 129.02L490.771 139.608C491.476 140.863 491.397 142.431 490.614 143.608C467.192 176.471 431.862 181.961 417.762 182.824C415.02 182.98 412.435 184.549 410.634 187.059C397.082 206.667 388.935 237.255 388.151 242.353C387.76 245.333 386.271 247.373 384.078 248.157C376.01 251.059 359.794 255.294 342.404 251.216L332.377 249.333C329.322 248.784 327.128 245.961 327.363 242.902C328.068 229.412 329.948 215.373 331.202 205.176C331.907 199.686 332.455 195.294 332.612 193.176C332.612 192.471 332.142 192.078 331.829 191.843C331.124 191.373 330.184 191.373 329.478 191.765C306.996 204.549 285.611 242.588 279.657 253.961C278.874 255.059 277.777 255.686 276.524 255.686ZM363.241 138.431C346.164 138.431 323.917 148.549 309.346 163.137C297.048 175.451 274.957 216.784 264.774 246.51C264.46 247.451 264.852 248.392 265.714 248.863L275.662 254.039C276.602 254.51 277.777 254.196 278.247 253.255C284.279 241.804 305.821 203.529 328.617 190.51C329.713 189.882 331.28 189.882 332.377 190.588C333.317 191.137 333.865 192.078 333.787 193.098C333.709 195.294 333.082 199.686 332.377 205.255C331.045 215.451 329.243 229.412 328.538 242.902C328.382 245.333 330.105 247.451 332.455 247.922L342.56 249.804C359.638 253.804 375.54 249.647 383.53 246.745C385.723 245.961 386.428 243.765 386.741 242.039C387.211 238.588 394.81 207.294 409.459 186.196C411.495 183.294 414.472 181.49 417.605 181.333C431.549 180.549 466.33 175.137 489.439 142.745C489.987 141.961 489.987 141.02 489.595 140.235L483.329 129.647C482.937 129.02 482.154 128.549 481.214 128.392C480.117 128.157 479.099 128.314 478.472 128.784C456.303 145.333 428.337 150.51 399.745 143.373C399.432 143.294 399.118 143.216 398.962 143.137C384.783 139.765 377.498 139.216 365.904 138.51C364.886 138.51 364.103 138.431 363.241 138.431Z" fill="#202124"/>
<path d="M481.446 132.471C481.29 131.686 481.603 130.902 482.23 130.353C483.013 129.647 484.423 128.471 486.381 126.745C489.828 123.686 494.215 117.647 497.975 115.843C501.735 114.039 515.444 108.627 517.637 109.804C519.83 110.98 518.734 113.49 515.6 115.059C512.467 116.549 508.393 118.118 508.393 118.118C508.393 118.118 510.665 117.961 512.31 120.627C513.955 123.216 511.684 124.314 512.624 125.569C513.877 127.216 513.485 129.176 512.545 130.039C510.274 132 507.532 128.157 505.495 132.078C504.085 134.823 500.717 136.627 493.901 137.882C492.1 138.196 490.298 138.902 488.731 139.922C488.105 140.314 487.243 140.392 486.616 140C485.05 139.059 482.23 136.863 481.446 132.471Z" fill="white"/>
<path d="M487.713 140.941C487.243 140.941 486.773 140.784 486.381 140.549C484.658 139.608 481.603 137.255 480.819 132.549C480.663 131.529 481.054 130.51 481.838 129.804C482.621 129.098 484.031 127.922 485.989 126.274C487.243 125.176 488.574 123.765 489.984 122.196C492.569 119.373 495.233 116.471 497.74 115.294C499.385 114.51 515.208 107.765 518.028 109.255C519.047 109.804 519.595 110.588 519.517 111.608C519.517 113.098 518.107 114.667 515.992 115.765C514.268 116.627 512.153 117.49 510.665 118.039C511.448 118.431 512.31 119.137 513.015 120.314C514.19 122.118 513.72 123.373 513.407 124.235C513.172 124.863 513.172 125.02 513.328 125.255C514.817 127.216 514.347 129.569 513.093 130.667C511.84 131.686 510.508 131.451 509.412 131.216C508.001 130.902 507.14 130.745 506.2 132.549C504.633 135.608 501.03 137.412 494.136 138.745C492.413 139.059 490.768 139.765 489.201 140.706C488.731 140.784 488.183 140.941 487.713 140.941ZM516.697 110.353C513.642 110.353 502.91 114.274 498.288 116.549C496.016 117.647 493.431 120.471 490.924 123.137C489.436 124.706 488.104 126.196 486.851 127.373C484.893 129.098 483.561 130.274 482.699 130.98C482.308 131.373 482.073 131.922 482.151 132.471C482.856 136.627 485.519 138.667 487.008 139.529C487.478 139.765 488.026 139.765 488.496 139.451C490.219 138.431 492.021 137.647 493.901 137.333C500.325 136.078 503.693 134.431 505.025 131.843C506.435 129.098 508.393 129.49 509.803 129.804C510.9 130.039 511.605 130.118 512.31 129.569C512.937 129.02 513.407 127.529 512.31 126.039C511.683 125.176 511.997 124.392 512.232 123.686C512.467 122.902 512.78 122.196 511.997 120.941C510.587 118.745 508.785 118.745 508.707 118.745C508.393 118.745 508.08 118.51 508.001 118.196C507.923 117.882 508.08 117.569 508.393 117.412C508.472 117.412 512.467 115.843 515.522 114.431C517.402 113.49 518.263 112.314 518.263 111.529C518.263 111.059 518.028 110.745 517.48 110.431C517.167 110.353 516.932 110.353 516.697 110.353Z" fill="#202124"/>
<path d="M389.794 109.176L371.072 140.314C370.837 140.706 368.095 140.549 364.962 140.863C363.474 141.02 361.985 141.255 360.732 141.412C359.713 141.569 359.4 142.902 360.262 143.529L363.63 145.725C370.68 150.431 379.062 152.784 387.444 152.235C389.794 152.078 392.066 151.686 394.024 151.059L401.231 148.784C402.328 148.471 402.328 146.902 401.231 146.588L392.066 143.843L399.821 127.451L389.794 109.176Z" fill="white"/>
<path d="M385.016 153.02C377.417 153.02 369.819 150.667 363.239 146.274L359.87 144.078C359.243 143.686 358.93 142.902 359.087 142.196C359.243 141.412 359.87 140.863 360.575 140.784C362.142 140.549 363.63 140.314 364.805 140.235C366.059 140.078 367.312 140.078 368.33 140C369.192 139.922 370.132 139.922 370.524 139.843L389.167 108.863C389.324 108.627 389.481 108.549 389.794 108.549C390.029 108.549 390.264 108.706 390.421 108.941L400.369 127.216C400.448 127.372 400.448 127.608 400.369 127.843L393.006 143.529L401.388 146.039C402.171 146.274 402.719 146.98 402.719 147.765C402.719 148.627 402.249 149.255 401.466 149.49L394.259 151.765C392.301 152.392 390.029 152.784 387.522 152.941C386.661 153.02 385.877 153.02 385.016 153.02ZM389.794 110.51L371.62 140.627C371.229 141.098 370.68 141.176 368.409 141.333C367.469 141.412 366.215 141.412 364.962 141.569C363.709 141.725 362.299 141.882 360.81 142.118C360.497 142.196 360.419 142.353 360.419 142.51C360.419 142.588 360.34 142.823 360.654 142.98L364.022 145.176C371.072 149.882 379.376 152.157 387.444 151.608C389.794 151.451 391.988 151.059 393.868 150.51L401.074 148.235C401.388 148.157 401.388 147.921 401.388 147.765C401.388 147.686 401.388 147.451 401.074 147.294L391.909 144.549C391.753 144.471 391.596 144.314 391.518 144.157C391.439 144 391.439 143.765 391.518 143.608L399.116 127.529L389.794 110.51Z" fill="#202124"/>
<path d="M398.174 128.078C399.193 128.235 400.133 128.235 401.229 128.157L403.109 128.078C403.109 128.078 413.763 126.667 415.408 124C417.131 121.333 413.528 111.765 413.528 111.765C415.173 110.51 415.565 108.863 415.173 108.314C414.86 107.765 412.431 106.98 411.491 106.196C410.708 105.647 408.985 101.02 408.201 99.0588C408.201 99.0588 406.791 91.2941 394.336 92.3137C365.822 94.5882 386.346 121.02 386.346 121.02C386.816 121.569 387.207 122.039 387.677 122.51L398.174 128.078Z" fill="white"/>
<path d="M400.29 128.941C398.724 128.941 397.157 128.706 395.669 128.314C395.277 128.235 395.12 127.843 395.199 127.451C395.277 127.059 395.669 126.902 396.06 126.98C397.705 127.451 399.429 127.608 401.152 127.529L403.032 127.451C406.949 126.902 413.686 125.412 414.782 123.686C415.879 121.961 414.156 115.686 412.824 112.078C412.746 111.765 412.824 111.451 413.059 111.294C414.469 110.196 414.626 108.941 414.547 108.784C414.391 108.627 413.529 108.235 412.981 107.922C412.276 107.608 411.492 107.216 411.022 106.902C410.317 106.431 409.377 104.314 407.497 99.451C407.497 99.3726 407.497 99.3726 407.497 99.2941C407.419 98.9804 406.009 92.1569 394.415 93.098C387.365 93.6471 382.822 95.6863 381.02 99.1373C377.965 104.941 382.822 113.647 385.72 118.824L385.955 119.294C386.112 119.608 386.033 120.078 385.72 120.235C385.407 120.392 384.937 120.314 384.78 120L384.545 119.529C381.49 114.118 376.32 105.02 379.767 98.5098C381.803 94.5882 386.738 92.3137 394.259 91.7647C406.479 90.7451 408.594 98.1961 408.829 98.9804C410.787 104.157 411.571 105.49 411.884 105.726C412.276 106.039 412.981 106.353 413.607 106.667C414.782 107.216 415.409 107.529 415.722 108C416.271 108.863 415.801 110.667 414.312 112C415.096 114.118 417.681 121.804 415.957 124.392C414.156 127.216 404.286 128.627 403.111 128.784L401.23 128.863C400.917 128.863 400.604 128.941 400.29 128.941Z" fill="#202124"/>
<path d="M388.542 89.0196C391.675 88.3921 395.2 88.8627 396.689 88.3921C399.117 87.5294 399.039 84.7059 402.485 84.4706C405.54 84.2353 408.361 84.7843 409.849 87.1372C410.084 87.5294 410.319 87.9216 410.476 88.4706C412.826 95.0588 409.536 98.1961 408.125 99.2157C408.125 99.2157 398.882 103.686 397.315 104.941C395.827 106.118 394.104 108.941 395.044 113.098C395.2 113.647 394.887 114.196 394.417 114.431C393.869 114.745 393.163 114.588 392.772 114.039C391.597 112.392 389.09 109.176 387.288 109.882C385.095 110.745 384.39 116.235 388.385 117.569C389.638 117.961 390.03 119.608 389.168 120.549C388.463 121.333 387.288 121.882 385.643 121.49C385.643 121.49 375.695 114.431 374.52 105.02C373.266 95.6863 384.39 89.8823 388.542 89.0196Z" fill="#202124"/>
<path d="M482.235 30.6665C481.216 30.6665 480.198 30.3528 479.258 29.7254C478.161 28.9411 477.378 27.7646 477.143 26.3528C476.908 25.0195 477.221 23.6077 478.004 22.5097C479.649 20.1567 482.861 19.6077 485.211 21.2548C486.308 22.0391 487.091 23.2156 487.326 24.6273C487.561 25.9607 487.248 27.3724 486.465 28.4705C485.525 29.8822 483.88 30.6665 482.235 30.6665ZM482.313 21.7254C481.138 21.7254 479.884 22.2744 479.179 23.3724C478.631 24.2352 478.396 25.2548 478.553 26.196C478.709 27.2156 479.258 28.0783 480.12 28.6273C481.843 29.8038 484.193 29.4116 485.446 27.6862C486.621 25.9607 486.23 23.6077 484.506 22.3528C483.801 21.8822 483.018 21.7254 482.313 21.7254Z" fill="#202124"/>
<path d="M515.603 36.4705C515.446 36.4705 515.211 36.392 515.054 36.2352C514.819 35.9214 514.819 35.5293 515.133 35.294L518.501 32.4705C518.814 32.2352 519.206 32.2352 519.441 32.5489C519.676 32.8626 519.676 33.2548 519.363 33.4901L515.994 36.3136C515.916 36.392 515.759 36.4705 515.603 36.4705Z" fill="#202124"/>
<path d="M505.106 45.4901C504.95 45.4901 504.715 45.4117 504.558 45.2548C504.323 44.9411 504.323 44.5489 504.636 44.3136L508.005 41.4901C508.318 41.2548 508.71 41.2548 508.945 41.5685C509.18 41.8823 509.18 42.2744 508.867 42.5097L505.498 45.3332C505.42 45.4117 505.263 45.4901 505.106 45.4901Z" fill="#202124"/>
<path d="M508.946 35.9215C508.789 35.9215 508.554 35.843 508.398 35.6862L505.578 32.3136C505.343 31.9999 505.343 31.6077 505.656 31.3724C505.969 31.1371 506.361 31.1371 506.596 31.4509L509.416 34.8234C509.651 35.1371 509.651 35.5293 509.338 35.7646C509.259 35.9215 509.103 35.9215 508.946 35.9215Z" fill="#202124"/>
<path d="M517.954 46.5097C517.797 46.5097 517.562 46.4313 517.406 46.2744L514.585 42.9019C514.35 42.5881 514.35 42.196 514.664 41.9607C514.977 41.7254 515.369 41.7254 515.604 42.0391L518.424 45.4117C518.659 45.7254 518.659 46.1176 518.346 46.3528C518.267 46.4313 518.111 46.5097 517.954 46.5097Z" fill="#202124"/>
<path d="M240.569 431.921C240.177 431.921 239.864 431.608 239.864 431.294L239.707 426.902C239.707 426.51 240.02 426.196 240.334 426.196C240.725 426.196 241.039 426.51 241.039 426.823L241.195 431.216C241.274 431.608 240.96 431.921 240.569 431.921Z" fill="#202124"/>
<path d="M241.037 445.725C240.646 445.725 240.332 445.412 240.332 445.098L240.176 440.706C240.176 440.314 240.489 440 240.802 440C241.194 440 241.507 440.314 241.507 440.627L241.664 445.02C241.742 445.412 241.507 445.725 241.037 445.725C241.116 445.725 241.116 445.725 241.037 445.725Z" fill="#202124"/>
<path d="M231.639 437.019C231.247 437.019 230.934 436.706 230.934 436.392C230.934 436 231.247 435.686 231.56 435.686L235.947 435.529C236.339 435.529 236.652 435.843 236.652 436.157C236.652 436.549 236.339 436.863 236.025 436.863L231.639 437.019Z" fill="#202124"/>
<path d="M245.424 436.47C245.032 436.47 244.719 436.157 244.719 435.843C244.719 435.451 245.032 435.137 245.345 435.137L249.732 434.98C250.124 434.98 250.437 435.294 250.437 435.608C250.437 436 250.124 436.314 249.811 436.314L245.424 436.47Z" fill="#202124"/>
<path d="M494.767 247.686C494.532 247.686 494.375 247.608 494.219 247.372C493.984 247.059 494.062 246.667 494.375 246.431L524.456 224.157C524.769 223.921 525.161 224 525.396 224.314C525.631 224.627 525.553 225.019 525.239 225.255L495.159 247.529C495.002 247.686 494.924 247.686 494.767 247.686Z" fill="#202124"/>
<path d="M449.412 208.471C449.177 208.471 449.02 208.392 448.863 208.157C448.628 207.843 448.707 207.451 449.02 207.216L525.71 150.353C526.023 150.118 526.415 150.196 526.65 150.51C526.885 150.823 526.807 151.216 526.493 151.451L449.803 208.314C449.647 208.471 449.568 208.471 449.412 208.471Z" fill="#202124"/>
<path d="M503.619 182.902C503.384 182.902 503.227 182.823 503.07 182.588C502.835 182.274 502.914 181.882 503.227 181.647L543.57 151.765C543.883 151.529 544.274 151.608 544.509 151.921C544.744 152.235 544.666 152.627 544.353 152.863L504.01 182.745C503.854 182.823 503.775 182.902 503.619 182.902Z" fill="#202124"/>
<path d="M263.991 253.961C263.364 253.961 262.659 253.804 262.032 253.569C260.701 253.02 259.604 252 258.977 250.667C257.802 247.843 259.056 244.627 261.719 243.372C262.032 243.216 262.502 243.372 262.659 243.686C262.816 244 262.659 244.47 262.346 244.627C260.309 245.569 259.369 248 260.231 250.118C260.701 251.137 261.484 251.921 262.502 252.314C263.521 252.706 264.617 252.706 265.557 252.235C267.594 251.294 268.534 248.863 267.672 246.745C267.516 246.431 267.672 245.961 268.064 245.804C268.377 245.647 268.847 245.804 269.004 246.196C270.179 249.02 268.926 252.235 266.262 253.49C265.479 253.804 264.774 253.961 263.991 253.961Z" fill="#202124"/>
<path d="M549.95 558.948L549.951 558.946L571.258 454.868C572.965 446.546 580.234 440.608 588.687 440.608H708.508L701.948 573.824H562.053C554.226 573.824 548.356 566.64 549.95 558.948Z" fill="#223C2E" stroke="#202124" stroke-width="2"/>
<path d="M720.998 574.823H693.659C685.199 574.823 678.853 567.059 680.577 558.745L704.156 444.157C704.704 441.569 706.976 439.686 709.639 439.686H716.689C719.588 439.686 722.016 441.961 722.251 444.863L731.886 563.059C732.356 569.333 727.343 574.823 720.998 574.823Z" fill="white"/>
<path d="M720.997 575.451H693.658C689.428 575.451 685.432 573.569 682.769 570.274C680.106 566.98 679.009 562.745 679.871 558.588L703.45 444C704.076 441.098 706.661 438.98 709.638 438.98H716.688C719.9 438.98 722.72 441.49 722.955 444.784L732.59 562.98C732.825 566.196 731.729 569.412 729.535 571.765C727.263 574.118 724.208 575.451 720.997 575.451ZM709.56 440.314C707.21 440.314 705.251 441.961 704.781 444.235L681.202 558.823C680.419 562.588 681.359 566.431 683.787 569.412C686.216 572.392 689.819 574.118 693.579 574.118H720.918C723.817 574.118 726.48 572.941 728.438 570.823C730.397 568.706 731.337 565.961 731.102 563.059L721.467 444.863C721.232 442.353 719.117 440.314 716.61 440.314H709.56Z" fill="#202124"/>
<path d="M675.795 494.98H576.623C576.231 494.98 575.918 494.667 575.918 494.274C575.918 493.882 576.231 493.569 576.623 493.569H675.874C678.85 493.569 681.357 491.529 682.062 488.627L691.776 447.529C691.854 447.137 692.246 446.902 692.637 446.98C693.029 447.059 693.264 447.451 693.186 447.843L683.472 488.941C682.532 492.471 679.399 494.98 675.795 494.98Z" fill="white"/>
<path d="M641.171 494.275L638.116 506.745C637.646 508.863 635.766 510.353 633.573 510.353H611.717C609.367 510.353 607.644 508.078 608.27 505.804L611.482 494.275H641.171Z" fill="white"/>
<path d="M633.496 511.059H611.641C610.309 511.059 609.056 510.431 608.194 509.333C607.411 508.235 607.097 506.902 607.489 505.569L610.701 494.039C610.779 493.725 611.092 493.569 611.327 493.569H641.095C641.33 493.569 641.486 493.647 641.643 493.804C641.8 493.961 641.8 494.196 641.8 494.431L638.745 506.902C638.118 509.333 636.003 511.059 633.496 511.059ZM611.954 494.98L608.899 505.961C608.664 506.823 608.821 507.765 609.369 508.471C609.917 509.176 610.779 509.647 611.719 509.647H633.575C635.455 509.647 637.021 508.392 637.491 506.588L640.39 494.98H611.954Z" fill="#202124"/>
<path d="M687.549 438.98L690.056 425.961C691.231 417.804 686.923 413.255 680.734 413.255H623.706C617.518 413.255 611.642 419.765 610.546 425.961L608.039 438.98H617.204L619.398 427.921C620.181 423.059 623.158 420.627 628.015 420.627H676.034C680.891 420.627 681.439 423.059 680.656 427.921L678.462 438.98H687.549Z" fill="white"/>
<path d="M687.547 439.608H678.382C678.147 439.608 677.99 439.529 677.834 439.372C677.677 439.216 677.677 438.98 677.677 438.823L679.871 427.765C680.341 424.863 680.262 423.216 679.479 422.353C678.852 421.647 677.677 421.255 675.954 421.255H627.934C623.391 421.255 620.728 423.529 620.023 428L617.829 439.137C617.751 439.451 617.516 439.686 617.124 439.686H607.959C607.724 439.686 607.567 439.608 607.411 439.451C607.254 439.294 607.254 439.059 607.254 438.902L609.761 425.882C610.779 419.608 616.732 412.627 623.548 412.627H680.732C683.866 412.627 686.607 413.804 688.487 415.843C690.602 418.274 691.386 421.882 690.759 426.118L688.252 439.216C688.096 439.372 687.861 439.608 687.547 439.608ZM679.166 438.274H686.921L689.349 425.804C689.897 421.961 689.192 418.823 687.391 416.706C685.824 414.902 683.474 413.961 680.732 413.961H623.704C617.751 413.961 612.189 420.392 611.249 426.118L608.899 438.353H616.654L618.769 427.843C619.631 422.745 622.843 420 628.013 420H676.032C678.304 420 679.714 420.47 680.654 421.569C681.986 423.137 681.751 425.647 681.359 428.078L679.166 438.274Z" fill="#202124"/>
<path d="M676.895 411.059H628.719C626.76 411.059 624.959 412.627 624.645 414.588L623.94 418.823C623.627 420.784 624.959 422.353 626.839 422.353H675.015C676.973 422.353 678.775 420.784 679.088 418.823L679.793 414.588C680.185 412.627 678.853 411.059 676.895 411.059Z" fill="#202124"/>
<path d="M693.342 559.059C693.107 559.059 692.872 558.902 692.715 558.745C692.558 558.431 692.637 557.961 692.95 557.804L711.515 547.216V454.902C711.515 454.51 711.829 454.196 712.221 454.196C712.612 454.196 712.926 454.51 712.926 454.902V547.608C712.926 547.843 712.769 548.078 712.612 548.235L693.733 558.98C693.577 558.98 693.498 559.059 693.342 559.059Z" fill="#202124"/>
<path d="M374.207 475.059C374.207 475.059 380.474 511.373 412.2 509.647C412.121 509.647 409.693 477.647 374.207 475.059Z" fill="white"/>
<path d="M374.209 474.431C374.052 474.431 373.817 474.51 373.739 474.588C373.582 474.745 373.582 474.902 373.582 475.059C373.66 475.373 380.006 510.196 409.93 510.196C410.635 510.196 411.418 510.196 412.123 510.118C412.28 510.118 412.436 510.039 412.515 509.882C412.593 509.725 412.671 509.569 412.671 509.412C412.671 509.255 409.851 477.098 374.209 474.431ZM409.93 509.098C383.452 509.098 376.01 480.706 374.914 475.686C406.091 478.431 410.87 504.706 411.496 509.098C410.948 509.098 410.478 509.098 409.93 509.098Z" fill="#202124"/>
<path d="M385.812 484.936L385.023 485.808L411.739 510.021L412.528 509.148L385.812 484.936Z" fill="#202124"/>
<path d="M416.039 509.647C447.686 511.373 454.032 475.059 454.032 475.059C418.546 477.647 416.039 509.647 416.039 509.647Z" fill="white"/>
<path d="M453.955 474.431C418.312 477.098 415.492 509.255 415.492 509.569C415.492 509.726 415.57 509.882 415.649 510.039C415.727 510.196 415.884 510.196 416.04 510.274C416.824 510.353 417.529 510.353 418.234 510.353C448.158 510.353 454.503 475.608 454.581 475.216C454.581 475.059 454.581 474.824 454.425 474.745C454.346 474.51 454.19 474.431 453.955 474.431ZM418.234 509.098C417.764 509.098 417.216 509.098 416.667 509.098C417.216 504.784 421.994 478.431 453.25 475.686C452.231 480.706 444.79 509.098 418.234 509.098Z" fill="#202124"/>
<path d="M442.408 485.016L415.703 509.239L416.492 510.111L443.197 485.888L442.408 485.016Z" fill="#202124"/>
<path d="M396.768 433.412C396.768 433.412 392.303 459.608 414.237 466.039C414.237 466.039 420.191 443.765 396.768 433.412Z" fill="white"/>
<path d="M397.003 432.863C396.846 432.784 396.611 432.784 396.455 432.863C396.298 432.941 396.22 433.098 396.141 433.255C396.063 433.49 391.833 460.078 414.002 466.588C414.08 466.588 414.08 466.588 414.158 466.588C414.237 466.588 414.393 466.588 414.472 466.51C414.628 466.431 414.707 466.275 414.785 466.118C414.863 465.961 420.66 443.294 397.003 432.863ZM413.767 465.333C395.28 459.451 396.69 438.588 397.238 434.275C417.37 443.608 414.55 461.725 413.767 465.333Z" fill="#202124"/>
<path d="M402.331 442.855L401.297 443.414L413.643 466.331L414.677 465.773L402.331 442.855Z" fill="#202124"/>
<path d="M414.313 482.824C437.031 480.314 437.266 453.804 437.266 453.804C412.355 459.843 414.313 482.824 414.313 482.824Z" fill="white"/>
<path d="M437.11 453.255C411.965 459.373 413.688 482.667 413.766 482.902C413.766 483.059 413.845 483.216 414.001 483.294C414.08 483.373 414.236 483.451 414.393 483.451H414.471C437.424 480.941 437.894 454.118 437.894 453.804C437.894 453.647 437.815 453.412 437.659 453.333C437.502 453.255 437.345 453.176 437.11 453.255ZM414.863 482.196C414.785 478.588 415.411 460.157 436.64 454.588C436.405 458.823 434.055 479.686 414.863 482.196Z" fill="#202124"/>
<path d="M430.08 462.097L413.891 482.475L414.81 483.208L431 462.829L430.08 462.097Z" fill="#202124"/>
<path d="M440.715 509.882H391.207V515.137H440.715V509.882Z" fill="#F6851F"/>
<path d="M440.716 509.255H391.209C390.895 509.255 390.582 509.49 390.582 509.882V515.137C390.582 515.451 390.817 515.765 391.209 515.765H440.716C441.03 515.765 441.343 515.529 441.343 515.137V509.882C441.265 509.569 441.03 509.255 440.716 509.255ZM440.09 514.588H391.757V510.51H440.09V514.588Z" fill="#202124"/>
<path d="M406.326 568.863H425.596L437.738 515.137H394.105L406.326 568.863Z" fill="#F6851F"/>
<path d="M437.737 514.51H394.104C393.948 514.51 393.791 514.588 393.634 514.745C393.556 514.902 393.478 515.059 393.556 515.216L405.698 568.941C405.776 569.177 406.011 569.412 406.246 569.412H425.517C425.83 569.412 426.065 569.255 426.065 568.941L438.207 515.216C438.285 515.059 438.207 514.824 438.129 514.745C438.129 514.588 437.972 514.51 437.737 514.51ZM425.125 568.314H406.795L394.888 515.765H437.032L425.125 568.314Z" fill="#202124"/>
<path d="M395.359 518.98H431.08L424.186 568.863H425.596L437.738 515.137H394.105L395.359 518.98Z" fill="#202124"/>
<path d="M437.737 514.51H394.104C393.948 514.51 393.713 514.588 393.634 514.745C393.556 514.902 393.478 515.059 393.556 515.294L394.809 519.137C394.888 519.373 395.123 519.53 395.358 519.53H430.373L423.558 568.784C423.558 568.941 423.558 569.098 423.715 569.255C423.793 569.412 423.95 569.49 424.185 569.49H425.595C425.908 569.49 426.143 569.333 426.143 569.02L438.285 515.294C438.364 515.137 438.285 514.902 438.207 514.824C438.129 514.588 437.972 514.51 437.737 514.51ZM425.125 568.314H424.89L431.705 519.059C431.705 518.902 431.705 518.745 431.548 518.588C431.47 518.431 431.313 518.353 431.078 518.353H395.828L394.966 515.686H437.032L425.125 568.314Z" fill="#202124"/>
<path d="M414.706 465.098H413.531V509.725H414.706V465.098Z" fill="#202124"/>
<path d="M455.28 59.9215H455.124C455.124 66.0392 450.11 70.9803 444 71.0588V71.2156C450.11 71.2941 455.045 76.2352 455.124 82.3529H455.28C455.359 76.2352 460.294 71.2941 466.404 71.2156V71.0588C460.294 70.9803 455.28 66.0392 455.28 59.9215Z" fill="white"/>
<path d="M466.406 70.4313C460.609 70.3529 455.909 65.647 455.83 59.8431C455.83 59.5294 455.595 59.2941 455.204 59.2941H455.125C454.812 59.2941 454.577 59.5294 454.499 59.8431C454.499 65.647 449.72 70.3529 443.923 70.4313C443.61 70.4313 443.375 70.6666 443.375 71.0588V71.2156C443.375 71.5294 443.61 71.7647 443.923 71.8431C449.72 71.9215 454.42 76.6274 454.499 82.4313C454.499 82.745 454.734 82.9803 455.125 82.9803H455.282C455.595 82.9803 455.83 82.745 455.909 82.4313C455.987 76.6274 460.687 71.9215 466.484 71.8431C466.797 71.8431 467.032 71.6078 467.032 71.2156V71.0588C466.954 70.6666 466.719 70.4313 466.406 70.4313ZM455.204 78.9803C454.029 75.2156 451.052 72.2352 447.37 71.1372C451.13 69.9607 454.107 67.0588 455.204 63.2941C456.379 67.0588 459.355 70.0392 463.037 71.1372C459.277 72.2352 456.379 75.2156 455.204 78.9803Z" fill="#202124"/>
<path d="M463.27 81.8038H463.192C463.192 85.098 460.45 87.843 457.16 87.843V87.9215C460.45 87.9215 463.192 90.6666 463.192 93.9607H463.27C463.27 90.6666 466.012 87.9215 469.302 87.9215V87.843C466.012 87.7646 463.27 85.098 463.27 81.8038Z" fill="white"/>
<path d="M469.304 87.2156C466.327 87.2156 463.899 84.7842 463.821 81.7254C463.821 81.4117 463.586 81.1764 463.194 81.1764H463.116C462.802 81.1764 462.567 81.4117 462.489 81.7254C462.489 84.7058 460.06 87.1372 457.005 87.2156C456.692 87.2156 456.457 87.4509 456.457 87.8431V87.9215C456.457 88.2352 456.692 88.4705 457.005 88.5489C459.982 88.5489 462.411 90.9803 462.489 94.0391C462.489 94.3529 462.724 94.5882 463.116 94.5882H463.194C463.507 94.5882 463.742 94.3529 463.821 94.0391C463.821 91.0587 466.327 88.6274 469.304 88.5489C469.617 88.5489 469.852 88.3136 469.852 87.9215V87.8431C469.931 87.5293 469.617 87.2156 469.304 87.2156ZM463.272 91.3725C462.567 89.8038 461.314 88.5489 459.747 87.8431C461.314 87.1372 462.567 85.8823 463.272 84.3921C463.977 85.9607 465.231 87.2156 466.797 87.8431C465.152 88.5489 463.899 89.8038 463.272 91.3725Z" fill="#202124"/>
</g>
<defs>
<clipPath id="clip0_192_1559">
<rect width="734" height="580" fill="white"/>
</clipPath>
</defs>
</svg>
