<?xml version="1.0" encoding="utf-8"?>
<!-- Generator: Adobe Illustrator 23.0.0, SVG Export Plug-In . SVG Version: 6.00 Build 0)  -->
<svg version="1.1" id="Layer_1" xmlns="http://www.w3.org/2000/svg" xmlns:xlink="http://www.w3.org/1999/xlink" x="0px" y="0px"
	 width="200px" height="37.5px" viewBox="0 0 200 37.5" style="enable-background:new 0 0 200 37.5;" xml:space="preserve">
<style type="text/css">
	.st0{fill:#00B67A;}
	.st1{fill:#FFFFFF;}
</style>
<g>
	<g>
		<path class="st0" d="M0,0h37.5v37.5H0V0z M40.6,0h37.5v37.5H40.6V0z M81.3,0h37.5v37.5H81.3V0z M121.9,0h37.5v37.5h-37.5V0z
			 M162.5,0H200v37.5h-37.5V0z"/>
	</g>
	<path class="st1" d="M18.8,25.3l5.7-1.4l2.4,7.3L18.8,25.3z M31.9,15.8h-10l-3.1-9.5l-3.1,9.5h-10l8.1,5.9l-3.1,9.5l8.1-5.9l5-3.6
		L31.9,15.8z M59.4,25.3l5.7-1.4l2.4,7.3L59.4,25.3z M72.5,15.8h-10l-3.1-9.5l-3.1,9.5h-10l8.1,5.9l-3.1,9.5l8.1-5.9l5-3.6
		L72.5,15.8z M100,25.3l5.7-1.4l2.4,7.3L100,25.3z M113.1,15.8h-10L100,6.3l-3.1,9.5h-10l8.1,5.9l-3.1,9.5l8.1-5.9l5-3.6L113.1,15.8
		z M140.6,25.3l5.7-1.4l2.4,7.3L140.6,25.3z M153.8,15.8h-10l-3.1-9.5l-3.1,9.5h-10l8.1,5.9l-3.1,9.5l8.1-5.9l5-3.6L153.8,15.8z
		 M181.3,25.3l5.7-1.4l2.4,7.3L181.3,25.3z M194.4,15.8h-10l-3.1-9.5l-3.1,9.5h-10l8.1,5.9l-3.1,9.5l8.1-5.9l5-3.6L194.4,15.8z"/>
</g>
</svg>
