<svg width="62" height="62" viewBox="0 0 62 62" fill="none" xmlns="http://www.w3.org/2000/svg">
<circle cx="31" cy="31" r="31" fill="#09B850"/>
<path d="M13.6156 33.2596C14.9718 33.2596 16.0711 32.1602 16.0711 30.8041C16.0711 29.448 14.9718 28.3486 13.6156 28.3486C12.2595 28.3486 11.1602 29.448 11.1602 30.8041C11.1602 32.1602 12.2595 33.2596 13.6156 33.2596Z" fill="white"/>
<path d="M48.9753 37.3357H48.6315C47.7966 37.3357 47.1582 36.6972 47.1582 35.8624V25.7458C47.1582 24.9109 47.7966 24.2725 48.6315 24.2725H48.9753C49.8101 24.2725 50.4486 24.9109 50.4486 25.7458V35.9115C50.4486 36.6972 49.8101 37.3357 48.9753 37.3357Z" fill="white"/>
<path d="M42.4421 43.916H42.0983C41.2634 43.916 40.625 43.2776 40.625 42.4427V19.1647C40.625 18.3298 41.2634 17.6914 42.0983 17.6914H42.4421C43.2769 17.6914 43.9154 18.3298 43.9154 19.1647V42.3936C43.9154 43.2285 43.2278 43.916 42.4421 43.916Z" fill="white"/>
<path d="M35.862 35.715H35.5182C34.6833 35.715 34.0449 35.0766 34.0449 34.2417V27.3664C34.0449 26.5315 34.6833 25.8931 35.5182 25.8931H35.862C36.6968 25.8931 37.3353 26.5315 37.3353 27.3664V34.2417C37.3353 35.0766 36.6968 35.715 35.862 35.715Z" fill="white"/>
<path d="M17.6917 31.0987C17.9863 32.3265 18.723 33.014 19.607 33.1613C20.0981 33.2595 20.5401 33.6033 20.7365 34.0453L27.1699 49.5149C27.4154 50.0551 27.9556 50.3988 28.5449 50.3988H29.3307C30.1656 50.3988 30.804 49.7604 30.804 48.9256V12.6334C30.804 11.7986 30.1656 11.1602 29.3307 11.1602H28.4958C27.9065 11.1602 27.3663 11.5039 27.1208 12.0441L20.6874 27.5628C20.4909 28.0539 20.049 28.3486 19.5579 28.4468C18.6739 28.6432 17.9372 29.2817 17.6426 30.5094C17.6426 30.7058 17.6426 30.9023 17.6917 31.0987ZM23.1429 30.2147L26.2859 22.6027C26.5314 21.9643 27.5136 22.1607 27.5136 22.8483V38.7107C27.5136 39.3983 26.5314 39.5947 26.2859 38.9563L23.1429 31.3443C22.9955 31.0005 22.9955 30.6076 23.1429 30.2147Z" fill="white"/>
</svg>
